<svg width="73" height="66" viewBox="0 0 73 66" fill="none" xmlns="http://www.w3.org/2000/svg">
<rect width="73" height="66" rx="10" fill="#66BADE"/>
<path d="M29.888 45L28.832 42.376L35.36 35.24C35.7227 34.8347 36.1173 34.376 36.544 33.864C36.9707 33.352 37.3867 32.8293 37.792 32.296C38.1973 31.7413 38.5173 31.208 38.752 30.696C39.008 30.184 39.136 29.7147 39.136 29.288C39.136 28.8613 39.04 28.488 38.848 28.168C38.656 27.848 38.3787 27.6027 38.016 27.432C37.6533 27.24 37.1947 27.144 36.64 27.144C36.1493 27.144 35.68 27.272 35.232 27.528C34.784 27.7627 34.3573 28.136 33.952 28.648C33.568 29.16 33.2053 29.7893 32.864 30.536L28.832 28.36C29.28 27.1227 29.9093 26.0347 30.72 25.096C31.552 24.136 32.5227 23.4 33.632 22.888C34.7413 22.3547 35.9253 22.088 37.184 22.088C38.5067 22.1093 39.7013 22.3973 40.768 22.952C41.8347 23.4853 42.6773 24.2427 43.296 25.224C43.936 26.184 44.256 27.3147 44.256 28.616C44.256 29.064 44.2027 29.5333 44.096 30.024C43.9893 30.5147 43.8293 31.0267 43.616 31.56C43.4027 32.072 43.1147 32.6267 42.752 33.224C42.4107 33.8 41.9947 34.408 41.504 35.048C41.0133 35.688 40.4373 36.3707 39.776 37.096L34.688 42.632L34.048 40.2H45.248V45H29.888Z" fill="white"/>
</svg>
