<svg width="73" height="66" viewBox="0 0 73 66" fill="none" xmlns="http://www.w3.org/2000/svg">
<rect width="73" height="66" rx="10" fill="#66BADE"/>
<path d="M37.184 45.32C35.3707 45.32 33.7813 44.9467 32.416 44.2C31.072 43.432 29.8453 42.12 28.736 40.264L32.64 37.736C33.1093 38.4827 33.5893 39.08 34.08 39.528C34.592 39.976 35.1147 40.3067 35.648 40.52C36.2027 40.712 36.7787 40.808 37.376 40.808C37.9733 40.808 38.5173 40.68 39.008 40.424C39.52 40.1467 39.9253 39.7627 40.224 39.272C40.544 38.7813 40.704 38.2267 40.704 37.608C40.704 36.9467 40.5653 36.392 40.288 35.944C40.032 35.4747 39.648 35.1227 39.136 34.888C38.6453 34.6533 38.048 34.536 37.344 34.536C37.024 34.536 36.6827 34.5787 36.32 34.664C35.9573 34.728 35.5733 34.824 35.168 34.952C34.7627 35.08 34.3467 35.2507 33.92 35.464L32.736 32.296L38.176 26.376L39.648 27.176L30.304 26.984V22.408H44.064L45.056 24.392L37.664 32.328L36.384 30.824C36.5547 30.7387 36.832 30.664 37.216 30.6C37.6213 30.5147 38.0053 30.472 38.368 30.472C39.3707 30.472 40.3093 30.6533 41.184 31.016C42.0587 31.3787 42.8373 31.88 43.52 32.52C44.2027 33.16 44.736 33.9173 45.12 34.792C45.504 35.6453 45.696 36.5627 45.696 37.544C45.696 39.0373 45.312 40.3707 44.544 41.544C43.7973 42.696 42.7733 43.6133 41.472 44.296C40.192 44.9787 38.7627 45.32 37.184 45.32Z" fill="white"/>
</svg>
