<svg width="84" height="84" viewBox="0 0 84 84" fill="none" xmlns="http://www.w3.org/2000/svg">
<circle cx="42" cy="42" r="42" fill="#3273DB"/>
<path d="M28.1626 47.045C30.8653 47.045 33.1236 45.2941 33.5226 42.9236C33.5471 42.7783 33.6072 42.6399 33.6986 42.5185C33.7901 42.3972 33.9104 42.2961 34.0507 42.2227L34.1247 42.1839C34.2736 42.1061 34.4407 42.0615 34.6123 42.054C41.4194 41.7569 46.6803 37.7309 46.6803 32.9659C46.6803 27.992 40.9653 23.8602 33.81 23.8602C26.6551 23.8602 20.9401 27.992 20.9401 32.9659C20.9401 36.4256 23.723 39.5808 28.0917 41.1219L28.3665 41.2346C28.5542 41.3129 28.7132 41.4384 28.8246 41.5962C28.9361 41.754 28.9953 41.9375 28.9953 42.1249C28.9953 43.9465 28.2081 45.6455 26.8681 46.9042C27.2918 46.998 27.7264 47.0453 28.1626 47.045ZM28.1626 49.005C26.8021 49.005 25.4912 48.6785 24.3406 48.0686C24.129 47.971 23.9724 47.8456 23.8614 47.6798C23.5516 47.2173 23.7138 46.6145 24.2235 46.3334C25.6356 45.5549 26.5803 44.242 26.7907 42.7568C26.8202 42.5492 26.8353 42.3383 26.8353 42.1249H27.9153L27.4641 43.0153L27.2491 42.9256L27.7003 42.0353L27.309 42.9487C27.1351 42.8872 26.9623 42.8233 26.7907 42.7568C21.9365 40.8721 18.78 37.1512 18.78 32.9658C18.78 26.7991 25.5561 21.9001 33.8099 21.9001C42.064 21.9001 48.8402 26.7991 48.8402 32.9658C48.8402 38.6874 42.989 43.3528 35.4854 43.9637C35.2308 43.9844 34.9743 44.0005 34.716 44.0117L34.6641 43.0329L35.2036 43.8819L34.5902 43.0716L35.6578 43.2195C35.6156 43.4703 35.5581 43.7187 35.4854 43.9637C34.6118 46.9087 31.6433 49.005 28.1625 49.005H28.1626ZM35.8524 47.3934C35.6869 46.8734 36.0173 46.3301 36.5903 46.18C37.1633 46.0298 37.7621 46.3297 37.9276 46.8496C39.1543 50.7044 43.8759 53.6196 49.5677 53.8685C49.7396 53.876 49.907 53.9207 50.056 53.9988L50.1289 54.037C50.269 54.1105 50.3891 54.2116 50.4804 54.3328C50.5717 54.4541 50.6317 54.5924 50.6562 54.7376C51.0509 57.0821 53.2849 58.8144 55.9584 58.8144C56.9226 58.8144 57.8475 58.5839 58.661 58.1525C59.176 57.8794 59.8374 58.0369 60.1384 58.5042C60.4393 58.9714 60.2658 59.5716 59.7508 59.8447C58.6089 60.4502 57.3083 60.7744 55.9584 60.7744C52.5069 60.7744 49.5628 58.6968 48.6937 55.7778C42.4733 55.2675 37.2951 51.927 35.8523 47.3934L35.8524 47.3934Z" fill="white"/>
<path d="M59.8669 58.1101C60.3766 58.3912 60.5387 58.9941 60.2289 59.4566C59.9191 59.9191 59.2548 60.0662 58.7451 59.7851C56.5151 58.5553 55.1236 56.3597 55.1236 53.9471C55.1236 53.7596 55.1829 53.5761 55.2944 53.4182C55.406 53.2604 55.565 53.1349 55.7528 53.0566L55.9656 52.968L56.0251 52.9451C60.3506 51.4191 63.1059 48.2952 63.1059 44.8709C63.1059 40.4083 58.4301 36.5648 52.133 35.9432C51.54 35.8847 51.1116 35.4011 51.1761 34.863C51.2406 34.3249 51.7736 33.9362 52.3666 33.9947C59.6771 34.7163 65.2659 39.3103 65.2659 44.8709C65.2659 49.02 62.1383 52.709 57.3286 54.5788C57.5387 56.0452 58.4723 57.3411 59.8669 58.1101Z" fill="white"/>
</svg>
