<svg width="210" height="210" viewBox="0 0 210 210" fill="none" xmlns="http://www.w3.org/2000/svg">
<path d="M43.8648 143.871C45.36 147.937 49.14 151.108 53.34 152.183C59.64 153.808 65.94 150.083 72.24 148.373C83.4288 145.337 95.2266 148.705 106.403 151.78C117.579 154.854 129.7 157.609 140.528 153.46C149.822 149.906 156.639 141.737 161.351 132.976C170.297 116.323 172.939 97.0578 174.25 78.1998C174.833 69.7998 175.157 61.1268 172.498 53.1216C169.84 45.1164 163.607 37.8 155.329 36.1914C147.382 34.6416 139.343 38.5308 132.922 43.4616C126.5 48.3924 120.931 54.495 113.921 58.5438C103.706 64.4238 91.2408 65.4234 79.5858 63.6048C72.3702 62.4792 60.3372 48.7998 48.0858 53.8566C35.0532 59.22 29.3748 104.706 43.8648 143.871Z" fill="#3273DB"/>
<path opacity="0.9" d="M43.8648 143.871C45.36 147.937 49.14 151.108 53.34 152.183C59.64 153.808 65.94 150.083 72.24 148.373C83.4288 145.337 95.2266 148.705 106.403 151.78C117.579 154.854 129.7 157.609 140.528 153.46C149.822 149.906 156.639 141.737 161.351 132.976C170.297 116.323 172.939 97.0578 174.25 78.1998C174.833 69.7998 175.157 61.1268 172.498 53.1216C169.84 45.1164 163.607 37.8 155.329 36.1914C147.382 34.6416 139.343 38.5308 132.922 43.4616C126.5 48.3924 120.931 54.495 113.921 58.5438C103.706 64.4238 91.2408 65.4234 79.5858 63.6048C72.3702 62.4792 60.3372 48.7998 48.0858 53.8566C35.0532 59.22 29.3748 104.706 43.8648 143.871Z" fill="white"/>
<path d="M105 176.984C149.975 176.984 186.434 174.855 186.434 172.229C186.434 169.604 149.975 167.475 105 167.475C60.0254 167.475 23.5662 169.604 23.5662 172.229C23.5662 174.855 60.0254 176.984 105 176.984Z" fill="#F5F5F5"/>
<path d="M164.266 140.981C160.066 144.22 158.852 151.313 158.638 156.311C158.638 156.769 157.912 156.769 157.928 156.311C158.151 151.019 159.356 143.875 163.909 140.351C164.27 140.07 164.627 140.687 164.266 140.965V140.981Z" fill="#263238"/>
<path d="M154.514 137.34C155.585 137.218 156.488 138.314 156.954 139.117C159.369 143.296 158.437 149.617 157.979 154.09C157.933 154.539 157.219 154.543 157.265 154.09C157.71 149.726 158.525 144.039 156.551 139.889C156.211 139.18 155.488 137.941 154.514 138.054C154.06 138.104 154.064 137.395 154.514 137.34Z" fill="#263238"/>
<path d="M151.91 143.094C156.404 141.985 156.95 151.952 157.097 154.102C157.126 154.56 156.416 154.556 156.387 154.102C156.206 151.192 156.064 147.025 153.959 144.694C153.539 144.224 152.796 143.606 152.099 143.783C151.654 143.892 151.465 143.203 151.91 143.094Z" fill="#263238"/>
<path d="M165.232 147.932C161.515 145.177 160.306 152.41 160.1 154.497C160.054 154.946 159.344 154.951 159.39 154.497C159.621 152.132 159.982 147.844 162.712 146.853C163.194 146.696 163.707 146.656 164.207 146.737C164.708 146.818 165.182 147.018 165.589 147.319C165.955 147.588 165.589 148.205 165.232 147.932Z" fill="#263238"/>
<path d="M150.448 149.239C150.729 148.942 151.076 148.714 151.46 148.574C151.844 148.434 152.255 148.386 152.662 148.432C154.93 148.81 155.555 152.212 155.9 154.006C155.988 154.455 155.303 154.644 155.215 154.195C154.917 152.666 153.489 147.172 150.952 149.738C150.884 149.794 150.797 149.822 150.71 149.818C150.622 149.813 150.539 149.777 150.476 149.715C150.414 149.653 150.376 149.57 150.371 149.482C150.366 149.394 150.393 149.307 150.448 149.239Z" fill="#263238"/>
<path d="M163.834 172.544H153.086C152.119 171.728 151.342 170.711 150.809 169.563C150.275 168.416 149.999 167.165 149.999 165.9C149.999 162.851 151.712 153.72 151.712 153.72H165.207C165.207 153.72 166.921 162.863 166.921 165.9C166.92 167.165 166.644 168.416 166.111 169.563C165.578 170.711 164.8 171.728 163.834 172.544Z" fill="#263238"/>
<path d="M165.547 151.439C162.305 151.439 159.13 150.125 158.462 148.499C157.794 146.874 159.873 145.559 163.115 145.559C164.16 145.562 165.199 145.695 166.211 145.954C167.109 145.68 168.044 145.547 168.983 145.559C172.225 145.559 175.396 146.874 176.068 148.499C176.74 150.125 174.657 151.439 171.415 151.439H165.547Z" fill="#3273DB"/>
<path opacity="0.1" d="M165.547 151.439C162.305 151.439 159.13 150.125 158.462 148.499C157.794 146.874 159.873 145.559 163.115 145.559C164.16 145.562 165.199 145.695 166.211 145.954C167.109 145.68 168.044 145.547 168.983 145.559C172.225 145.559 175.396 146.874 176.068 148.499C176.74 150.125 174.657 151.439 171.415 151.439H165.547Z" fill="black"/>
<path d="M144.392 145.156C141.742 145.156 140.666 144.081 141.994 142.754C143.321 141.427 146.542 140.356 149.197 140.356C149.902 140.332 150.606 140.442 151.271 140.679C152.165 140.472 153.08 140.364 153.997 140.356C156.647 140.356 157.723 141.431 156.395 142.754C155.068 144.077 151.847 145.156 149.197 145.156H144.392Z" fill="#3273DB"/>
<path d="M168.781 142.754C165.442 142.754 161.389 141.401 159.718 139.734C158.046 138.067 159.403 136.714 162.742 136.714C163.896 136.73 165.045 136.871 166.169 137.134C167.006 136.832 167.892 136.689 168.781 136.714C172.116 136.714 176.173 138.067 177.841 139.734C179.508 141.401 178.156 142.754 174.821 142.754H168.781Z" fill="#3273DB"/>
<path opacity="0.2" d="M168.781 142.754C165.442 142.754 161.389 141.401 159.718 139.734C158.046 138.067 159.403 136.714 162.742 136.714C163.896 136.73 165.045 136.871 166.169 137.134C167.006 136.832 167.892 136.689 168.781 136.714C172.116 136.714 176.173 138.067 177.841 139.734C179.508 141.401 178.156 142.754 174.821 142.754H168.781Z" fill="white"/>
<path d="M150.234 138.856C148.554 138.856 147.491 138.18 147.84 137.344C148.189 136.508 149.818 135.836 151.486 135.836C151.968 135.828 152.448 135.896 152.909 136.038C153.431 135.904 153.967 135.836 154.505 135.836C156.185 135.836 157.244 136.513 156.899 137.344C156.555 138.176 154.921 138.856 153.254 138.856H150.234Z" fill="#3273DB"/>
<path opacity="0.3" d="M150.234 138.856C148.554 138.856 147.491 138.18 147.84 137.344C148.189 136.508 149.818 135.836 151.486 135.836C151.968 135.828 152.448 135.896 152.909 136.038C153.431 135.904 153.967 135.836 154.505 135.836C156.185 135.836 157.244 136.513 156.899 137.344C156.555 138.176 154.921 138.856 153.254 138.856H150.234Z" fill="white"/>
<path d="M148.31 150.935C146.63 150.935 145.009 150.259 144.665 149.428C144.32 148.596 145.391 147.916 147.059 147.916C147.597 147.917 148.134 147.986 148.655 148.121C149.115 147.978 149.596 147.908 150.079 147.916C151.759 147.916 153.38 148.592 153.724 149.428C154.069 150.263 152.998 150.935 151.33 150.935H148.31Z" fill="#3273DB"/>
<path opacity="0.2" d="M148.31 150.935C146.63 150.935 145.009 150.259 144.665 149.428C144.32 148.596 145.391 147.916 147.059 147.916C147.597 147.917 148.134 147.986 148.655 148.121C149.115 147.978 149.596 147.908 150.079 147.916C151.759 147.916 153.38 148.592 153.724 149.428C154.069 150.263 152.998 150.935 151.33 150.935H148.31Z" fill="black"/>
<path d="M151.406 155.4C151.586 154.375 151.712 153.72 151.712 153.72H165.207C165.207 153.72 165.333 154.388 165.514 155.4H151.406Z" fill="#3273DB"/>
<path d="M150.818 141.263C150.818 141.263 147.118 142.498 145.946 144.53C145.946 144.53 146.131 141.569 150.818 141.263Z" fill="#FAFAFA"/>
<path d="M152.561 136.42C151.965 136.764 151.439 137.217 151.011 137.756C151.114 137.408 151.315 137.097 151.59 136.86C151.864 136.623 152.202 136.471 152.561 136.42Z" fill="#FAFAFA"/>
<path d="M166.921 137.76C166.921 137.76 170.932 139.23 173.401 142.006C172.746 140.827 171.813 139.824 170.684 139.084C169.556 138.344 168.264 137.89 166.921 137.76Z" fill="#FAFAFA"/>
<path d="M166.921 146.689C168.589 147.384 170.039 148.514 171.121 149.961C171.121 149.961 170.377 147.181 166.921 146.689Z" fill="#E6E6E6"/>
<path d="M148.718 148.726C149.015 148.882 149.267 149.112 149.451 149.392C149.634 149.673 149.744 149.996 149.768 150.331C149.277 149.903 148.914 149.347 148.718 148.726Z" fill="#FAFAFA"/>
<path d="M45.171 92.82C45.3083 92.5516 45.5279 92.3342 45.7977 92.1996C46.0676 92.0651 46.3734 92.0205 46.6704 92.0724C46.968 92.1466 47.2352 92.3113 47.4353 92.5437C47.6354 92.7761 47.7585 93.0649 47.7876 93.3702C47.9938 93.2201 48.2407 93.1361 48.4957 93.1294C48.7507 93.1226 49.0017 93.1934 49.2156 93.3324C49.4292 93.4865 49.5958 93.6969 49.6967 93.9402C49.7975 94.1835 49.8288 94.45 49.7868 94.71C49.9052 94.6239 50.0402 94.5634 50.1832 94.5323C50.3262 94.5012 50.4742 94.5003 50.6176 94.5295C50.761 94.5588 50.8968 94.6175 51.0162 94.7021C51.1357 94.7867 51.2362 94.8952 51.3114 95.0208C51.4496 95.2912 51.4783 95.6045 51.3915 95.8955C51.3046 96.1865 51.109 96.4328 50.8452 96.5832C51.0308 96.607 51.201 96.6988 51.3228 96.8408C51.4446 96.9829 51.5095 97.165 51.5048 97.3521C51.5001 97.5391 51.4262 97.7178 51.2974 97.8535C51.1685 97.9892 50.994 98.0724 50.8074 98.0868C50.9954 98.101 51.1726 98.1799 51.3089 98.3101C51.4453 98.4403 51.5322 98.6137 51.555 98.8008C51.5758 98.9905 51.5314 99.1816 51.4291 99.3427C51.3268 99.5037 51.1727 99.6252 50.9922 99.687C51.0816 99.7381 51.1583 99.8086 51.2166 99.8934C51.2749 99.9782 51.3134 100.075 51.3291 100.177C51.3449 100.278 51.3375 100.382 51.3075 100.481C51.2775 100.579 51.2258 100.67 51.156 100.745C51.077 100.808 50.9839 100.85 50.8848 100.868C50.7857 100.887 50.6837 100.88 50.5876 100.85C50.4915 100.82 50.4043 100.767 50.3335 100.695C50.2627 100.623 50.2106 100.535 50.1816 100.439C50.167 100.467 50.1461 100.491 50.1206 100.509C50.0951 100.527 50.0656 100.539 50.0346 100.544C50.0036 100.549 49.9719 100.547 49.942 100.537C49.9121 100.528 49.8849 100.511 49.8624 100.489C49.8423 100.464 49.8279 100.434 49.8202 100.403C49.8125 100.371 49.8115 100.339 49.8175 100.307C49.8235 100.275 49.8362 100.245 49.8548 100.218C49.8734 100.192 49.8975 100.17 49.9254 100.153C49.8793 100.204 49.8203 100.241 49.7547 100.261C49.689 100.281 49.6193 100.282 49.5528 100.265C49.4864 100.249 49.4258 100.214 49.3775 100.165C49.3292 100.117 49.295 100.056 49.2786 99.9894C49.4046 100.661 48.6024 101.3 48.0186 100.976C48.0488 101.051 48.063 101.131 48.0602 101.211C48.0574 101.291 48.0377 101.37 48.0024 101.442C47.9672 101.514 47.9171 101.578 47.8555 101.63C47.7938 101.681 47.7221 101.719 47.6448 101.741C47.331 101.799 47.0067 101.736 46.7376 101.564C46.4686 101.396 46.1634 101.294 45.8472 101.266C45.5731 101.298 45.3054 101.372 45.0534 101.485C44.6293 101.613 44.1779 101.621 43.7494 101.508C43.3209 101.396 42.932 101.167 42.6258 100.846C42.512 100.979 42.3663 101.08 42.2024 101.141C42.0386 101.201 41.862 101.219 41.6893 101.193C41.5166 101.166 41.3535 101.096 41.2153 100.989C41.0772 100.883 40.9685 100.742 40.8996 100.582C40.871 100.746 40.7903 100.897 40.6692 101.012C40.5482 101.127 40.3933 101.2 40.2276 101.22C40.0593 101.223 39.8949 101.17 39.7597 101.07C39.6245 100.969 39.5262 100.827 39.48 100.666C39.48 100.813 39.48 100.96 39.459 101.111C38.8584 101.254 38.262 100.472 38.5182 99.8802C38.2967 99.8703 38.0857 99.7829 37.9222 99.6332C37.7586 99.4835 37.6529 99.281 37.6236 99.0612C37.6002 98.8391 37.6537 98.6158 37.7753 98.4284C37.8968 98.2411 38.079 98.1012 38.2914 98.0322C37.9274 97.9155 37.6095 97.6871 37.3827 97.3794C37.1559 97.0717 37.0318 96.7004 37.0281 96.3182C37.0244 95.9359 37.1412 95.5623 37.362 95.2502C37.5827 94.9381 37.8962 94.7036 38.2578 94.5798C38.3958 94.5251 38.5455 94.5067 38.6926 94.5266C38.8397 94.5465 38.9793 94.6038 39.0978 94.6932C39.1533 94.7425 39.1978 94.8029 39.2282 94.8706C39.2586 94.9383 39.2744 95.0117 39.2744 95.0859C39.2744 95.1601 39.2586 95.2335 39.2282 95.3012C39.1978 95.3689 39.1533 95.4294 39.0978 95.4786C38.9987 95.1305 39.0147 94.7597 39.1433 94.4215C39.272 94.0832 39.5064 93.7955 39.8118 93.6012C40.1208 93.4355 40.4785 93.3846 40.8215 93.4577C41.1644 93.5307 41.4704 93.7229 41.685 94.0002C41.5833 93.8463 41.5291 93.666 41.5291 93.4815C41.5291 93.2971 41.5833 93.1167 41.685 92.9628C41.7878 92.8181 41.9338 92.7096 42.1021 92.653C42.2704 92.5964 42.4522 92.5946 42.6216 92.6478C42.6628 92.4159 42.7898 92.208 42.9774 92.0656C43.165 91.9231 43.3993 91.8566 43.6338 91.8792C43.8668 91.9304 44.073 92.065 44.2138 92.2575C44.3546 92.4501 44.4201 92.6875 44.3982 92.925C44.4207 92.8384 44.4673 92.76 44.5325 92.6987C44.5977 92.6375 44.6788 92.5959 44.7667 92.5788C44.8545 92.5616 44.9453 92.5697 45.0287 92.602C45.1122 92.6343 45.1848 92.6895 45.2382 92.7612C45.5028 92.6898 45.171 92.82 45.171 92.82Z" fill="#3273DB"/>
<g opacity="0.4">
<path d="M45.003 97.3183C45.094 97.2502 45.1979 97.2014 45.3084 97.1747C45.4188 97.148 45.5335 97.1439 45.6456 97.1628C45.7556 97.1814 45.8581 97.2307 45.9414 97.305C46.0246 97.3793 46.0851 97.4756 46.116 97.5828C46.1387 97.6944 46.119 97.8105 46.0608 97.9083C46.0025 98.0062 45.9099 98.0788 45.801 98.1121C45.5322 98.1793 45.2634 97.9567 44.9904 97.9945C44.8944 98.0162 44.8002 98.0456 44.709 98.0826C44.5066 98.1014 44.3025 98.0757 44.111 98.0076C43.9196 97.9394 43.7452 97.8303 43.6002 97.6878C43.4821 97.6079 43.3784 97.5085 43.2936 97.3939C43.2515 97.333 43.2262 97.2621 43.2203 97.1884C43.2144 97.1146 43.2281 97.0406 43.26 96.9739C43.3244 96.8974 43.4088 96.8404 43.5037 96.8092C43.5987 96.778 43.7005 96.774 43.7976 96.7975C44.1972 96.8453 44.5754 97.0039 44.8896 97.2552C44.8896 97.1922 44.8896 97.1293 44.856 97.0663L45.003 97.3183Z" fill="#FAFAFA"/>
<path d="M39.2952 96.978C39.3987 96.8984 39.5152 96.8373 39.6396 96.7974C39.7134 96.7739 39.7932 96.7783 39.8639 96.8098C39.9346 96.8414 39.9912 96.8979 40.0229 96.9686C40.0546 97.0392 40.0591 97.119 40.0357 97.1928C40.0122 97.2666 39.9624 97.3292 39.8958 97.3686C39.747 97.4684 39.5747 97.5277 39.396 97.5408C39.2154 97.566 38.976 97.5744 38.8962 97.4148C38.8702 97.3535 38.8643 97.2854 38.8794 97.2205C38.8945 97.1556 38.9298 97.0972 38.9802 97.0536C39.0854 96.9702 39.2071 96.9101 39.3372 96.8772L39.2952 96.978Z" fill="#FAFAFA"/>
<path d="M48.3 94.0128C48.4814 94.0904 48.642 94.2095 48.7689 94.3605C48.8958 94.5115 48.9855 94.6902 49.0308 94.8822C49.056 94.9998 49.0308 95.1468 48.951 95.2098C48.8714 95.2414 48.7828 95.2414 48.7032 95.2098L47.6574 94.962C47.8282 95.0147 47.9877 95.0988 48.1278 95.2098C48.1972 95.2668 48.2505 95.3411 48.2822 95.4251C48.3138 95.5091 48.3229 95.6 48.3084 95.6886C48.2741 95.7881 48.2084 95.8737 48.1214 95.9328C48.0343 95.9918 47.9305 96.0211 47.8254 96.0162C47.6147 95.9989 47.4142 95.9184 47.25 95.7852C47.1527 95.7298 47.0692 95.653 47.0059 95.5606C46.9426 95.4682 46.9011 95.3626 46.8846 95.2518C46.8846 95.025 47.166 94.8318 47.3382 94.962C46.9397 94.8535 46.5611 94.682 46.2168 94.4538C46.0866 94.3767 45.9748 94.272 45.8892 94.1472C45.8478 94.086 45.8232 94.0149 45.8181 93.9412C45.8129 93.8674 45.8273 93.7936 45.8598 93.7272C46.2168 93.0762 46.6662 94.0296 46.8846 94.1136C47.3088 94.2732 47.7792 93.7902 48.3 94.0128Z" fill="#FAFAFA"/>
<path d="M49.9338 96.7806C49.9532 96.8435 49.9548 96.9105 49.9385 96.9742C49.9222 97.038 49.8886 97.096 49.8414 97.1418C49.816 97.1624 49.7863 97.1772 49.7546 97.185C49.7228 97.1928 49.6897 97.1936 49.6576 97.1871C49.6255 97.1807 49.5953 97.1673 49.569 97.1479C49.5426 97.1284 49.521 97.1034 49.5054 97.0746C49.7475 97.1224 49.9681 97.246 50.1354 97.4274C50.2782 97.6248 50.2446 97.965 50.0136 98.0406C49.9407 98.0534 49.866 98.0514 49.7938 98.0348C49.7217 98.0182 49.6536 97.9873 49.5936 97.944C49.216 97.738 48.8563 97.5005 48.5184 97.2342C48.6192 97.4736 48.3714 97.7466 48.0984 97.7676C47.8359 97.7614 47.5818 97.6733 47.3718 97.5156C47.0988 97.3476 46.788 97.0956 46.8594 96.7806C46.9094 96.6509 47.008 96.5459 47.1343 96.4878C47.2606 96.4298 47.4046 96.4233 47.5356 96.4698C47.7939 96.5743 48.0189 96.7471 48.1866 96.9696C48.0438 96.7596 48.2496 96.4404 48.5058 96.4068C48.6314 96.4001 48.7567 96.4242 48.8709 96.4768C48.985 96.5295 49.0846 96.6093 49.161 96.7092C48.8712 96.5496 48.804 96.1338 49.1946 96.0834C49.4424 96.054 49.8708 96.5706 49.9338 96.7806Z" fill="#FAFAFA"/>
<path d="M41.9622 95.8482C42.0176 95.826 42.077 95.8159 42.1366 95.8184C42.1961 95.821 42.2545 95.8362 42.3077 95.8631C42.3609 95.89 42.4078 95.9279 42.4453 95.9743C42.4827 96.0207 42.5099 96.0745 42.5249 96.1322C42.5399 96.1899 42.5425 96.2502 42.5324 96.3089C42.5224 96.3677 42.4999 96.4237 42.4665 96.4731C42.4332 96.5225 42.3897 96.5642 42.3389 96.5955C42.2882 96.6268 42.2313 96.647 42.1722 96.6546C42.3449 96.6713 42.5044 96.754 42.6174 96.8856C42.6815 96.9567 42.7147 97.0504 42.7098 97.146C42.6919 97.2155 42.651 97.277 42.5939 97.3204C42.5367 97.3638 42.4666 97.3867 42.3948 97.3854C42.2478 97.3816 42.1038 97.3427 41.9748 97.272C42.1228 97.2688 42.2686 97.3082 42.3948 97.3854C42.4234 97.4054 42.4477 97.431 42.4662 97.4606C42.4847 97.4902 42.497 97.5233 42.5025 97.5577C42.508 97.5922 42.5065 97.6275 42.4981 97.6613C42.4897 97.6952 42.4746 97.7271 42.4536 97.755C42.4054 97.7893 42.3493 97.8108 42.2905 97.8174C42.2317 97.824 42.1722 97.8155 42.1176 97.7928C41.863 97.7207 41.6296 97.5881 41.4372 97.4064C41.368 97.4903 41.2795 97.5562 41.1793 97.5987C41.0792 97.6411 40.9702 97.6587 40.8618 97.65C40.8088 97.642 40.7579 97.6232 40.7124 97.5949C40.6668 97.5666 40.6275 97.5293 40.5968 97.4853C40.5662 97.4412 40.5448 97.3914 40.534 97.3389C40.5233 97.2863 40.5233 97.2321 40.5342 97.1796C40.5639 97.1087 40.6125 97.0473 40.6748 97.0021C40.737 96.957 40.8104 96.9297 40.887 96.9234C41.0415 96.9155 41.196 96.9399 41.3406 96.9948C41.1762 96.8997 41.0489 96.7516 40.9794 96.5748C40.9248 96.3984 41.0424 96.1548 41.2272 96.18C41.412 96.2052 41.538 96.474 41.7018 96.5748C41.8992 96.4068 41.5212 96.012 41.9622 95.8482Z" fill="#FAFAFA"/>
<path d="M45.6834 94.9872C45.793 95.0777 45.8779 95.1945 45.93 95.3268C45.9822 95.459 45.9999 95.6023 45.9816 95.7432C45.9841 95.9002 45.944 96.055 45.8657 96.1911C45.7873 96.3271 45.6735 96.4394 45.5364 96.516C45.4395 96.5469 45.3372 96.5568 45.2362 96.5449C45.1352 96.5331 45.0379 96.4998 44.9509 96.4473C44.8638 96.3948 44.7889 96.3243 44.7313 96.2406C44.6736 96.1568 44.6345 96.0617 44.6166 95.9616C44.5959 95.7562 44.6388 95.5494 44.7394 95.3691C44.8401 95.1888 44.9937 95.0438 45.1794 94.9536C45.26 94.9186 45.3478 94.9033 45.4355 94.9092C45.5232 94.915 45.6082 94.9418 45.6834 94.9872Z" fill="#FAFAFA"/>
<path d="M43.0458 94.6513L42.9492 94.7352C43.0101 94.6592 43.0932 94.6039 43.1868 94.577C43.2805 94.5502 43.3802 94.5531 43.4722 94.5854C43.5642 94.6177 43.6438 94.6777 43.7002 94.7572C43.7565 94.8367 43.7868 94.9318 43.7868 95.0292C43.7868 95.1267 43.7565 95.2218 43.7002 95.3013C43.6438 95.3808 43.5642 95.4408 43.4722 95.4731C43.3802 95.5054 43.2805 95.5083 43.1868 95.4815C43.0932 95.4546 43.0101 95.3993 42.9492 95.3233C42.8115 95.3927 42.6547 95.4152 42.503 95.3871C42.3513 95.359 42.213 95.282 42.1092 95.1678C42.0619 95.1101 42.0271 95.0432 42.007 94.9713C41.987 94.8993 41.9822 94.824 41.9928 94.7502C42.0035 94.6763 42.0295 94.6054 42.069 94.5421C42.1086 94.4788 42.1609 94.4244 42.2226 94.3825C42.2872 94.3451 42.3606 94.3257 42.4352 94.3261C42.5098 94.3265 42.5829 94.3468 42.647 94.3849C42.7112 94.423 42.7641 94.4774 42.8002 94.5427C42.8363 94.608 42.8544 94.6817 42.8526 94.7562L42.966 94.6302L43.0458 94.6513Z" fill="#FAFAFA"/>
<path d="M40.1394 95.1217C40.3402 95.2901 40.4948 95.5069 40.5888 95.7517C40.6293 95.8766 40.6211 96.0123 40.5658 96.1315C40.5105 96.2506 40.4122 96.3445 40.2906 96.3943C40.0386 96.4573 39.7992 96.2473 39.6522 96.0331C39.5788 95.9409 39.5272 95.8334 39.501 95.7185C39.4748 95.6036 39.4748 95.4843 39.501 95.3695C39.5724 95.1469 39.8958 95.0167 40.0554 95.1889L40.1394 95.1217Z" fill="#FAFAFA"/>
<path d="M44.331 93.5928C44.3576 93.5417 44.3945 93.4966 44.4393 93.4604C44.4841 93.4241 44.5359 93.3975 44.5915 93.3822C44.647 93.3668 44.7052 93.363 44.7622 93.3711C44.8193 93.3792 44.8741 93.3989 44.9232 93.429C45.0183 93.4968 45.088 93.5942 45.1215 93.706C45.155 93.8178 45.1502 93.9376 45.108 94.0464C45.0604 94.1525 44.9856 94.2441 44.8912 94.312C44.7968 94.3799 44.6861 94.4215 44.5704 94.4328C44.2848 94.4664 43.9446 94.2354 44.0118 93.954C43.9439 94.0307 43.8583 94.0896 43.7624 94.1255C43.6664 94.1614 43.5632 94.1732 43.4616 94.1598C43.2599 94.1282 43.0668 94.0553 42.8946 93.9456C42.6552 93.807 42.399 93.5928 42.4242 93.3198C42.4394 93.2088 42.4924 93.1064 42.5742 93.0299C42.6561 92.9534 42.7618 92.9075 42.8736 92.8998C42.9844 92.8959 43.0949 92.9138 43.1987 92.9528C43.3025 92.9917 43.3975 93.0508 43.4784 93.1266C43.6011 93.2495 43.73 93.3658 43.8648 93.4752C43.9321 93.5297 44.0129 93.5651 44.0986 93.5777C44.1843 93.5902 44.2719 93.5795 44.352 93.5466L44.331 93.5928Z" fill="#FAFAFA"/>
</g>
<path d="M40.7484 106.567H47.9598L48.6654 99.3006H40.0428L40.7484 106.567Z" fill="#3273DB"/>
<path opacity="0.3" d="M40.7484 106.567H47.9598L48.6654 99.3006H40.0428L40.7484 106.567Z" fill="black"/>
<path d="M39.4842 99.6744H49.2954L49.4718 98.7084H39.3078L39.4842 99.6744Z" fill="#FAFAFA"/>
<path d="M51.7902 111.124H54.9486L55.041 171.629C55.041 171.933 54.9203 172.225 54.7054 172.441C54.4905 172.657 54.1989 172.778 53.8944 172.78C53.5925 172.78 53.3027 172.661 53.0881 172.448C52.8734 172.236 52.7511 171.948 52.7478 171.646L51.7902 111.124Z" fill="#263238"/>
<path opacity="0.2" d="M51.7902 111.124H54.9486L55.041 171.629C55.041 171.933 54.9203 172.225 54.7054 172.441C54.4905 172.657 54.1989 172.778 53.8944 172.78C53.5925 172.78 53.3027 172.661 53.0881 172.448C52.8734 172.236 52.7511 171.948 52.7478 171.646L51.7902 111.124Z" fill="white"/>
<path d="M34.5156 111.124H37.6782L37.7664 171.629C37.767 171.78 37.7377 171.929 37.6803 172.069C37.623 172.208 37.5386 172.335 37.4321 172.442C37.3255 172.549 37.1989 172.634 37.0596 172.692C36.9202 172.75 36.7707 172.78 36.6198 172.78C36.3179 172.78 36.0281 172.661 35.8135 172.448C35.5988 172.236 35.4765 171.948 35.4732 171.646L34.5156 111.124Z" fill="#263238"/>
<path opacity="0.2" d="M34.5156 111.124H37.6782L37.7664 171.629C37.767 171.78 37.7377 171.929 37.6803 172.069C37.623 172.208 37.5386 172.335 37.4321 172.442C37.3255 172.549 37.1989 172.634 37.0596 172.692C36.9202 172.75 36.7707 172.78 36.6198 172.78C36.3179 172.78 36.0281 172.661 35.8135 172.448C35.5988 172.236 35.4765 171.948 35.4732 171.646L34.5156 111.124Z" fill="white"/>
<path d="M126.92 111.124H130.082L130.171 171.629C130.171 171.78 130.142 171.929 130.085 172.069C130.027 172.208 129.943 172.335 129.836 172.442C129.73 172.549 129.603 172.634 129.464 172.692C129.324 172.75 129.175 172.78 129.024 172.78C128.722 172.78 128.432 172.661 128.218 172.448C128.003 172.236 127.881 171.948 127.877 171.646L126.92 111.124Z" fill="#263238"/>
<path opacity="0.2" d="M126.92 111.124H130.082L130.171 171.629C130.171 171.78 130.142 171.929 130.085 172.069C130.027 172.208 129.943 172.335 129.836 172.442C129.73 172.549 129.603 172.634 129.464 172.692C129.324 172.75 129.175 172.78 129.024 172.78C128.722 172.78 128.432 172.661 128.218 172.448C128.003 172.236 127.881 171.948 127.877 171.646L126.92 111.124Z" fill="white"/>
<path d="M109.649 111.124H112.808L112.9 171.629C112.9 171.933 112.78 172.225 112.565 172.441C112.35 172.657 112.058 172.778 111.754 172.78C111.451 172.78 111.161 172.661 110.946 172.449C110.73 172.236 110.607 171.948 110.603 171.646L109.649 111.124Z" fill="#263238"/>
<path opacity="0.2" d="M109.649 111.124H112.808L112.9 171.629C112.9 171.933 112.78 172.225 112.565 172.441C112.35 172.657 112.058 172.778 111.754 172.78C111.451 172.78 111.161 172.661 110.946 172.449C110.73 172.236 110.607 171.948 110.603 171.646L109.649 111.124Z" fill="white"/>
<path d="M34.6416 122.464L129.784 121.75V111.124H34.6206L34.6416 122.464Z" fill="#3273DB"/>
<path opacity="0.3" d="M51.7902 111.203L51.9666 122.329L34.6416 122.464L34.6206 111.124L51.7902 111.203Z" fill="black"/>
<path d="M133.489 108.574C133.489 107.142 132.955 105.983 132.3 105.979H33.18C32.5248 105.979 31.9914 107.142 31.9914 108.574C31.9914 110.002 32.5248 111.161 33.18 111.17H132.3C132.955 111.161 133.489 110.002 133.489 108.574Z" fill="#263238"/>
<path opacity="0.1" d="M133.489 108.574C133.489 107.142 132.955 105.983 132.3 105.979H33.18C32.5248 105.979 31.9914 107.142 31.9914 108.574C31.9914 110.002 32.5248 111.161 33.18 111.17H132.3C132.955 111.161 133.489 110.002 133.489 108.574Z" fill="white"/>
<path opacity="0.3" d="M57.5778 108.574C57.5778 107.142 57.0444 105.983 56.385 105.979H33.18C32.5248 105.979 31.9914 107.142 31.9914 108.574C31.9914 110.002 32.5248 111.161 33.18 111.17H56.3808C57.0444 111.161 57.5736 110.002 57.5778 108.574Z" fill="black"/>
<path d="M97.0536 56.9394C96.7495 56.9394 96.4579 56.8186 96.2428 56.6036C96.0278 56.3885 95.907 56.0969 95.907 55.7928V52.9662H95.34C94.949 52.9662 94.574 52.8109 94.2976 52.5344C94.0211 52.258 93.8658 51.883 93.8658 51.492V38.1066C93.868 37.7178 94.0237 37.3456 94.299 37.0711C94.5744 36.7966 94.947 36.6419 95.3358 36.6408H116.227C116.616 36.6408 116.99 36.7957 117.266 37.0714C117.542 37.347 117.697 37.7209 117.697 38.1108V51.492C117.697 51.883 117.541 52.258 117.265 52.5344C116.988 52.8109 116.613 52.9662 116.222 52.9662H102.572L97.7424 56.7C97.5454 56.8535 97.3033 56.9376 97.0536 56.9394ZM95.34 37.0608C95.0626 37.0619 94.7968 37.1723 94.6002 37.3681C94.4037 37.5638 94.2922 37.8292 94.29 38.1066V51.492C94.2911 51.7713 94.4025 52.0388 94.6 52.2362C94.7975 52.4337 95.0649 52.5451 95.3442 52.5462H96.3186V55.7928C96.3186 55.9855 96.3952 56.1703 96.5314 56.3066C96.6677 56.4429 96.8525 56.5194 97.0452 56.5194C97.1965 56.5157 97.343 56.4658 97.4652 56.3766L102.417 52.5462H116.21C116.489 52.5451 116.757 52.4337 116.954 52.2362C117.151 52.0388 117.263 51.7713 117.264 51.492V38.1108C117.264 37.8323 117.153 37.5653 116.956 37.3683C116.76 37.1714 116.492 37.0608 116.214 37.0608H95.34Z" fill="#3273DB"/>
<path d="M104.668 34.9691H102.052V35.2883H104.668V34.9691Z" fill="#3273DB"/>
<path d="M92.4336 38.7408H92.1102V37.1616C92.1113 36.5787 92.3437 36.02 92.7563 35.6081C93.1689 35.1963 93.728 34.965 94.311 34.965H100.145V35.28H94.311C93.8131 35.28 93.3356 35.4778 92.9835 35.8299C92.6314 36.182 92.4336 36.6595 92.4336 37.1574V38.7408Z" fill="#3273DB"/>
<path d="M101.073 45.9522C101.838 45.9522 102.459 45.3317 102.459 44.5662C102.459 43.8008 101.838 43.1802 101.073 43.1802C100.308 43.1802 99.687 43.8008 99.687 44.5662C99.687 45.3317 100.308 45.9522 101.073 45.9522Z" fill="#3273DB"/>
<path d="M107.134 44.5662C107.134 44.8414 107.054 45.1106 106.901 45.3397C106.749 45.5689 106.532 45.7477 106.278 45.8536C106.024 45.9595 105.745 45.9876 105.475 45.9344C105.205 45.8813 104.957 45.7492 104.762 45.5549C104.567 45.3607 104.434 45.113 104.38 44.8432C104.326 44.5734 104.354 44.2937 104.459 44.0394C104.564 43.7851 104.742 43.5678 104.971 43.4148C105.199 43.2619 105.468 43.1802 105.743 43.1802C106.111 43.1802 106.464 43.3261 106.725 43.5859C106.986 43.8457 107.132 44.1983 107.134 44.5662Z" fill="#3273DB"/>
<path d="M110.418 45.9522C111.183 45.9522 111.804 45.3317 111.804 44.5662C111.804 43.8008 111.183 43.1802 110.418 43.1802C109.653 43.1802 109.032 43.8008 109.032 44.5662C109.032 45.3317 109.653 45.9522 110.418 45.9522Z" fill="#3273DB"/>
<path d="M59.64 78.3174L61.32 78.2376L63.6594 104.097H61.8912C61.005 104.013 60.7992 103.022 60.5514 101.157L58.9134 83.097C58.5018 78.8172 59.22 78.3174 59.64 78.3174Z" fill="#3273DB"/>
<path opacity="0.3" d="M59.64 78.3174L61.32 78.2376L63.6594 104.097H61.8912C61.005 104.013 60.7992 103.022 60.5514 101.157L58.9134 83.097C58.5018 78.8172 59.22 78.3174 59.64 78.3174Z" fill="black"/>
<path d="M62.2818 104.097H97.3266C97.4231 104.09 97.5172 104.063 97.6025 104.018C97.6879 103.972 97.7626 103.909 97.8217 103.832C97.8808 103.756 97.9231 103.668 97.9456 103.573C97.9681 103.479 97.9704 103.381 97.9524 103.286L95.76 79.0482C95.7533 78.841 95.6703 78.6436 95.5268 78.494C95.3834 78.3444 95.1897 78.253 94.983 78.2376H59.9382C59.8417 78.2442 59.7476 78.2712 59.6623 78.3168C59.5769 78.3625 59.5022 78.4257 59.4431 78.5023C59.384 78.5788 59.3418 78.6671 59.3192 78.7612C59.2967 78.8553 59.2944 78.9531 59.3124 79.0482L61.5048 103.286C61.5115 103.494 61.5945 103.691 61.738 103.841C61.8814 103.99 62.0751 104.082 62.2818 104.097Z" fill="#3273DB"/>
<path d="M63.6258 101.035H95.4534L93.6894 80.8584H61.8618L63.6258 101.035Z" fill="#3273DB"/>
<path d="M64.0626 102.614H95.4282C95.6347 102.618 95.8395 102.578 96.0291 102.496C96.2187 102.414 96.3887 102.293 96.5278 102.14C96.6669 101.988 96.7719 101.807 96.8358 101.611C96.8996 101.415 96.9209 101.207 96.8982 101.002L95.1426 80.9508C95.0975 80.515 94.8945 80.1108 94.5719 79.8145C94.2492 79.5181 93.8292 79.3501 93.3912 79.3422H62.0256C61.8197 79.3393 61.6156 79.38 61.4266 79.4618C61.2377 79.5435 61.0682 79.6643 60.9293 79.8163C60.7904 79.9683 60.6853 80.148 60.6209 80.3435C60.5565 80.539 60.5342 80.746 60.5556 80.9508L62.3112 101.002C62.3553 101.438 62.5579 101.843 62.8807 102.141C63.2034 102.438 63.6239 102.606 64.0626 102.614Z" fill="#263238"/>
<path d="M63.6258 101.035H95.4534L93.6894 80.8584H61.8618L63.6258 101.035Z" fill="#3273DB"/>
<path opacity="0.4" d="M63.6258 101.035H95.4534L93.6894 80.8584H61.8618L63.6258 101.035Z" fill="white"/>
<path opacity="0.1" d="M72.7818 79.3506L66.5658 102.606H68.6574L74.8062 79.3506H72.7818Z" fill="white"/>
<path opacity="0.1" d="M76.0116 79.3506L69.7956 102.606H73.941L80.0898 79.3506H76.0116Z" fill="white"/>
<path d="M66.4482 86.877C66.4796 87.0792 66.4662 87.2858 66.4091 87.4823C66.3519 87.6788 66.2523 87.8603 66.1174 88.0141C65.9824 88.1679 65.8153 88.2902 65.6279 88.3724C65.4405 88.4546 65.2374 88.4947 65.0328 88.4898C64.5891 88.4783 64.1638 88.31 63.8325 88.0148C63.5011 87.7195 63.285 87.3164 63.2226 86.877C63.1905 86.6745 63.2034 86.4674 63.2602 86.2704C63.3171 86.0734 63.4165 85.8913 63.5516 85.737C63.6866 85.5827 63.854 85.46 64.0417 85.3776C64.2295 85.2952 64.433 85.255 64.638 85.26C65.0823 85.2716 65.5081 85.4405 65.8396 85.7366C66.171 86.0327 66.3867 86.4368 66.4482 86.877Z" fill="#3273DB"/>
<path opacity="0.3" d="M66.4482 86.877C66.4796 87.0792 66.4662 87.2858 66.4091 87.4823C66.3519 87.6788 66.2523 87.8603 66.1174 88.0141C65.9824 88.1679 65.8153 88.2902 65.6279 88.3724C65.4405 88.4546 65.2374 88.4947 65.0328 88.4898C64.5891 88.4783 64.1638 88.31 63.8325 88.0148C63.5011 87.7195 63.285 87.3164 63.2226 86.877C63.1905 86.6745 63.2034 86.4674 63.2602 86.2704C63.3171 86.0734 63.4165 85.8913 63.5516 85.737C63.6866 85.5827 63.854 85.46 64.0417 85.3776C64.2295 85.2952 64.433 85.255 64.638 85.26C65.0823 85.2716 65.5081 85.4405 65.8396 85.7366C66.171 86.0327 66.3867 86.4368 66.4482 86.877Z" fill="black"/>
<path d="M65.0328 88.4898C65.3592 88.4978 65.6787 88.3958 65.94 88.2L65.7888 87.696C65.7619 87.6039 65.707 87.5225 65.6317 87.4631C65.5565 87.4036 65.4646 87.3691 65.3688 87.3642H65.1756L65.1504 87.1542C65.2545 87.0921 65.3372 86.9997 65.3875 86.8894C65.4377 86.7791 65.4532 86.6561 65.4318 86.5368C65.4154 86.3609 65.3372 86.1964 65.2112 86.0726C65.0851 85.9489 64.9192 85.8737 64.743 85.8606C64.6618 85.8643 64.5824 85.8856 64.5103 85.9231C64.4382 85.9606 64.3752 86.0134 64.3256 86.0778C64.276 86.1422 64.2411 86.2166 64.2232 86.2959C64.2054 86.3752 64.205 86.4574 64.2222 86.5368C64.2358 86.6664 64.2813 86.7906 64.3546 86.8983C64.4279 87.006 64.5267 87.0939 64.6422 87.1542L64.6674 87.3642H64.4742C64.3836 87.3619 64.2957 87.3955 64.2296 87.4576C64.1636 87.5197 64.1247 87.6054 64.1214 87.696L64.092 88.2C64.3726 88.3821 64.6984 88.4824 65.0328 88.4898Z" fill="white"/>
<path d="M67.62 86.5704H73.962C74.256 86.5704 74.1972 86.1168 73.9074 86.1168H67.5402C67.2504 86.1168 67.305 86.5704 67.599 86.5704H67.62Z" fill="white"/>
<path d="M67.7292 87.6372H76.0872C76.2804 87.6372 76.2426 87.3348 76.0494 87.3348H67.6914C67.4982 87.3348 67.5318 87.6372 67.7292 87.6372Z" fill="white"/>
<path d="M77.658 87.486C77.6656 87.5305 77.6631 87.576 77.6508 87.6194C77.6384 87.6627 77.6166 87.7028 77.5868 87.7366C77.557 87.7704 77.52 87.7971 77.4786 87.8148C77.4371 87.8325 77.3922 87.8407 77.3472 87.8388C77.2502 87.8352 77.1574 87.7981 77.0846 87.7338C77.0119 87.6694 76.9637 87.5819 76.9482 87.486C76.9408 87.4414 76.9433 87.3957 76.9556 87.3521C76.9679 87.3086 76.9897 87.2683 77.0194 87.2342C77.0491 87.2001 77.086 87.1729 77.1274 87.1548C77.1688 87.1366 77.2138 87.1278 77.259 87.129C77.3567 87.1328 77.4499 87.1705 77.5228 87.2357C77.5956 87.3009 77.6434 87.3894 77.658 87.486Z" fill="#263238"/>
<path opacity="0.5" d="M77.658 87.486C77.6656 87.5305 77.6631 87.576 77.6508 87.6194C77.6384 87.6627 77.6166 87.7028 77.5868 87.7366C77.557 87.7704 77.52 87.7971 77.4786 87.8148C77.4371 87.8325 77.3922 87.8407 77.3472 87.8388C77.2502 87.8352 77.1574 87.7981 77.0846 87.7338C77.0119 87.6694 76.9637 87.5819 76.9482 87.486C76.9408 87.4414 76.9433 87.3957 76.9556 87.3521C76.9679 87.3086 76.9897 87.2683 77.0194 87.2342C77.0491 87.2001 77.086 87.1729 77.1274 87.1548C77.1688 87.1366 77.2138 87.1278 77.259 87.129C77.3567 87.1328 77.4499 87.1705 77.5228 87.2357C77.5956 87.3009 77.6434 87.3894 77.658 87.486Z" fill="white"/>
<path d="M61.8618 80.8584L62.0172 82.6644H93.8448L93.6894 80.8584H61.8618Z" fill="#3273DB"/>
<path d="M63.3234 81.6606C63.3282 81.7073 63.323 81.7544 63.3082 81.799C63.2934 81.8435 63.2693 81.8843 63.2376 81.9189C63.2058 81.9534 63.1671 81.9808 63.124 81.9993C63.0809 82.0177 63.0343 82.0269 62.9874 82.026C62.8892 82.0209 62.796 81.9816 62.7238 81.9148C62.6517 81.8481 62.6053 81.7581 62.5926 81.6606C62.5878 81.6145 62.5929 81.5679 62.6075 81.5239C62.6221 81.4799 62.6459 81.4395 62.6772 81.4054C62.7086 81.3712 62.7468 81.3441 62.7894 81.3259C62.8321 81.3076 62.8781 81.2986 62.9244 81.2994C63.0227 81.3034 63.1165 81.3417 63.1894 81.4077C63.2623 81.4737 63.3097 81.5632 63.3234 81.6606Z" fill="white"/>
<path d="M64.281 81.6606C64.2864 81.7071 64.2818 81.7541 64.2675 81.7986C64.2532 81.8432 64.2296 81.8841 64.1981 81.9187C64.1667 81.9533 64.1282 81.9808 64.0853 81.9993C64.0423 82.0178 63.9959 82.0269 63.9492 82.026C63.851 82.0209 63.7578 81.9816 63.6856 81.9148C63.6135 81.8481 63.5671 81.7581 63.5544 81.6606C63.5496 81.6145 63.5547 81.5679 63.5693 81.5239C63.5839 81.4799 63.6077 81.4395 63.639 81.4054C63.6704 81.3712 63.7086 81.3441 63.7512 81.3259C63.7938 81.3076 63.8399 81.2986 63.8862 81.2994C63.9837 81.3043 64.0765 81.3431 64.1486 81.409C64.2206 81.4749 64.2675 81.5639 64.281 81.6606Z" fill="white"/>
<path d="M65.2428 81.6606C65.2475 81.7069 65.2424 81.7537 65.2279 81.7979C65.2133 81.8422 65.1896 81.8828 65.1583 81.9173C65.1271 81.9517 65.0889 81.9792 65.0462 81.998C65.0036 82.0167 64.9576 82.0263 64.911 82.026C64.8085 82.0269 64.7091 81.9902 64.6318 81.9229C64.5544 81.8556 64.5043 81.7623 64.491 81.6606C64.4862 81.6145 64.4913 81.5679 64.5059 81.5239C64.5205 81.4799 64.5443 81.4395 64.5756 81.4054C64.607 81.3712 64.6452 81.3441 64.6878 81.3259C64.7304 81.3076 64.7765 81.2986 64.8228 81.2994C64.9247 81.2984 65.0235 81.3345 65.1008 81.401C65.1781 81.4674 65.2285 81.5597 65.2428 81.6606Z" fill="white"/>
<path d="M97.6878 104.168H61.9626C61.5428 104.168 61.2024 104.509 61.2024 104.929V105.382C61.2024 105.802 61.5428 106.142 61.9626 106.142H97.6878C98.1077 106.142 98.448 105.802 98.448 105.382V104.929C98.448 104.509 98.1077 104.168 97.6878 104.168Z" fill="#3273DB"/>
<path opacity="0.3" d="M97.6878 104.168H61.9626C61.5428 104.168 61.2024 104.509 61.2024 104.929V105.382C61.2024 105.802 61.5428 106.142 61.9626 106.142H97.6878C98.1077 106.142 98.448 105.802 98.448 105.382V104.929C98.448 104.509 98.1077 104.168 97.6878 104.168Z" fill="black"/>
<path d="M75.3774 104.16H112.316V104.609C112.316 105.013 112.156 105.399 111.871 105.685C111.586 105.97 111.199 106.13 110.796 106.13H76.902C76.4988 106.13 76.112 105.97 75.8269 105.685C75.5418 105.399 75.3816 105.013 75.3816 104.609V104.16H75.3774Z" fill="#3273DB"/>
<path opacity="0.4" d="M75.3774 104.16H112.316V104.609C112.316 105.013 112.156 105.399 111.871 105.685C111.586 105.97 111.199 106.13 110.796 106.13H76.902C76.4988 106.13 76.112 105.97 75.8269 105.685C75.5418 105.399 75.3816 105.013 75.3816 104.609V104.16H75.3774Z" fill="white"/>
<path opacity="0.3" d="M92.022 104.223C92.0231 104.484 92.1275 104.735 92.3123 104.92C92.4972 105.105 92.7476 105.209 93.009 105.21H97.5282C97.79 105.21 98.041 105.106 98.2261 104.921C98.4112 104.736 98.5152 104.485 98.5152 104.223H92.022Z" fill="black"/>
<path d="M95.4534 101.081H63.651L63.4788 99.1158H95.2812L95.4534 101.081Z" fill="#3273DB"/>
<path d="M91.1904 100.225H69.0984L69.0858 100.048H91.1778L91.1904 100.225Z" fill="white"/>
<path d="M91.8162 100.233C91.8162 100.317 91.77 100.384 91.644 100.384C91.5796 100.385 91.5166 100.366 91.4634 100.33L91.497 100.262C91.5365 100.293 91.5855 100.31 91.6356 100.309C91.6986 100.309 91.7322 100.283 91.728 100.237C91.7238 100.191 91.6944 100.166 91.5978 100.166H91.4844V99.9138H91.7574V99.9852H91.56V100.094H91.6062C91.749 100.094 91.8078 100.153 91.8162 100.233Z" fill="white"/>
<path d="M91.8456 100.073C91.845 100.066 91.8459 100.059 91.8482 100.053C91.8504 100.046 91.8541 100.04 91.8588 100.035C91.8635 100.03 91.8693 100.026 91.8757 100.023C91.8821 100.02 91.889 100.019 91.896 100.019C91.9035 100.018 91.9111 100.019 91.9182 100.022C91.9253 100.024 91.9318 100.028 91.9374 100.033C91.9429 100.038 91.9473 100.045 91.9503 100.052C91.9533 100.058 91.9548 100.066 91.9548 100.073C91.956 100.08 91.9558 100.087 91.954 100.094C91.9523 100.1 91.9491 100.106 91.9446 100.112C91.9402 100.117 91.9347 100.121 91.9285 100.124C91.9222 100.127 91.9154 100.128 91.9086 100.128C91.9009 100.129 91.8931 100.128 91.8858 100.125C91.8784 100.123 91.8716 100.119 91.8658 100.114C91.8599 100.109 91.8551 100.103 91.8516 100.096C91.8482 100.089 91.8461 100.081 91.8456 100.073ZM91.8708 100.325C91.8694 100.318 91.8698 100.311 91.8718 100.304C91.8737 100.297 91.8773 100.291 91.8822 100.285C91.8871 100.28 91.8932 100.276 91.9 100.274C91.9068 100.271 91.914 100.27 91.9212 100.271C91.9361 100.271 91.9505 100.276 91.9614 100.287C91.9723 100.297 91.9789 100.311 91.98 100.325C91.9806 100.332 91.9797 100.339 91.9774 100.346C91.9752 100.353 91.9716 100.359 91.9668 100.364C91.9621 100.369 91.9563 100.373 91.9499 100.376C91.9435 100.379 91.9366 100.38 91.9296 100.38C91.9221 100.381 91.9145 100.38 91.9074 100.377C91.9003 100.375 91.8938 100.371 91.8882 100.366C91.8827 100.36 91.8783 100.354 91.8753 100.347C91.8723 100.34 91.8708 100.333 91.8708 100.325Z" fill="white"/>
<path d="M92.0178 100.145C92.0178 99.9936 92.0808 99.9054 92.19 99.9054C92.2992 99.9054 92.3916 99.9936 92.4084 100.145C92.4252 100.296 92.3454 100.384 92.232 100.384C92.1722 100.38 92.1165 100.353 92.0765 100.308C92.0365 100.263 92.0155 100.205 92.0178 100.145ZM92.3202 100.145C92.3202 100.031 92.2614 99.981 92.1984 99.981C92.1354 99.981 92.0934 100.031 92.106 100.145C92.1186 100.258 92.1648 100.309 92.2278 100.309C92.2908 100.309 92.3286 100.258 92.3202 100.145Z" fill="white"/>
<path d="M92.463 100.145C92.463 99.9936 92.526 99.9054 92.6394 99.9054C92.6992 99.9097 92.755 99.9371 92.7949 99.9818C92.8349 100.026 92.8559 100.085 92.8536 100.145C92.8536 100.296 92.7906 100.384 92.6814 100.384C92.5722 100.384 92.4798 100.296 92.463 100.145ZM92.7654 100.145C92.7654 100.031 92.7066 99.981 92.6436 99.981C92.5806 99.981 92.5428 100.031 92.5512 100.145C92.5596 100.258 92.61 100.309 92.673 100.309C92.736 100.309 92.7738 100.258 92.7654 100.145Z" fill="white"/>
<path d="M64.638 100.304V100.376H64.2936V100.321L64.4616 100.145C64.4759 100.133 64.4875 100.118 64.4955 100.102C64.5035 100.085 64.5077 100.067 64.5078 100.048C64.5078 100.006 64.4742 99.981 64.4154 99.981C64.3951 99.9799 64.3748 99.984 64.3565 99.9928C64.3381 100.002 64.3223 100.015 64.3104 100.031L64.2474 99.981C64.2669 99.9554 64.2925 99.9351 64.3218 99.9219C64.3512 99.9087 64.3833 99.903 64.4154 99.9054C64.5162 99.9054 64.5876 99.9558 64.5918 100.04C64.594 100.068 64.5894 100.095 64.5784 100.121C64.5674 100.147 64.5504 100.169 64.5288 100.187L64.4154 100.304H64.638Z" fill="white"/>
<path d="M64.68 100.073C64.6788 100.067 64.679 100.06 64.6808 100.053C64.6825 100.047 64.6857 100.04 64.6902 100.035C64.6946 100.03 64.7001 100.026 64.7063 100.023C64.7126 100.02 64.7194 100.019 64.7262 100.019C64.7339 100.018 64.7417 100.019 64.7491 100.022C64.7564 100.024 64.7632 100.028 64.7691 100.033C64.7749 100.038 64.7797 100.044 64.7832 100.051C64.7866 100.058 64.7887 100.066 64.7892 100.073C64.7898 100.08 64.7889 100.087 64.7866 100.094C64.7844 100.101 64.7808 100.107 64.776 100.112C64.7713 100.117 64.7655 100.121 64.7591 100.124C64.7527 100.127 64.7458 100.128 64.7388 100.128C64.7313 100.129 64.7237 100.128 64.7166 100.125C64.7095 100.123 64.703 100.119 64.6975 100.114C64.6919 100.108 64.6875 100.102 64.6845 100.095C64.6815 100.088 64.68 100.081 64.68 100.073ZM64.701 100.325C64.6997 100.318 64.7 100.311 64.702 100.304C64.704 100.297 64.7075 100.291 64.7124 100.285C64.7173 100.28 64.7234 100.276 64.7302 100.273C64.737 100.271 64.7442 100.27 64.7514 100.271C64.7663 100.271 64.7807 100.276 64.7916 100.287C64.8025 100.297 64.8091 100.311 64.8102 100.325C64.8108 100.332 64.8099 100.339 64.8077 100.346C64.8054 100.353 64.8018 100.359 64.797 100.364C64.7923 100.369 64.7865 100.373 64.7801 100.376C64.7737 100.379 64.7668 100.38 64.7598 100.38C64.7509 100.383 64.7414 100.385 64.7319 100.384C64.7225 100.382 64.7135 100.379 64.7056 100.374C64.6978 100.368 64.6913 100.361 64.6869 100.353C64.6824 100.344 64.6801 100.335 64.68 100.325H64.701Z" fill="white"/>
<path d="M65.184 100.233C65.184 100.317 65.1378 100.384 65.0118 100.384C64.9474 100.385 64.8844 100.366 64.8312 100.33L64.8648 100.262C64.9043 100.293 64.9533 100.31 65.0034 100.309C65.0664 100.309 65.1 100.283 65.0958 100.237C65.0916 100.191 65.0622 100.166 64.9656 100.166H64.8522V99.9138H65.1252V99.9852H64.9236V100.094H64.9698C65.1 100.094 65.1756 100.153 65.184 100.233Z" fill="white"/>
<path d="M65.226 100.145C65.226 99.9936 65.2848 99.9054 65.3982 99.9054C65.458 99.9097 65.5138 99.9371 65.5537 99.9818C65.5937 100.026 65.6147 100.085 65.6124 100.145C65.6124 100.296 65.5494 100.384 65.4402 100.384C65.331 100.384 65.2386 100.296 65.226 100.145ZM65.5242 100.145C65.5242 100.031 65.4654 99.981 65.4024 99.981C65.3394 99.981 65.3016 100.031 65.31 100.145C65.3184 100.258 65.3688 100.309 65.4318 100.309C65.4948 100.309 65.52 100.258 65.52 100.145H65.5242Z" fill="white"/>
<path d="M94.8276 100.838H93.429L93.303 99.435H94.7058L94.8276 100.838ZM93.639 100.603H94.5756L94.5 99.666H93.5634L93.639 100.603Z" fill="white"/>
<path d="M78.687 99.8928H66.0576L66.0996 100.376H78.729L78.687 99.8928Z" fill="#263238"/>
<path d="M79.149 100.12C79.1524 100.177 79.1441 100.234 79.1246 100.288C79.105 100.342 79.0746 100.391 79.0353 100.433C78.9959 100.475 78.9484 100.508 78.8958 100.531C78.8431 100.553 78.7863 100.565 78.729 100.565C78.6083 100.561 78.4929 100.515 78.4041 100.433C78.3153 100.351 78.2591 100.24 78.246 100.12C78.2426 100.062 78.2509 100.005 78.2704 99.9512C78.29 99.8973 78.3204 99.8479 78.3597 99.8062C78.3991 99.7645 78.4466 99.7313 78.4992 99.7086C78.5519 99.686 78.6087 99.6743 78.666 99.6744C78.787 99.6769 78.9029 99.7235 78.9919 99.8055C79.0808 99.8875 79.1367 99.9993 79.149 100.12Z" fill="#263238"/>
<path d="M79.149 100.12C79.1524 100.177 79.1441 100.234 79.1246 100.288C79.105 100.342 79.0746 100.391 79.0353 100.433C78.9959 100.475 78.9484 100.508 78.8958 100.531C78.8431 100.553 78.7863 100.565 78.729 100.565C78.6083 100.561 78.4929 100.515 78.4041 100.433C78.3153 100.351 78.2591 100.24 78.246 100.12C78.2426 100.062 78.2509 100.005 78.2704 99.9512C78.29 99.8973 78.3204 99.8479 78.3597 99.8062C78.3991 99.7645 78.4466 99.7313 78.4992 99.7086C78.5519 99.686 78.6087 99.6743 78.666 99.6744C78.787 99.6769 78.9029 99.7235 78.9919 99.8055C79.0808 99.8875 79.1367 99.9993 79.149 100.12Z" fill="white"/>
<path d="M91.2912 68.817C92.4258 69.015 93.4942 69.489 94.4024 70.1972C95.3107 70.9055 96.0307 71.8262 96.4992 72.8784C98.2212 76.566 99.5946 81.921 100.884 82.4838C102.173 83.0466 107.818 77.49 107.818 77.49C107.818 77.49 106.667 73.815 108.389 73.2396C110.111 72.6642 109.767 70.0938 111.376 70.6356C112.984 71.1774 113.896 73.4706 113.786 74.7348C113.677 75.999 110.687 78.8676 110.687 78.8676C110.687 78.8676 105.29 88.4688 99.7668 87.591C94.2438 86.7132 91.2786 73.8402 91.2786 73.8402C91.2786 73.8402 89.7414 68.6196 91.2912 68.817Z" fill="#EEC8C0"/>
<path opacity="0.1" d="M92.82 78.5694C94.0296 81.8286 95.025 84.1848 97.3224 86.2764C94.836 82.2822 95.1048 75.1296 95.1048 75.1296L92.82 78.5694Z" fill="black"/>
<path d="M72.4122 69.9552C74.3818 69.3907 76.3795 68.9295 78.3972 68.5734L78.4644 68.628L78.5694 68.7288L79.4556 69.4092L81.8664 70.8582L83.8446 71.169L85.7598 70.7028L86.9862 68.9976L87.213 68.0148V67.9854C89.3633 68.0726 91.4803 68.5464 93.4626 69.384C93.8113 69.546 94.1095 69.7995 94.3254 70.1175C94.5414 70.4355 94.667 70.8062 94.689 71.19C94.8477 73.4574 95.1282 75.7147 95.529 77.952C96.327 82.6644 93.8826 93.2106 92.9334 97.0116C92.8295 97.4279 92.6031 97.8034 92.2833 98.0894C91.9635 98.3755 91.5652 98.559 91.14 98.616C85.7285 99.3569 80.2436 99.3922 74.823 98.721C74.3114 98.6543 73.841 98.4051 73.4984 98.0193C73.1558 97.6335 72.964 97.137 72.9582 96.621C72.891 90.5856 71.4168 77.1036 70.8582 72.261C70.8023 71.7549 70.9278 71.2454 71.2124 70.8232C71.497 70.4009 71.9221 70.0934 72.4122 69.9552Z" fill="#3273DB"/>
<path d="M72.4122 69.9552C74.3818 69.3907 76.3795 68.9295 78.3972 68.5734L78.4644 68.628L78.5694 68.7288L79.4556 69.4092L81.8664 70.8582L83.8446 71.169L85.7598 70.7028L86.9862 68.9976L87.213 68.0148V67.9854C89.3633 68.0726 91.4803 68.5464 93.4626 69.384C93.8113 69.546 94.1095 69.7995 94.3254 70.1175C94.5414 70.4355 94.667 70.8062 94.689 71.19C94.8477 73.4574 95.1282 75.7147 95.529 77.952C96.327 82.6644 93.8826 93.2106 92.9334 97.0116C92.8295 97.4279 92.6031 97.8034 92.2833 98.0894C91.9635 98.3755 91.5652 98.559 91.14 98.616C85.7285 99.3569 80.2436 99.3922 74.823 98.721C74.3114 98.6543 73.841 98.4051 73.4984 98.0193C73.1558 97.6335 72.964 97.137 72.9582 96.621C72.891 90.5856 71.4168 77.1036 70.8582 72.261C70.8023 71.7549 70.9278 71.2454 71.2124 70.8232C71.497 70.4009 71.9221 70.0934 72.4122 69.9552Z" fill="#263238"/>
<path d="M78.5736 52.92C77.7882 55.2048 76.4736 57.6912 77.0448 60.039C77.616 62.3868 80.1486 64.5666 82.4418 65.3268C85.1004 66.213 88.1958 67.1706 90.1656 65.1714C91.14 64.1844 90.5856 62.1936 89.6784 61.1394C89.217 60.6194 88.6085 60.2518 87.9334 60.0852C87.2584 59.9187 86.5487 59.9612 85.8984 60.207C86.0558 59.0052 85.9788 57.7843 85.6716 56.6118C85.3841 55.0756 84.499 53.7162 83.2104 52.8318C81.9 51.9918 79.0818 51.4542 78.5736 52.92Z" fill="#263238"/>
<path d="M79.4136 68.4012C80.9718 66.7632 80.346 59.4132 80.346 59.4132L84.9072 62.5086C84.9072 62.5086 85.176 67.0572 86.2638 67.935C86.52 68.1408 86.898 67.9644 87.2004 67.9854L86.9232 69.1446L86.0832 70.581L84.9156 71.421H83.1894L81.6312 70.98L79.863 69.72L78.4182 68.5566C78.7542 68.5104 79.1868 68.6364 79.4136 68.4012Z" fill="#EEC8C0"/>
<path opacity="0.1" d="M85.3062 65.5536C82.3074 65.2134 80.9298 63.6552 80.304 62.4246L80.4342 61.1982L84.9912 64.2936L85.3062 65.5536Z" fill="black"/>
<path d="M78.561 56.4774C79.5228 60.2574 79.8504 61.8828 82.1562 63.4788C85.6296 65.8854 90.069 63.8694 90.258 59.8794C90.426 56.28 88.8216 50.673 84.798 49.8876C83.9087 49.7044 82.9873 49.7515 82.1213 50.0246C81.2554 50.2977 80.4736 50.7877 79.8504 51.448C79.2271 52.1083 78.783 52.917 78.5603 53.7973C78.3375 54.6775 78.3436 55.6001 78.5778 56.4774H78.561Z" fill="#EEC8C0"/>
<path d="M84.84 56.322C84.903 56.6328 85.113 56.8554 85.3146 56.8176C85.5162 56.7798 85.638 56.4942 85.5834 56.1834C85.5288 55.8726 85.3062 55.65 85.1046 55.6836C84.903 55.7172 84.8148 56.0238 84.84 56.322Z" fill="#263238"/>
<path d="M88.3806 55.6584C88.4394 55.9776 88.6536 56.1918 88.8552 56.1582C89.0568 56.1246 89.1786 55.8306 89.1198 55.5198C89.061 55.209 88.8468 54.9864 88.6452 55.0284C88.4436 55.0704 88.3218 55.3476 88.3806 55.6584Z" fill="#263238"/>
<path d="M88.557 55.062L89.2626 54.705C89.2626 54.705 88.9938 55.3644 88.557 55.062Z" fill="#263238"/>
<path d="M87.3978 56.4312C87.8141 57.0892 88.317 57.6882 88.893 58.212C88.7543 58.355 88.5866 58.4664 88.4011 58.5389C88.2156 58.6113 88.0166 58.6431 87.8178 58.632L87.3978 56.4312Z" fill="#ED893E"/>
<path d="M83.307 55.881C83.3464 55.8805 83.3846 55.867 83.4157 55.8428C83.4468 55.8185 83.4691 55.7847 83.4792 55.7466C83.6003 55.4684 83.7778 55.2184 84.0004 55.0124C84.2231 54.8063 84.4861 54.6487 84.7728 54.5496C84.8201 54.5333 84.859 54.499 84.881 54.4542C84.9031 54.4093 84.9064 54.3575 84.8904 54.3102C84.8833 54.2871 84.8716 54.2657 84.856 54.2472C84.8404 54.2287 84.8213 54.2135 84.7998 54.2025C84.7782 54.1916 84.7547 54.185 84.7306 54.1833C84.7065 54.1816 84.6823 54.1848 84.6594 54.1926C84.3139 54.3094 83.998 54.4999 83.7333 54.7508C83.4686 55.0017 83.2616 55.3071 83.1264 55.6458C83.1134 55.6926 83.1193 55.7426 83.1429 55.785C83.1665 55.8275 83.2058 55.8589 83.2524 55.8726C83.2698 55.8791 83.2884 55.882 83.307 55.881Z" fill="#263238"/>
<path d="M89.1282 53.8356C89.1617 53.8334 89.1941 53.8231 89.2226 53.8055C89.2511 53.788 89.275 53.7637 89.292 53.7348C89.3146 53.6912 89.3194 53.6405 89.3053 53.5935C89.2911 53.5465 89.2593 53.5068 89.2164 53.4828C88.9578 53.3295 88.6653 53.2424 88.3649 53.2292C88.0645 53.216 87.7655 53.2771 87.4944 53.4072C87.4528 53.428 87.421 53.4643 87.4061 53.5084C87.3912 53.5524 87.3942 53.6006 87.4146 53.6424C87.4252 53.6643 87.4402 53.6838 87.4587 53.6996C87.4771 53.7155 87.4987 53.7273 87.522 53.7344C87.5452 53.7415 87.5697 53.7437 87.5939 53.7409C87.6181 53.7381 87.6414 53.7303 87.6624 53.718C87.877 53.625 88.1104 53.5837 88.3439 53.5976C88.5774 53.6114 88.8043 53.68 89.0064 53.7978C89.0429 53.821 89.085 53.834 89.1282 53.8356Z" fill="#263238"/>
<path d="M85.0332 55.7508L85.743 55.3938C85.743 55.3938 85.47 56.028 85.0332 55.7508Z" fill="#263238"/>
<path d="M90.6192 49.0476C91.1105 49.3945 91.4878 49.8794 91.7031 50.441C91.9185 51.0025 91.9622 51.6154 91.8288 52.2018C91.686 52.7226 91.3794 53.214 91.3542 53.7558C91.339 54.0465 91.4374 54.3317 91.6286 54.5512C91.8199 54.7707 92.089 54.9071 92.379 54.9318C91.5203 55.079 90.6417 55.0662 89.7876 54.894C88.9476 54.6714 88.1622 54.054 88.1328 53.2728C88.1505 52.9913 88.1827 52.711 88.2294 52.4328C88.2478 52.287 88.2277 52.1388 88.1709 52.0032C88.1142 51.8676 88.0228 51.7493 87.906 51.66C87.4398 51.3534 86.8224 51.6852 86.2596 51.7566C85.2306 51.8952 84.2142 50.9418 84.3402 50.0388C84.4662 49.1358 86.94 46.2924 90.6192 49.0476Z" fill="#263238"/>
<path d="M86.8056 47.7456C88.1832 48.5058 91.875 52.3152 81.9126 51.6894C81.9126 51.6894 81.9336 57.918 78.8046 58.7622L70.6062 57.4098C70.6062 57.4098 73.8654 40.5972 86.8056 47.7456Z" fill="#263238"/>
<path d="M71.6898 53.6298C70.9044 55.9104 69.5898 58.401 70.161 60.7488C70.7322 63.0966 73.2648 65.2722 75.558 66.0366C78.2166 66.9228 81.312 67.8804 83.2818 65.8812C84.252 64.89 83.7018 62.9034 82.7946 61.845C82.3327 61.3257 81.7239 60.9588 81.0489 60.7931C80.374 60.6274 79.6645 60.6705 79.0146 60.9168C79.1721 59.715 79.0951 58.4941 78.7878 57.3216C78.6479 56.5567 78.3585 55.8268 77.9362 55.1739C77.5138 54.5209 76.9669 53.9577 76.3266 53.5164C75.0036 52.6974 72.198 52.164 71.6898 53.6298Z" fill="#263238"/>
<path d="M78.078 59.64C78.4476 60.2757 79.0501 60.7427 79.758 60.942C80.7114 61.1856 81.1734 60.3288 80.892 59.4342C80.6316 58.632 79.8294 57.5358 78.8802 57.6702C78.7168 57.6986 78.5606 57.759 78.4206 57.8479C78.2806 57.9368 78.1595 58.0524 78.0643 58.1882C77.9691 58.324 77.9017 58.4773 77.8658 58.6392C77.83 58.8011 77.8264 58.9685 77.8554 59.1318C77.8927 59.3151 77.9686 59.4883 78.078 59.64Z" fill="#EEC8C0"/>
<path d="M88.1454 59.7156C87.6566 59.9319 87.128 60.0436 86.5935 60.0436C86.059 60.0436 85.5304 59.9319 85.0416 59.7156C85.0416 59.7156 84.9156 61.6266 87.1836 61.4712C87.423 61.4712 88.1454 61.3452 88.1454 61.3452C88.0339 60.8077 88.0339 60.2531 88.1454 59.7156Z" fill="#263238"/>
<path d="M85.1424 60.375C85.0718 60.1625 85.0377 59.9395 85.0416 59.7156C85.857 60.0601 86.7628 60.128 87.6204 59.9088V60.5346C87.6204 60.5346 86.121 60.7992 85.1424 60.375Z" fill="white"/>
<path d="M85.3566 60.795C85.5226 60.7765 85.6894 60.7667 85.8564 60.7656C86.579 60.7461 87.2883 60.9629 87.8766 61.383C87.6456 61.4166 87.3264 61.4586 87.1836 61.4712C86.1714 61.5384 85.638 61.1982 85.3566 60.795Z" fill="#C13B37"/>
<path d="M88.074 67.9854C88.074 67.9854 87.0072 67.6242 86.5788 67.9854C86.5788 67.9854 86.6586 70.7532 84.4242 71.1018C82.1898 71.4504 78.7584 68.4222 78.7584 68.4222C78.2482 68.3083 77.7138 68.3923 77.2632 68.6574L86.0454 78.2292C89.5692 74.5248 88.074 67.9854 88.074 67.9854Z" fill="#3273DB"/>
<path d="M71.9922 79.1028C71.1522 77.9562 69.4176 73.1892 71.3076 70.602C73.1976 68.0148 84.5922 83.58 84.5922 83.58C86.5158 82.6266 95.4492 79.632 95.4492 79.632C95.4492 79.632 95.7474 76.5114 97.062 75.7512C98.3766 74.991 98.9814 72.9918 100.099 74.1762C101.216 75.3606 102.526 78.645 100.804 79.8882C99.6952 80.6807 98.5441 81.4126 97.356 82.0806C97.356 82.0806 90.4806 86.94 85.4868 88.62C80.493 90.3 75.5202 83.8656 71.9922 79.1028Z" fill="#EEC8C0"/>
<path opacity="0.1" d="M71.9922 79.1028C71.1522 77.9562 69.4176 73.1892 71.3076 70.602C73.1976 68.0148 84.5922 83.58 84.5922 83.58C86.5158 82.6266 95.4492 79.632 95.4492 79.632C95.4492 79.632 95.7474 76.5114 97.062 75.7512C98.3766 74.991 98.9814 72.9918 100.099 74.1762C101.216 75.3606 102.526 78.645 100.804 79.8882C99.6952 80.6807 98.5441 81.4126 97.356 82.0806C97.356 82.0806 90.4806 86.94 85.4868 88.62C80.493 90.3 75.5202 83.8656 71.9922 79.1028Z" fill="white"/>
<path opacity="0.1" d="M71.9922 79.1028C71.1522 77.9562 69.4176 73.1892 71.3076 70.602C73.1976 68.0148 84.5922 83.58 84.5922 83.58C86.5158 82.6266 95.4492 79.632 95.4492 79.632C95.4492 79.632 95.7474 76.5114 97.062 75.7512C98.3766 74.991 98.9814 72.9918 100.099 74.1762C101.216 75.3606 102.526 78.645 100.804 79.8882C99.6952 80.6807 98.5441 81.4126 97.356 82.0806C97.356 82.0806 90.4806 86.94 85.4868 88.62C80.493 90.3 75.5202 83.8656 71.9922 79.1028Z" fill="white"/>
<path d="M93.4878 99.5694L92.9502 97.02C92.9502 97.02 78.9852 98.469 73.0254 97.1418L72.2484 99.5778L93.4878 99.5694Z" fill="#263238"/>
<path d="M79.7286 61.635C79.7336 61.786 79.6935 61.935 79.6134 62.0631C79.5334 62.1912 79.417 62.2925 79.2791 62.3542C79.1412 62.4158 78.9881 62.435 78.8392 62.4092C78.6904 62.3835 78.5526 62.314 78.4434 62.2096C78.3343 62.1052 78.2587 61.9706 78.2263 61.8231C78.1939 61.6756 78.2062 61.5217 78.2616 61.3812C78.3171 61.2407 78.4131 61.1199 78.5375 61.0342C78.6619 60.9485 78.809 60.9018 78.96 60.9C79.1591 60.8966 79.3515 60.9719 79.4954 61.1095C79.6393 61.2471 79.7231 61.436 79.7286 61.635Z" fill="white"/>
<path d="M126.932 68.1576C126.503 69.0661 125.955 69.9135 125.303 70.6776C125.803 71.1942 126.731 71.001 126.731 71.001L126.932 68.1576Z" fill="#A02724"/>
<path d="M137.483 72.912L134.69 75.012L130.876 77.847C131.077 78.2834 131.196 78.7534 131.225 79.233C131.347 80.2914 131.468 81.0768 129.104 81.6942C128.853 81.7495 128.624 81.8761 128.444 82.0586C128.263 82.2412 128.14 82.472 128.087 82.7232C127.987 83.349 128.356 84.1092 130.523 84.5124C132.624 84.8581 134.779 84.524 136.676 83.559C137.605 83.1096 137.613 82.5552 137.239 81.6186C136.118 78.9222 136.727 75.5412 137.483 72.912Z" fill="#FF8B7B"/>
<path d="M126.193 67.8636C126.109 68.1912 126.193 68.4936 126.353 68.5356C126.512 68.5776 126.727 68.3466 126.811 68.019C126.895 67.6914 126.811 67.389 126.651 67.3428C126.491 67.2966 126.273 67.5318 126.193 67.8636Z" fill="#263238"/>
<path d="M128.671 67.368C128.635 67.3678 128.599 67.358 128.567 67.3396C128.535 67.3212 128.509 67.2948 128.491 67.263C128.318 66.9676 128.073 66.7204 127.779 66.5443C127.486 66.3681 127.153 66.2687 126.811 66.255C126.755 66.255 126.701 66.2329 126.662 66.1935C126.623 66.1541 126.601 66.1007 126.601 66.045C126.601 65.9893 126.623 65.9359 126.662 65.8965C126.701 65.8571 126.755 65.835 126.811 65.835C127.227 65.8501 127.633 65.9695 127.991 66.1823C128.349 66.3952 128.648 66.6945 128.86 67.053C128.887 67.1024 128.893 67.1599 128.878 67.2138C128.863 67.2677 128.828 67.3139 128.78 67.3428C128.747 67.3602 128.709 67.3689 128.671 67.368Z" fill="#263238"/>
<path d="M126.172 72.5088C126.263 73.4475 126.57 74.3525 127.067 75.1537C127.565 75.9549 128.24 76.6308 129.041 77.1288C129.582 77.4688 130.177 77.7145 130.801 77.8554C131.559 78.0257 132.346 78.0248 133.103 77.8526C133.861 77.6804 134.571 77.3413 135.181 76.86C137.613 75.0204 137.894 72.5298 138.739 68.3466C138.944 67.3715 138.901 66.3602 138.612 65.4062C138.324 64.4522 137.8 63.5864 137.088 62.8886C136.376 62.1908 135.5 61.6836 134.541 61.4139C133.582 61.1441 132.57 61.1205 131.599 61.3452C127.26 62.3868 125.794 68.5734 126.172 72.5088Z" fill="#FF8B7B"/>
<path opacity="0.2" d="M129.041 77.1162C129.582 77.4562 130.177 77.7018 130.801 77.8428H130.876L130.612 77.0028C130.612 77.0028 130.25 77.6034 129.041 77.1162Z" fill="black"/>
<path d="M139.957 71.358C139.251 72.7986 138.377 74.2434 137.046 75.138C136.555 75.474 132.825 75.2262 132.825 75.2262C132.863 73.9662 131.258 69.5982 130.486 68.1324C130.242 68.733 130.586 69.5562 130.28 70.1106C129.86 70.0308 122.388 67.3428 125.681 61.971C128.008 58.191 134.249 57.8466 136.84 61.5846C137.396 61.4409 137.98 61.4519 138.53 61.6162C139.08 61.7805 139.575 62.092 139.961 62.517C140.716 63.3901 141.159 64.4893 141.221 65.6418C141.41 67.62 140.822 69.5772 139.957 71.358Z" fill="#263238"/>
<path d="M133.043 69.2076C132.966 70.1676 132.537 71.0652 131.838 71.7276C130.939 72.5676 129.814 71.6772 129.675 70.4676C129.549 69.3882 130.074 67.809 131.17 67.431C132.266 67.053 133.14 68.04 133.043 69.2076Z" fill="#FF8B7B"/>
<path d="M96.9192 163.603L93.051 161.704L95.9112 152.279L100.624 154.909L96.9192 163.603Z" fill="#FF8B7B"/>
<path opacity="0.2" d="M101.64 152.321L96.6798 149.461L94.7142 156.253L99.1914 158.361L101.64 152.321Z" fill="black"/>
<path d="M92.82 160.952L97.251 162.998C97.3319 163.039 97.3945 163.108 97.4264 163.193C97.4583 163.278 97.4571 163.372 97.4232 163.456L95.9742 167.761C95.9424 167.863 95.8902 167.959 95.8208 168.041C95.7514 168.123 95.6661 168.191 95.5701 168.239C95.4741 168.288 95.3693 168.317 95.262 168.324C95.1546 168.331 95.0469 168.317 94.9452 168.281C93.4164 167.538 92.715 167.093 90.7704 166.181C89.5692 165.631 86.835 164.325 85.1298 163.708C83.4246 163.09 84.1302 161.087 84.9114 161.167C88.4268 161.54 90.4932 161.456 92.022 160.923C92.2818 160.829 92.5678 160.84 92.82 160.952Z" fill="#263238"/>
<path d="M90.5394 161.246C90.8934 161.385 91.2607 161.486 91.6356 161.549C91.6541 161.553 91.6735 161.551 91.6909 161.544C91.7083 161.536 91.7228 161.523 91.7322 161.507C91.7459 161.494 91.7556 161.477 91.76 161.458C91.7645 161.439 91.7636 161.42 91.7574 161.402C91.6692 161.259 90.8628 160.016 90.3 159.995C90.236 159.991 90.1722 160.005 90.1153 160.034C90.0583 160.064 90.0104 160.108 89.9766 160.163C89.9107 160.239 89.8665 160.331 89.8487 160.43C89.831 160.529 89.8403 160.631 89.8758 160.726C90.025 160.975 90.2614 161.161 90.5394 161.246ZM91.4634 161.314C90.6948 161.129 90.174 160.894 90.069 160.642C90.0507 160.581 90.0488 160.516 90.0635 160.454C90.0783 160.392 90.1091 160.335 90.153 160.289C90.1695 160.261 90.1928 160.238 90.2208 160.222C90.2487 160.206 90.2803 160.197 90.3126 160.196C90.6066 160.205 91.14 160.822 91.4634 161.314Z" fill="#3273DB"/>
<path d="M91.6398 161.549H91.686C91.7034 161.546 91.72 161.539 91.7345 161.529C91.749 161.519 91.7611 161.505 91.77 161.49C91.77 161.44 92.3706 160.335 92.1312 159.781C92.1022 159.707 92.0563 159.642 91.9971 159.59C91.938 159.539 91.8673 159.502 91.791 159.482C91.7108 159.451 91.6224 159.448 91.5401 159.473C91.4578 159.498 91.3864 159.55 91.3374 159.621C91.0602 160.016 91.3038 161.099 91.5978 161.503C91.6005 161.513 91.6058 161.523 91.6131 161.531C91.6204 161.539 91.6296 161.545 91.6398 161.549ZM91.7826 159.705C91.82 159.72 91.8538 159.743 91.882 159.772C91.9102 159.801 91.9321 159.835 91.9464 159.873C92.0033 160.349 91.9062 160.83 91.6692 161.246C91.4262 160.786 91.3662 160.25 91.5012 159.747C91.5012 159.692 91.5894 159.646 91.7322 159.688L91.7826 159.705Z" fill="#3273DB"/>
<path d="M126.386 114.887C126.386 114.887 103.589 110.964 100.72 123.434C98.5068 132.166 97.4358 135.719 94.6176 155.081L100.636 156.437C100.636 156.437 110.338 136.605 110.905 128.171C117.709 129.322 133.19 132.548 136.487 126.79C138.139 123.861 139.242 120.656 139.742 117.331L126.386 114.887Z" fill="#3273DB"/>
<g opacity="0.3">
<path d="M126.386 114.887C126.386 114.887 103.589 110.964 100.72 123.434C98.5068 132.166 97.4358 135.719 94.6176 155.081L100.636 156.437C100.636 156.437 110.338 136.605 110.905 128.171C117.709 129.322 133.19 132.548 136.487 126.79C138.139 123.861 139.242 120.656 139.742 117.331L126.386 114.887Z" fill="black"/>
</g>
<path d="M101.405 157.777L93.6978 155.081L94.4202 151.591L102.325 154.804L101.405 157.777Z" fill="#3273DB"/>
<path d="M80.9634 162.208L76.8978 159.953L80.9382 152.145L85.9488 154.182L80.9634 162.208Z" fill="#FF8B7B"/>
<path opacity="0.2" d="M87.3474 151.78L82.8828 148.193L79.905 154.606L84.0042 157.374L87.3474 151.78Z" fill="black"/>
<path d="M77.3136 158.966L81.3834 161.662C81.4519 161.714 81.4994 161.789 81.5172 161.873C81.5349 161.957 81.5217 162.045 81.48 162.12L79.38 166.156C79.3333 166.253 79.2674 166.34 79.1863 166.411C79.1052 166.482 79.0106 166.535 78.9081 166.569C78.8057 166.602 78.6976 166.614 78.5903 166.605C78.483 166.595 78.3787 166.564 78.2838 166.513C76.8852 165.547 76.2636 165.001 74.4744 163.813C73.374 163.086 70.8708 161.381 69.279 160.507C67.6872 159.634 68.691 157.769 69.4512 157.966C72.87 158.869 74.9112 159.104 76.5156 158.806C76.7922 158.752 77.0791 158.809 77.3136 158.966Z" fill="#263238"/>
<path d="M75.0162 158.907C75.345 159.097 75.6927 159.252 76.0536 159.369C76.0708 159.377 76.0901 159.378 76.1084 159.374C76.1266 159.369 76.1429 159.359 76.1544 159.344C76.17 159.334 76.1823 159.319 76.1897 159.302C76.1972 159.285 76.1995 159.266 76.1964 159.247C76.1334 159.088 75.5244 157.739 74.97 157.634C74.9071 157.621 74.8417 157.624 74.7804 157.644C74.7192 157.664 74.6644 157.7 74.6214 157.748C74.5467 157.815 74.4904 157.9 74.458 157.995C74.4257 158.089 74.4183 158.191 74.4366 158.29C74.5488 158.559 74.7547 158.778 75.0162 158.907ZM75.9192 159.113C75.1884 158.81 74.7096 158.516 74.6592 158.239C74.6502 158.175 74.6583 158.11 74.6826 158.05C74.707 157.991 74.7467 157.938 74.7978 157.899C74.8181 157.875 74.8442 157.857 74.8736 157.846C74.903 157.835 74.9348 157.831 74.9658 157.836C75.243 157.886 75.6588 158.575 75.9192 159.113Z" fill="#3273DB"/>
<path d="M76.0578 159.373H76.0998C76.1175 159.374 76.1351 159.371 76.1512 159.364C76.1673 159.356 76.1814 159.345 76.1922 159.331C76.2132 159.285 76.9608 158.281 76.8096 157.697C76.7925 157.62 76.7573 157.549 76.7069 157.488C76.6565 157.427 76.5924 157.38 76.5198 157.349C76.4453 157.305 76.3583 157.288 76.2729 157.3C76.1875 157.313 76.1087 157.353 76.0494 157.416C75.7176 157.765 75.789 158.869 76.02 159.314C76.0211 159.327 76.0251 159.338 76.0317 159.348C76.0383 159.359 76.0472 159.367 76.0578 159.373ZM76.4778 157.571C76.5129 157.592 76.5433 157.62 76.5672 157.654C76.591 157.687 76.6078 157.725 76.6164 157.765C76.601 158.243 76.43 158.703 76.1292 159.075C75.9597 158.583 75.9837 158.046 76.1964 157.571C76.2174 157.521 76.3014 157.487 76.4358 157.546L76.4778 157.571Z" fill="#3273DB"/>
<path d="M119.2 113.673C119.041 113.644 94.206 106.928 90.09 120.998C84.4452 138.121 80.2578 152.657 80.2578 152.657L85.1298 156.19C85.1298 156.19 97.5576 138.995 99.4098 127.21C107.171 126.336 125.719 133.136 129.016 127.382C131.716 122.678 131.846 115.815 131.846 115.815L119.2 113.673Z" fill="#3273DB"/>
<path opacity="0.3" d="M119.2 113.673C119.041 113.644 94.206 106.928 90.09 120.998C84.4452 138.121 80.2578 152.657 80.2578 152.657L85.1298 156.19C85.1298 156.19 97.5576 138.995 99.4098 127.21C107.171 126.336 125.719 133.136 129.016 127.382C131.716 122.678 131.846 115.815 131.846 115.815L119.2 113.673Z" fill="black"/>
<path d="M85.8522 157.097L79.2624 152.687L80.3292 149.864L87.4104 153.728L85.8522 157.097Z" fill="#3273DB"/>
<path d="M142.296 84.9408C141.876 86.6208 141.368 88.2798 140.818 89.9388C140.267 91.5978 139.637 93.24 138.898 94.92C138.147 96.648 137.217 98.2922 136.122 99.8256C135.479 100.725 134.707 101.526 133.833 102.203C133.295 102.618 132.701 102.954 132.069 103.202C131.706 103.34 131.331 103.442 130.948 103.505L130.641 103.555C130.481 103.555 130.305 103.58 130.15 103.58C129.886 103.576 129.623 103.547 129.364 103.492C128.981 103.413 128.608 103.294 128.251 103.135C127.962 103.015 127.681 102.875 127.411 102.715C126.965 102.438 126.535 102.133 126.126 101.804C125.412 101.22 122.749 97.02 120.855 94.08L123.11 92.1984C125.555 94.4118 128.037 96.6882 130.523 98.6328C131.162 99.0864 128.47 97.2678 129.07 97.6542C129.34 97.8231 129.62 97.9732 129.91 98.1036C130.15 98.2128 130.385 98.2674 130.33 98.2254C130.279 98.2086 130.225 98.2001 130.171 98.2002C130.11 98.196 130.05 98.196 129.99 98.2002C130.021 98.1887 130.05 98.1747 130.078 98.1582C130.218 98.0765 130.349 97.9808 130.469 97.8726C130.892 97.4783 131.266 97.0341 131.582 96.5496C132.374 95.2997 133.044 93.9762 133.581 92.5974C134.194 91.1358 134.694 89.6574 135.177 88.1076C135.66 86.5578 136.109 85.0122 136.517 83.4246C136.924 81.837 142.733 83.2524 142.296 84.9408Z" fill="#3273DB"/>
<path opacity="0.6" d="M142.296 84.9408C141.876 86.6208 141.368 88.2798 140.818 89.9388C140.267 91.5978 139.637 93.24 138.898 94.92C138.147 96.648 137.217 98.2922 136.122 99.8256C135.479 100.725 134.707 101.526 133.833 102.203C133.295 102.618 132.701 102.954 132.069 103.202C131.706 103.34 131.331 103.442 130.948 103.505L130.641 103.555C130.481 103.555 130.305 103.58 130.15 103.58C129.886 103.576 129.623 103.547 129.364 103.492C128.981 103.413 128.608 103.294 128.251 103.135C127.962 103.015 127.681 102.875 127.411 102.715C126.965 102.438 126.535 102.133 126.126 101.804C125.412 101.22 122.749 97.02 120.855 94.08L123.11 92.1984C125.555 94.4118 128.037 96.6882 130.523 98.6328C131.162 99.0864 128.47 97.2678 129.07 97.6542C129.34 97.8231 129.62 97.9732 129.91 98.1036C130.15 98.2128 130.385 98.2674 130.33 98.2254C130.279 98.2086 130.225 98.2001 130.171 98.2002C130.11 98.196 130.05 98.196 129.99 98.2002C130.021 98.1887 130.05 98.1747 130.078 98.1582C130.218 98.0765 130.349 97.9808 130.469 97.8726C130.892 97.4783 131.266 97.0341 131.582 96.5496C132.374 95.2997 133.044 93.9762 133.581 92.5974C134.194 91.1358 134.694 89.6574 135.177 88.1076C135.66 86.5578 136.109 85.0122 136.517 83.4246C136.924 81.837 142.733 83.2524 142.296 84.9408Z" fill="white"/>
<path d="M123.278 92.4504L121.124 87.8766L117.029 90.216C117.029 90.216 119.679 94.4622 121.17 94.0422L123.278 92.4504Z" fill="#FF8B7B"/>
<path d="M117.781 86.793L115.92 87.57C115.81 87.6144 115.713 87.6851 115.637 87.7757C115.562 87.8664 115.509 87.9743 115.485 88.09C115.46 88.2057 115.464 88.3257 115.497 88.4393C115.53 88.5529 115.59 88.6568 115.672 88.7418L117.062 90.195L121.157 87.8556L118.331 86.7888C118.154 86.7185 117.956 86.72 117.781 86.793Z" fill="#FF8B7B"/>
<path d="M102.304 100.867L97.8936 100.33L96.4278 104.95C96.4278 104.95 101.468 105.076 102.308 103.715L102.304 100.867Z" fill="#FF8B7B"/>
<path d="M94.605 101.905L93.765 103.664C93.711 103.787 93.687 103.92 93.695 104.054C93.703 104.187 93.7428 104.317 93.811 104.432C93.8792 104.547 93.9738 104.644 94.0871 104.715C94.2004 104.786 94.329 104.829 94.4622 104.84L96.4152 104.962L97.881 100.342L95.0292 101.501C94.844 101.581 94.6935 101.724 94.605 101.905Z" fill="#FF8B7B"/>
<path d="M143.699 84.6972C143.501 83.6724 141.977 82.425 140.944 82.2528L140.259 82.1352C138.876 81.9186 137.482 81.7784 136.084 81.7152C133.286 81.5583 130.482 81.5583 127.684 81.7152C126.386 81.837 125.114 82.047 124.102 82.2444H124.064C123.489 82.3682 122.972 82.6813 122.596 83.1335C122.219 83.5858 122.006 84.1512 121.989 84.7392C121.892 87.9102 121.649 94.353 121.078 100.699C120.637 105.659 119.658 110.494 119.217 113.854L139.763 117.323C141.149 113.425 141.628 109.901 142.909 102.661C143.661 98.3052 144.518 88.914 143.699 84.6972Z" fill="#3273DB"/>
<path opacity="0.6" d="M143.699 84.6972C143.501 83.6724 141.977 82.425 140.944 82.2528L140.259 82.1352C138.876 81.9186 137.482 81.7784 136.084 81.7152C133.286 81.5583 130.482 81.5583 127.684 81.7152C126.386 81.837 125.114 82.047 124.102 82.2444H124.064C123.489 82.3682 122.972 82.6813 122.596 83.1335C122.219 83.5858 122.006 84.1512 121.989 84.7392C121.892 87.9102 121.649 94.353 121.078 100.699C120.637 105.659 119.658 110.494 119.217 113.854L139.763 117.323C141.149 113.425 141.628 109.901 142.909 102.661C143.661 98.3052 144.518 88.914 143.699 84.6972Z" fill="white"/>
<path d="M123.997 82.74C124.393 82.9131 124.751 83.163 125.051 83.4752C125.35 83.7875 125.584 84.1559 125.741 84.5593C125.897 84.9626 125.971 85.3929 125.961 85.8253C125.95 86.2577 125.853 86.6837 125.677 87.0786C123.997 90.8586 121.183 96.8184 119.973 98.91C119.515 99.6492 119.053 100.388 118.537 101.128C118.28 101.501 117.991 101.867 117.697 102.249C117.529 102.438 117.394 102.614 117.197 102.816L116.915 103.11L116.756 103.274C116.307 103.689 115.772 104.001 115.189 104.185C114.881 104.286 114.567 104.366 114.248 104.425C113.73 104.508 113.207 104.551 112.682 104.555C111.775 104.555 105.542 105.113 102.358 104L102.19 100.569C105.365 100.821 110.905 99.1032 111.619 99.0276C111.903 98.9909 112.184 98.9333 112.459 98.8554C112.55 98.8289 112.637 98.7922 112.72 98.7462C112.749 98.7462 112.72 98.7126 112.589 98.8008C112.543 98.8296 112.499 98.8634 112.459 98.9016L112.505 98.8428L112.636 98.6874C112.724 98.595 112.825 98.4438 112.921 98.322C113.11 98.0616 113.303 97.7802 113.497 97.482C113.879 96.8856 114.248 96.222 114.614 95.5542C115.34 94.2144 116.012 92.7948 116.668 91.3542C117.13 90.3378 118.499 87.2466 119.662 84.4788C119.83 84.0781 120.076 83.7148 120.386 83.41C120.695 83.1052 121.063 82.8649 121.466 82.7031C121.869 82.5413 122.3 82.4613 122.735 82.4676C123.169 82.474 123.598 82.5665 123.997 82.74Z" fill="#3273DB"/>
<path opacity="0.2" d="M121.212 96.0918C121.271 97.9692 121.246 97.3518 121.313 99.33C126.798 91.7406 125.387 86.4696 125.387 86.4696L121.212 96.0918Z" fill="black"/>
<path opacity="0.6" d="M123.997 82.74C124.393 82.9131 124.751 83.163 125.051 83.4752C125.35 83.7875 125.584 84.1559 125.741 84.5593C125.897 84.9626 125.971 85.3929 125.961 85.8253C125.95 86.2577 125.853 86.6837 125.677 87.0786C123.997 90.8586 121.183 96.8184 119.973 98.91C119.515 99.6492 119.053 100.388 118.537 101.128C118.28 101.501 117.991 101.867 117.697 102.249C117.529 102.438 117.394 102.614 117.197 102.816L116.915 103.11L116.756 103.274C116.307 103.689 115.772 104.001 115.189 104.185C114.881 104.286 114.567 104.366 114.248 104.425C113.73 104.508 113.207 104.551 112.682 104.555C111.775 104.555 105.542 105.113 102.358 104L102.19 100.569C105.365 100.821 110.905 99.1032 111.619 99.0276C111.903 98.9909 112.184 98.9333 112.459 98.8554C112.55 98.8289 112.637 98.7922 112.72 98.7462C112.749 98.7462 112.72 98.7126 112.589 98.8008C112.543 98.8296 112.499 98.8634 112.459 98.9016L112.505 98.8428L112.636 98.6874C112.724 98.595 112.825 98.4438 112.921 98.322C113.11 98.0616 113.303 97.7802 113.497 97.482C113.879 96.8856 114.248 96.222 114.614 95.5542C115.34 94.2144 116.012 92.7948 116.668 91.3542C117.13 90.3378 118.499 87.2466 119.662 84.4788C119.83 84.0781 120.076 83.7148 120.386 83.41C120.695 83.1052 121.063 82.8649 121.466 82.7031C121.869 82.5413 122.3 82.4613 122.735 82.4676C123.169 82.474 123.598 82.5665 123.997 82.74Z" fill="white"/>
<path d="M130.166 68.04C129.838 68.3294 129.571 68.6812 129.38 69.0749C129.189 69.4686 129.078 69.8963 129.053 70.3332C128.999 71.4966 130.129 71.8116 131.107 71.2656C131.998 70.77 133.085 69.5856 132.674 68.5104C132.262 67.4352 130.99 67.3092 130.166 68.04Z" fill="#FAB27B"/>
<path d="M133.904 69.8544C133.82 71.7612 132.67 73.2606 130.763 73.1766C128.856 73.0926 127.823 71.4966 127.924 69.5898C128.024 67.683 129.163 66.1836 131.069 66.2676C132.976 66.3516 133.98 67.9476 133.904 69.8544Z" fill="#3273DB"/>
<path opacity="0.7" d="M133.904 69.8544C133.82 71.7612 132.67 73.2606 130.763 73.1766C128.856 73.0926 127.823 71.4966 127.924 69.5898C128.024 67.683 129.163 66.1836 131.069 66.2676C132.976 66.3516 133.98 67.9476 133.904 69.8544Z" fill="white"/>
<path d="M133.027 69.8166C132.964 71.1648 132.153 72.219 130.805 72.1602C129.457 72.1014 128.743 70.9758 128.806 69.6402C128.869 68.3046 129.675 67.2378 131.023 67.2966C132.371 67.3554 133.085 68.46 133.027 69.8166Z" fill="#3273DB"/>
<path opacity="0.3" d="M133.027 69.8166C132.964 71.1648 132.153 72.219 130.805 72.1602C129.457 72.1014 128.743 70.9758 128.806 69.6402C128.869 68.3046 129.675 67.2378 131.023 67.2966C132.371 67.3554 133.085 68.46 133.027 69.8166Z" fill="white"/>
<path d="M130.817 65.94C131.208 64.3356 132.754 60.06 135.958 59.4636C136.112 59.4373 136.271 59.4513 136.418 59.5043C136.565 59.5573 136.696 59.6474 136.798 59.766L137.18 60.186C137.27 60.2896 137.335 60.412 137.372 60.5441C137.408 60.6762 137.414 60.8147 137.39 60.9496C137.366 61.0844 137.312 61.2122 137.232 61.3235C137.152 61.4348 137.048 61.5269 136.928 61.593C134.921 62.6458 133.335 64.355 132.434 66.4356C132.371 66.5841 132.257 66.7049 132.112 66.7758C131.967 66.8468 131.801 66.8632 131.645 66.822L131.288 66.7254C131.124 66.679 130.984 66.5719 130.897 66.426C130.809 66.28 130.781 66.1062 130.817 65.94Z" fill="#3273DB"/>
<path opacity="0.2" d="M130.817 65.94C131.208 64.3356 132.754 60.06 135.958 59.4636C136.112 59.4373 136.271 59.4513 136.418 59.5043C136.565 59.5573 136.696 59.6474 136.798 59.766L137.18 60.186C137.27 60.2896 137.335 60.412 137.372 60.5441C137.408 60.6762 137.414 60.8147 137.39 60.9496C137.366 61.0844 137.312 61.2122 137.232 61.3235C137.152 61.4348 137.048 61.5269 136.928 61.593C134.921 62.6458 133.335 64.355 132.434 66.4356C132.371 66.5841 132.257 66.7049 132.112 66.7758C131.967 66.8468 131.801 66.8632 131.645 66.822L131.288 66.7254C131.124 66.679 130.984 66.5719 130.897 66.426C130.809 66.28 130.781 66.1062 130.817 65.94Z" fill="white"/>
<path d="M108.259 112.875H105.529V124.526H108.259V112.875Z" fill="#263238"/>
<path d="M108.259 112.875H105.529V124.526H108.259V112.875Z" fill="#263238"/>
<path d="M116.168 116.432C110.159 114.333 103.617 114.333 97.608 116.432C97.0036 116.659 96.3368 116.657 95.7344 116.424C95.132 116.192 94.6359 115.746 94.3404 115.172C93.7818 113.996 94.5294 112.472 96.0456 111.943C103.063 109.49 110.705 109.49 117.722 111.943C119.234 112.468 119.981 113.996 119.427 115.172C119.13 115.743 118.635 116.185 118.035 116.417C117.435 116.649 116.771 116.654 116.168 116.432Z" fill="#263238"/>
<path opacity="0.4" d="M116.168 116.432C110.159 114.333 103.617 114.333 97.608 116.432C97.0036 116.659 96.3368 116.657 95.7344 116.424C95.132 116.192 94.6359 115.746 94.3404 115.172C93.7818 113.996 94.5294 112.472 96.0456 111.943C103.063 109.49 110.705 109.49 117.722 111.943C119.234 112.468 119.981 113.996 119.427 115.172C119.13 115.743 118.635 116.185 118.035 116.417C117.435 116.649 116.771 116.654 116.168 116.432Z" fill="#263238"/>
<path d="M113.32 171.335C113.32 171.755 113.196 172.166 112.962 172.515C112.729 172.865 112.397 173.137 112.008 173.298C111.62 173.459 111.193 173.501 110.78 173.419C110.368 173.337 109.989 173.135 109.692 172.838C109.395 172.54 109.193 172.162 109.111 171.749C109.029 171.337 109.071 170.91 109.232 170.522C109.392 170.133 109.665 169.801 110.014 169.568C110.364 169.334 110.775 169.21 111.195 169.21C111.759 169.21 112.299 169.433 112.698 169.832C113.096 170.231 113.32 170.771 113.32 171.335Z" fill="#263238"/>
<path d="M144.526 171.335C144.526 171.755 144.651 172.166 144.885 172.516C145.118 172.866 145.451 173.138 145.839 173.299C146.228 173.459 146.655 173.501 147.068 173.419C147.48 173.337 147.859 173.134 148.156 172.836C148.453 172.538 148.655 172.159 148.736 171.747C148.818 171.334 148.775 170.907 148.614 170.519C148.452 170.13 148.179 169.799 147.829 169.566C147.479 169.333 147.068 169.209 146.647 169.21C146.368 169.207 146.09 169.26 145.831 169.366C145.572 169.472 145.337 169.628 145.14 169.826C144.942 170.024 144.786 170.259 144.681 170.519C144.575 170.778 144.523 171.055 144.526 171.335Z" fill="#263238"/>
<path d="M126.122 170.654C126.122 171.076 126.247 171.488 126.482 171.838C126.716 172.188 127.05 172.46 127.44 172.62C127.829 172.78 128.258 172.821 128.671 172.737C129.084 172.653 129.463 172.448 129.759 172.148C130.055 171.848 130.255 171.467 130.334 171.053C130.414 170.639 130.368 170.211 130.203 169.824C130.038 169.436 129.762 169.106 129.409 168.875C129.056 168.645 128.643 168.524 128.222 168.529C127.663 168.536 127.128 168.763 126.735 169.16C126.342 169.558 126.122 170.095 126.122 170.654Z" fill="#263238"/>
<path d="M151.28 168.479C151.233 168.721 151.102 168.938 150.909 169.092C150.717 169.246 150.476 169.326 150.23 169.319L128.075 169.016L107.323 169.487C107.065 169.492 106.814 169.4 106.621 169.23C106.427 169.06 106.304 168.824 106.275 168.568C106.247 168.311 106.315 168.054 106.467 167.845C106.619 167.637 106.843 167.493 107.096 167.441L118.436 165.241C119.612 165.021 120.805 164.91 122.002 164.909H134.182C135.376 164.91 136.569 165.021 137.743 165.241L150.478 167.282C150.741 167.337 150.973 167.493 151.123 167.716C151.273 167.94 151.329 168.214 151.28 168.479Z" fill="#263238"/>
<path d="M131.838 146.412H124.303V168.105H131.838V146.412Z" fill="#263238"/>
<path d="M130.759 132.67H125.387V146.521H130.759V132.67Z" fill="#263238"/>
<path opacity="0.2" d="M125.387 135.236L130.759 136.588V132.67H125.387V135.236Z" fill="black"/>
<path d="M125.912 122.812V132.607H97.3098C96.6887 132.608 96.0783 132.445 95.5409 132.133C95.0035 131.822 94.5584 131.373 94.251 130.833C93.9436 130.294 93.7848 129.682 93.7909 129.061C93.797 128.44 93.9678 127.831 94.2858 127.298C95.0936 125.932 96.243 124.801 97.6208 124.014C98.9987 123.228 100.557 122.813 102.144 122.812H125.912Z" fill="#3273DB"/>
<path opacity="0.2" d="M125.912 122.812V132.607H97.3098C96.6887 132.608 96.0783 132.445 95.5409 132.133C95.0035 131.822 94.5584 131.373 94.251 130.833C93.9436 130.294 93.7848 129.682 93.7909 129.061C93.797 128.44 93.9678 127.831 94.2858 127.298C95.0936 125.932 96.243 124.801 97.6208 124.014C98.9987 123.228 100.557 122.813 102.144 122.812H125.912Z" fill="white"/>
<path d="M131.67 86.541C131.599 86.8561 131.552 87.1763 131.531 87.4986L128.386 132.439H124.047L127.189 87.4986C127.187 87.4636 127.187 87.4286 127.189 87.3936L131.67 86.541Z" fill="#3273DB"/>
<path opacity="0.2" d="M131.67 86.541C131.599 86.8561 131.552 87.1763 131.531 87.4986L128.386 132.439H124.047L127.189 87.4986C127.187 87.4636 127.187 87.4286 127.189 87.3936L131.67 86.541Z" fill="white"/>
<path d="M151.62 132.615V132.666H150.889C151.134 132.666 151.378 132.649 151.62 132.615Z" fill="#263238"/>
<path d="M161.28 86.2554L161.33 80.913C161.358 79.4342 160.83 77.9987 159.852 76.8894L156.698 73.332L155.568 64.4322C155.489 63.7672 155.166 63.155 154.662 62.7143C154.158 62.2736 153.508 62.0357 152.838 62.0466H145.001C144.369 62.0543 143.754 62.2474 143.231 62.6022C142.708 62.9569 142.301 63.4575 142.061 64.0416L138.109 73.6134L131.573 77.4732C130.748 77.9571 130.032 78.6053 129.467 79.3776C128.903 80.15 128.503 81.0299 128.293 81.963L127.1 87.423H127.193L131.662 86.583C131.59 86.8981 131.544 87.2183 131.523 87.5406L128.377 132.481H152.977C153.222 132.481 153.468 132.464 153.712 132.43C154.946 132.241 156.081 131.64 156.932 130.726C157.783 129.811 158.3 128.636 158.399 127.39L161.213 87.1164C161.232 86.8283 161.232 86.5393 161.213 86.2512L161.28 86.2554ZM140.721 82.8576L133.073 83.58L132.741 83.6136L133.799 80.136L139.054 77.7L140.805 76.8852L141.082 77.7L141.128 77.8386L141.385 78.5904L140.721 82.8576ZM155.749 82.95L154.812 82.7064C154.812 82.4124 154.778 82.11 154.762 81.8118C154.665 80.1318 154.585 78.5778 154.585 78.5778L154.699 78.0276L154.934 76.8726L158.327 80.1402V83.6178L155.749 82.95Z" fill="#3273DB"/>
</svg>
