<svg width="84" height="84" viewBox="0 0 84 84" fill="none" xmlns="http://www.w3.org/2000/svg">
<circle cx="42" cy="42" r="42" fill="#66BADE"/>
<path d="M56.1632 33.7246L50.1474 38.7779L50.1632 38.8221L54.7316 52.9474C54.8098 53.256 54.8003 53.5758 54.7038 53.8807C54.6073 54.1857 54.4266 54.4672 54.1764 54.7025L52.6685 55.9692C52.5709 56.0648 52.4463 56.1383 52.3061 56.1828C52.1658 56.2273 52.0145 56.2414 51.866 56.2237C51.7176 56.2061 51.5768 56.1573 51.4567 56.0819C51.3366 56.0065 51.2411 55.9069 51.179 55.7923L45 46.3976L43.0395 44.7485L37.8553 49.1033C37.2611 49.5487 36.597 49.9235 35.8816 50.2174L37.0395 53.416C37.1274 53.7209 37.1256 54.0393 37.0344 54.3435C36.9431 54.6477 36.7652 54.9287 36.5158 55.1623L36.0553 55.5514C35.8202 55.7474 35.5023 55.8574 35.1711 55.8574C34.8398 55.8574 34.522 55.7474 34.2869 55.5514L31.55 53.2546L31.5027 53.2104L29.429 51.473L29.3764 51.4287L26.6448 49.132C26.4114 48.9345 26.2805 48.6675 26.2805 48.3893C26.2805 48.111 26.4114 47.844 26.6448 47.6465L27.1079 47.2575C27.3865 47.0488 27.7213 46.9001 28.0834 46.8243C28.4456 46.7484 28.8243 46.7476 29.1869 46.822L32.9948 47.7902C33.3449 47.1894 33.7912 46.6316 34.3211 46.1323L39.5053 41.7776L37.5421 40.133L26.3579 34.9426C26.2215 34.8904 26.1029 34.8102 26.0132 34.7093C25.9234 34.6085 25.8653 34.4902 25.8444 34.3655C25.8234 34.2408 25.8401 34.1137 25.8931 33.9959C25.9461 33.8781 26.0335 33.7734 26.1474 33.6915L27.6553 32.4248C27.9355 32.2148 28.2707 32.0631 28.6337 31.982C28.9967 31.901 29.3774 31.8929 29.7448 31.9584L46.5606 35.7959L46.6132 35.8092L52.629 30.7559C53.6027 29.9336 56.8948 28.5012 57.8737 29.3191C58.8474 30.1414 57.1395 32.9045 56.1632 33.7246Z" fill="white"/>
</svg>
