<svg width="84" height="84" viewBox="0 0 84 84" fill="none" xmlns="http://www.w3.org/2000/svg">
<circle cx="42" cy="42" r="42" fill="#66BADE"/>
<path fill-rule="evenodd" clip-rule="evenodd" d="M47.133 26.2491C47.133 29.1529 44.7356 31.4982 41.7889 31.4982C38.8503 31.4982 36.4529 29.1503 36.4529 26.2491C36.4529 23.3479 38.8503 21 41.7889 21C44.7356 21 47.133 23.3506 47.133 26.2491Z" fill="white"/>
<path fill-rule="evenodd" clip-rule="evenodd" d="M46.8057 47.5421C47.6174 48.3626 47.0871 48.7491 46.7921 49.0376L44.024 52.0341C43.215 52.8573 40.2926 52.86 39.4862 52.0394L36.7831 49.0932C36.6207 48.9318 35.9794 48.4209 36.7966 47.595L46.8057 47.5421Z" fill="white"/>
<path fill-rule="evenodd" clip-rule="evenodd" d="M46.8624 35.1485C46.2022 34.6297 45.404 34.3147 44.53 34.3147H39.0641C38.1765 34.3147 37.3594 34.6482 36.6937 35.1829C36.6396 35.22 31.1845 42.5259 31.1845 42.5259C30.8652 43.0235 30.9708 43.7223 31.42 44.085C31.6472 44.257 31.9232 44.3179 32.1695 44.2703C32.4238 44.22 32.6565 44.0691 32.8162 43.8176L36.4312 41.0541V43.6456C36.4312 43.6456 35.9381 44.6965 37.6726 44.6965H46.0885C47.0302 44.6965 47.198 43.6456 47.198 43.6456V41.1282L50.813 43.8494C50.9781 44.1009 51.2081 44.2544 51.4651 44.3047C51.7168 44.3497 51.9847 44.2915 52.212 44.1168C52.6693 43.7594 52.7748 43.0632 52.4528 42.5576C52.4528 42.5576 47.014 35.2279 46.8624 35.1485Z" fill="white"/>
<path fill-rule="evenodd" clip-rule="evenodd" d="M37.5164 63.2444C37.0482 63.2444 36.0985 62.9109 35.8225 62.4503L32.3968 56.3382C32.0045 55.6924 34.8646 50.3718 34.8646 50.3718L37.9872 53.7626C37.9872 53.7626 36.4529 55.4965 36.4015 55.9862C36.3474 56.4759 38.7124 60.7324 38.7124 60.7324C39.1642 61.4629 38.9911 62.4688 38.3227 62.9665C38.0765 63.1571 37.7924 63.2444 37.5164 63.2444Z" fill="white"/>
<path fill-rule="evenodd" clip-rule="evenodd" d="M45.9316 63.2444C46.4025 63.2444 47.3522 62.9109 47.6309 62.4503L51.0539 56.3382C51.4462 55.6924 48.5888 50.3718 48.5888 50.3718L45.4662 53.7626C45.4662 53.7626 47.0032 55.4965 47.0546 55.9862C47.106 56.4759 44.741 60.7324 44.741 60.7324C44.2892 61.4629 44.4623 62.4688 45.128 62.9665C45.3742 63.1571 45.6583 63.2444 45.9316 63.2444Z" fill="white"/>
</svg>
