<svg width="84" height="84" viewBox="0 0 84 84" fill="none" xmlns="http://www.w3.org/2000/svg">
<circle cx="42" cy="42" r="42" fill="#66BADE"/>
<g clip-path="url(#clip0_64_3)">
<path d="M62 37.3162C62 36.7381 61.5514 36.3787 60.6535 36.238L48.5866 34.5273L43.178 23.863C42.8738 23.2224 42.4808 22.9022 42.0001 22.9022C41.5195 22.9022 41.1268 23.2224 40.8223 23.863L35.4135 34.5273L23.346 36.238C22.4488 36.3787 22 36.7381 22 37.3162C22 37.6445 22.2004 38.0195 22.6011 38.4414L31.3512 46.7383L29.2839 58.4569C29.2518 58.6757 29.2359 58.8325 29.2359 58.9258C29.2359 59.2539 29.3199 59.5311 29.4882 59.7579C29.6563 59.985 29.9086 60.0979 30.2453 60.0979C30.5339 60.0979 30.8543 60.0046 31.2068 59.8169L41.9999 54.285L52.7937 59.8169C53.1308 60.0046 53.4513 60.0979 53.7549 60.0979C54.0765 60.0979 54.3203 59.985 54.4885 59.7579C54.6562 59.5315 54.7403 59.2539 54.7403 58.9258C54.7403 58.7229 54.7323 58.5667 54.7162 58.4569L52.6487 46.7383L61.3747 38.4414C61.792 38.0351 62 37.66 62 37.3162Z" fill="white"/>
</g>
<defs>
<clipPath id="clip0_64_3">
<rect width="40" height="39" fill="white" transform="translate(22 22)"/>
</clipPath>
</defs>
</svg>
