<svg width="174" height="161" viewBox="0 0 174 161" fill="none" xmlns="http://www.w3.org/2000/svg">
<path d="M140.568 26.9611L139.792 26.7743C133.246 25.1965 126.265 26.9707 121.758 31.5625C121.18 32.1543 120.649 32.7838 120.168 33.4462C118.458 35.8794 117.425 38.6657 117.159 41.5575C116.893 44.4494 117.403 47.3572 118.644 50.0227C120.133 53.1526 122.653 56.0345 122.82 59.438C123.028 63.8655 119.225 67.4268 115.707 70.386C112.188 73.3452 108.399 76.9226 108.625 81.3533C108.764 84.1257 110.542 86.6567 112.756 88.5564C118.616 93.5797 127.573 94.7324 135.118 92.5299C142.663 90.3274 148.854 85.1755 153.322 79.1508C159.586 70.7144 162.794 60.0884 160.783 49.939C158.772 39.7896 151.095 30.4097 140.568 26.9611Z" fill="#F5F5F5"/>
<path d="M32.2318 70.9431C40.5211 70.9431 47.241 64.7253 47.241 57.0552C47.241 49.3852 40.5211 43.1674 32.2318 43.1674C23.9424 43.1674 17.2225 49.3852 17.2225 57.0552C17.2225 64.7253 23.9424 70.9431 32.2318 70.9431Z" fill="#F5F5F5"/>
<path d="M139.788 125.19C139.788 125.19 135.765 107.01 139.788 96.9059H144.243C144.243 96.9059 147.66 107.561 144.243 125.19H139.788Z" fill="#3273DB"/>
<g opacity="0.7">
<path d="M139.788 125.19C139.788 125.19 135.765 107.01 139.788 96.9059H144.243C144.243 96.9059 147.66 107.561 144.243 125.19H139.788Z" fill="white"/>
</g>
<path d="M143.077 87.4681C143.817 86.296 144.873 85.3215 146.141 84.6398C147.41 83.958 148.848 83.5923 150.315 83.5784C149.622 84.8593 148.544 85.9278 147.211 86.6555C145.877 87.3832 144.345 87.7392 142.798 87.6806" fill="#455A64"/>
<path d="M144.183 79.8883C143.169 78.9075 142.447 77.7003 142.087 76.3842C141.727 75.0682 141.742 73.6883 142.13 72.3792C143.272 73.3472 144.086 74.5999 144.476 75.9865C144.865 77.3731 144.813 78.8343 144.326 80.1942" fill="#455A64"/>
<path d="M140.16 79.9945C138.959 79.546 137.906 78.8136 137.106 77.8706C136.306 76.9275 135.787 75.8068 135.602 74.6203C136.901 75.0156 138.048 75.7538 138.9 76.7441C139.752 77.7344 140.272 78.9336 140.397 80.1941" fill="#455A64"/>
<path d="M139.057 71.922C138.855 71.068 138.899 70.18 139.183 69.3463C139.466 68.5125 139.981 67.762 140.675 67.1693C140.952 68.0547 140.943 68.9954 140.65 69.8762C140.357 70.757 139.792 71.5396 139.026 72.128" fill="#455A64"/>
<path d="M142.161 94.565C142.254 93.6947 142.592 92.8621 143.142 92.1507C143.692 91.4393 144.434 90.8738 145.293 90.511C145.261 91.4335 144.937 92.327 144.363 93.0816C143.789 93.8362 142.988 94.419 142.061 94.7582" fill="#455A64"/>
<path d="M137.296 64.3131C137.296 64.3131 138.1 67.0984 139.036 71.674C139.151 72.2472 139.273 72.8461 139.384 73.4708C139.496 74.0955 139.611 74.7588 139.732 75.4253C139.98 76.7745 140.181 78.2267 140.408 79.753C140.818 82.8056 141.173 86.1769 141.392 89.735C141.612 93.2931 141.636 96.6709 141.591 99.7492C141.546 101.288 141.518 102.75 141.427 104.119C141.389 104.801 141.365 105.461 141.316 106.096C141.267 106.73 141.218 107.339 141.17 107.918C140.776 112.562 140.307 115.411 140.307 115.411C140.307 115.411 140.307 115.366 140.307 115.279C140.307 115.192 140.331 115.057 140.348 114.89C140.39 114.542 140.446 114.043 140.522 113.399C140.561 113.077 140.602 112.716 140.651 112.323L140.776 111.035C140.863 110.114 140.982 109.068 141.055 107.905C141.097 107.326 141.141 106.718 141.187 106.083C141.232 105.439 141.257 104.795 141.291 104.106C141.375 102.741 141.399 101.279 141.441 99.7396C141.479 96.6645 141.441 93.2802 141.229 89.735C141.017 86.1898 140.662 82.8249 140.258 79.7723C140.039 78.2461 139.84 76.7971 139.597 75.4479C139.478 74.7717 139.381 74.118 139.249 73.4933C139.116 72.8687 139.012 72.2665 138.901 71.6966C138.692 70.547 138.452 69.5199 138.257 68.6118C138.156 68.161 138.066 67.7392 137.979 67.3496C137.892 66.96 137.801 66.6122 137.724 66.2934C137.575 65.6494 137.457 65.1696 137.376 64.8283L137.289 64.4483C137.303 64.3582 137.296 64.3131 137.296 64.3131Z" fill="#263238"/>
<path d="M147.204 70.9399C147.197 70.9737 147.188 71.007 147.176 71.0397C147.152 71.1105 147.12 71.2007 147.082 71.3198C146.992 71.5742 146.863 71.9381 146.703 72.3985L146.428 73.1746C146.334 73.4644 146.233 73.7735 146.122 74.1084C145.909 74.7781 145.645 75.5348 145.408 76.3881C145.287 76.8132 145.154 77.2575 145.022 77.7212C144.89 78.1849 144.768 78.6711 144.636 79.1734C144.361 80.1748 144.124 81.26 143.867 82.3934C143.383 84.6732 142.938 87.1977 142.614 89.8638C142.29 92.53 142.144 95.0867 142.078 97.4115C142.078 98.5739 142.04 99.6655 142.078 100.712C142.078 101.227 142.078 101.726 142.113 102.206C142.148 102.686 142.158 103.146 142.179 103.584C142.207 104.463 142.287 105.259 142.339 105.954C142.363 106.302 142.391 106.627 142.416 106.92C142.44 107.213 142.475 107.487 142.503 107.735C142.551 108.218 142.59 108.595 142.617 108.862C142.617 108.984 142.635 109.081 142.642 109.155C142.647 109.188 142.647 109.222 142.642 109.255C142.638 109.223 142.638 109.19 142.642 109.158L142.6 108.865L142.454 107.738C142.426 107.493 142.391 107.223 142.353 106.927C142.315 106.63 142.297 106.302 142.266 105.961C142.207 105.265 142.12 104.47 142.081 103.591C142.057 103.153 142.033 102.689 142.005 102.209C141.977 101.73 141.977 101.243 141.963 100.712C141.925 99.6784 141.963 98.5707 141.963 97.4083C142.019 95.0802 142.175 92.5203 142.485 89.8477C142.795 87.1751 143.261 84.6506 143.752 82.3677C144.016 81.2278 144.256 80.1459 144.538 79.1477C144.674 78.6453 144.796 78.1591 144.932 77.6954C145.067 77.2318 145.203 76.7874 145.332 76.3624C145.575 75.5123 145.847 74.7524 146.066 74.089L146.383 73.1585C146.491 72.8751 146.585 72.6175 146.675 72.3824C146.846 71.9252 146.981 71.5678 147.079 71.3134C147.124 71.1975 147.162 71.1073 147.187 71.0365C147.19 71.0039 147.195 70.9716 147.204 70.9399Z" fill="#263238"/>
<path d="M146.536 72.9974C145.558 72.2343 145.492 70.8143 145.979 69.7195C146.466 68.6247 147.371 67.7424 148.119 66.7861C148.867 65.8297 149.511 64.6898 149.341 63.5178C149.27 63.2438 149.249 62.9609 149.278 62.6806C149.344 62.4069 149.626 62.1493 149.929 62.2298C150.232 62.3103 150.277 62.584 150.343 62.8287C150.511 63.5845 150.561 64.3587 150.493 65.1278C150.688 64.6798 150.991 64.2789 151.379 63.9553C151.766 63.6317 152.229 63.394 152.73 63.2602C152.838 63.7103 152.821 64.1782 152.681 64.6207C152.541 65.0631 152.283 65.4657 151.93 65.7911C152.577 65.5431 153.27 65.2888 153.959 65.4111C154.648 65.5335 155.264 66.2129 155.003 66.815C154.71 67.5009 153.698 67.5138 152.915 67.6458C152.037 67.7949 151.245 68.226 150.677 68.863C149.981 69.6647 149.682 70.7112 149.108 71.6C148.533 72.4887 147.43 73.2615 146.365 72.9427" fill="#3273DB"/>
<path d="M138.135 67.3817C139.221 66.7571 139.496 65.3596 139.179 64.21C138.862 63.0605 138.107 62.072 137.505 61.0287C136.903 59.9854 136.44 58.7747 136.809 57.6348C136.921 57.3727 136.984 57.0952 136.997 56.8137C136.976 56.5336 136.722 56.2373 136.423 56.2824C136.124 56.3275 136.012 56.6044 135.922 56.8202C135.641 57.5458 135.474 58.3048 135.424 59.0742C135.299 58.6052 135.061 58.1689 134.726 57.7983C134.391 57.4278 133.969 57.1329 133.493 56.9361C133.318 57.3679 133.264 57.8336 133.335 58.29C133.406 58.7465 133.6 59.1789 133.9 59.5475C133.298 59.2255 132.651 58.8745 131.948 58.9035C131.245 58.9325 130.538 59.525 130.702 60.1561C130.89 60.8741 131.889 61.019 132.644 61.2509C133.492 61.5108 134.212 62.0416 134.676 62.7482C135.257 63.6304 135.372 64.7059 135.814 65.6462C136.256 66.5864 137.223 67.5105 138.323 67.3334" fill="#3273DB"/>
<path d="M136.858 81.0507C136.901 81.1072 136.939 81.1676 136.969 81.231L137.258 81.7558C137.383 81.9845 137.533 82.2678 137.69 82.5995C137.846 82.9311 138.038 83.3079 138.229 83.7329C138.42 84.158 138.626 84.6184 138.824 85.1272C139.023 85.6359 139.231 86.1769 139.444 86.7372C139.844 87.8932 140.237 89.1779 140.568 90.5432C140.898 91.9085 141.121 93.2287 141.285 94.433C141.354 95.0351 141.427 95.6083 141.465 96.146C141.504 96.6838 141.539 97.1861 141.559 97.6433C141.58 98.1006 141.584 98.5159 141.591 98.8798C141.598 99.2437 141.591 99.5592 141.591 99.8136C141.591 100.068 141.591 100.255 141.57 100.403C141.575 100.471 141.575 100.54 141.57 100.609C141.562 100.54 141.562 100.471 141.57 100.403C141.57 100.255 141.57 100.058 141.57 99.8136C141.57 99.5689 141.57 99.2437 141.552 98.883C141.535 98.5224 141.535 98.1038 141.5 97.6498C141.465 97.1957 141.441 96.6838 141.385 96.1557C141.33 95.6276 141.264 95.048 141.191 94.4491C141.02 93.2512 140.787 91.9375 140.463 90.5851C140.14 89.2327 139.746 87.9415 139.357 86.7887C139.148 86.2155 138.96 85.6681 138.755 85.1787C138.549 84.6893 138.361 84.2127 138.177 83.7812C137.992 83.3497 137.829 82.9762 137.662 82.6413C137.495 82.3065 137.37 82.0231 137.251 81.7913L136.99 81.2535C136.94 81.1897 136.895 81.1218 136.858 81.0507Z" fill="#263238"/>
<path d="M137.599 83.72C138.139 83.3143 138.184 82.5415 137.947 81.9394C137.638 81.3631 137.256 80.8227 136.809 80.3294C136.406 79.8045 136.068 79.1766 136.172 78.539C136.215 78.3912 136.23 78.2375 136.214 78.085C136.183 77.9337 136.023 77.792 135.866 77.8339C135.71 77.8757 135.664 78.0238 135.633 78.1559C135.535 78.5668 135.501 78.9886 135.532 79.4084C135.43 79.1627 135.269 78.9416 135.061 78.762C134.853 78.5823 134.603 78.4488 134.331 78.3716C134.268 78.6162 134.272 78.8717 134.344 79.1144C134.416 79.357 134.553 79.5789 134.742 79.7594C134.404 79.5855 134.018 79.5072 133.632 79.534C133.26 79.5952 132.915 79.9591 133.051 80.2907C133.187 80.6224 133.747 80.6803 134.182 80.7576C134.658 80.8482 135.085 81.0896 135.389 81.4403C135.769 81.8814 135.915 82.4546 136.218 82.944C136.52 83.4334 137.115 83.8617 137.7 83.6975" fill="#3273DB"/>
<path d="M163.313 125.19C163.313 125.239 128.763 125.277 86.1544 125.277C43.5452 125.277 8.98883 125.239 8.98883 125.19C8.98883 125.142 43.5313 125.107 86.1544 125.107C128.777 125.107 163.313 125.145 163.313 125.19Z" fill="#263238"/>
<path d="M80.743 140.009L78.9334 141.809L138.452 142.756L136.952 131.55L85.3157 135.137L80.743 140.009Z" fill="#E0E0E0"/>
<path d="M90.7306 126.646L78.3244 139.961C78.3244 139.961 123.564 140.875 133.656 140.814C134.836 140.814 139.224 140.814 140.032 138.911L136.298 126.562L90.7306 126.646Z" fill="#FAFAFA"/>
<path d="M90.7306 126.646H90.9463H91.5901H94.0888L103.485 126.607L136.28 126.511H136.346L136.364 126.569C137.544 130.471 138.8 134.619 140.101 138.917V138.946V138.972C139.909 139.365 139.602 139.699 139.214 139.938C138.829 140.166 138.412 140.344 137.975 140.466C137.095 140.699 136.189 140.84 135.275 140.888C134.356 140.949 133.43 140.933 132.491 140.936H129.689C119.51 140.849 109.853 140.669 101.129 140.514L78.307 140.067H78.1747L78.2617 139.973L87.3967 130.217L89.8606 127.596L90.4974 126.923L90.7167 126.697C90.7167 126.697 90.6471 126.781 90.5044 126.939L89.8745 127.625L87.4385 130.268L78.3696 139.996L78.3244 139.903L101.146 140.315C109.846 140.46 119.528 140.637 129.703 140.717H132.505C133.434 140.717 134.359 140.717 135.268 140.669C136.168 140.624 137.06 140.486 137.926 140.257C138.346 140.137 138.746 139.966 139.117 139.748C139.474 139.532 139.759 139.227 139.938 138.869V138.92C138.64 134.625 137.387 130.471 136.211 126.569L136.291 126.627L103.527 126.656H94.1097H91.6006H90.9533C90.8071 126.652 90.7306 126.646 90.7306 126.646Z" fill="#263238"/>
<path d="M103.116 136.776C103.111 136.64 103.125 136.503 103.158 136.37C103.231 136.005 103.347 135.649 103.506 135.308C103.735 134.799 104.048 134.326 104.435 133.907C104.651 133.669 104.939 133.453 104.818 133.15C104.756 132.995 104.685 132.842 104.605 132.693C104.562 132.605 104.534 132.512 104.522 132.416C104.515 132.359 104.52 132.3 104.538 132.245C104.556 132.19 104.586 132.138 104.626 132.094C104.79 131.927 105.002 131.911 105.124 131.82C105.252 131.726 105.343 131.594 105.381 131.447C105.475 131.141 105.555 130.822 105.639 130.532C105.706 130.246 105.8 129.966 105.921 129.695C105.984 129.569 106.071 129.454 106.178 129.357C106.286 129.266 106.423 129.208 106.568 129.193L106.533 129.299C106.437 129.22 106.365 129.119 106.324 129.006C106.282 128.893 106.273 128.772 106.297 128.655C106.319 128.486 106.398 128.327 106.523 128.201C106.601 128.122 106.701 128.064 106.812 128.034C106.851 128.027 106.891 128.027 106.93 128.034C106.782 128.08 106.652 128.166 106.557 128.28C106.462 128.395 106.407 128.533 106.398 128.678C106.385 128.775 106.398 128.873 106.435 128.965C106.473 129.056 106.534 129.138 106.613 129.203L106.739 129.293L106.582 129.309C106.46 129.334 106.348 129.389 106.256 129.467C106.164 129.545 106.095 129.643 106.057 129.753C105.945 130.017 105.86 130.29 105.802 130.568C105.722 130.864 105.649 131.167 105.548 131.495C105.499 131.677 105.387 131.839 105.228 131.956C105.051 132.065 104.856 132.094 104.765 132.2C104.675 132.307 104.699 132.455 104.765 132.609C104.849 132.764 104.922 132.923 104.985 133.086C105.01 133.177 105.019 133.272 105.009 133.366C104.991 133.457 104.952 133.544 104.894 133.62C104.786 133.749 104.67 133.871 104.546 133.987C104.164 134.392 103.849 134.847 103.61 135.337C103.402 135.803 103.237 136.284 103.116 136.776Z" fill="#263238"/>
<path d="M109.272 128.069C109.271 128.193 109.252 128.317 109.216 128.436C109.168 128.671 109.095 129.013 108.994 129.428C108.742 130.524 108.399 131.601 107.967 132.648C107.455 133.878 106.728 134.867 106.342 135.636C106.135 136.054 105.959 136.484 105.816 136.924C105.813 136.799 105.832 136.674 105.872 136.554C105.954 136.222 106.07 135.899 106.22 135.588C106.568 134.792 107.288 133.801 107.79 132.59C108.215 131.552 108.573 130.492 108.861 129.415L109.143 128.449C109.169 128.318 109.212 128.19 109.272 128.069Z" fill="#263238"/>
<path d="M111.92 127.599C111.897 127.731 111.855 127.86 111.795 127.982L111.395 129.009C111.047 129.875 110.594 131.073 110.107 132.403C109.62 133.733 109.195 134.905 108.868 135.813C108.712 136.222 108.583 136.567 108.479 136.844C108.438 136.972 108.383 137.096 108.315 137.214C108.332 137.08 108.364 136.948 108.412 136.821C108.486 136.573 108.6 136.216 108.76 135.775C109.053 134.895 109.456 133.678 109.954 132.348C110.452 131.019 110.922 129.824 111.29 128.967C111.478 128.539 111.638 128.195 111.746 127.96C111.793 127.835 111.851 127.714 111.92 127.599Z" fill="#263238"/>
<path d="M113.796 128.323C113.803 128.453 113.796 128.582 113.775 128.71C113.747 128.958 113.706 129.315 113.612 129.753C113.563 129.993 113.496 130.23 113.413 130.462C113.33 130.716 113.197 130.97 113.107 131.241C113.059 131.377 113.033 131.519 113.03 131.663C113.037 131.814 113.058 131.965 113.093 132.113C113.138 132.284 113.138 132.462 113.093 132.632C113.025 132.802 112.915 132.955 112.773 133.079C112.515 133.324 112.202 133.521 112.112 133.788C112.076 133.926 112.091 134.071 112.153 134.2C112.211 134.354 112.225 134.519 112.195 134.68C112.122 134.954 112.02 135.222 111.892 135.478L111.59 136.148C111.412 136.531 111.266 136.853 111.144 137.114C111.098 137.237 111.035 137.354 110.956 137.462C110.983 137.335 111.024 137.211 111.078 137.092L111.471 136.106L111.753 135.427C111.87 135.178 111.963 134.921 112.032 134.657C112.056 134.52 112.041 134.378 111.986 134.248C111.913 134.089 111.897 133.911 111.941 133.743C112.104 133.436 112.342 133.169 112.637 132.964C112.758 132.856 112.852 132.725 112.912 132.58C112.952 132.436 112.952 132.284 112.912 132.139C112.875 131.981 112.854 131.821 112.849 131.659C112.856 131.502 112.886 131.346 112.94 131.196C113.044 130.909 113.177 130.661 113.264 130.416C113.351 130.191 113.423 129.961 113.479 129.727C113.678 128.868 113.744 128.317 113.796 128.323Z" fill="#263238"/>
<path d="M113.904 138.283C113.854 138.154 113.823 138.02 113.81 137.884C113.759 137.514 113.759 137.139 113.81 136.77C113.889 136.217 114.078 135.683 114.367 135.195C114.556 134.932 114.718 134.653 114.85 134.361C114.958 134.065 114.76 133.746 114.746 133.36C114.766 133.004 114.845 132.653 114.979 132.319C115.073 131.997 115.164 131.675 115.254 131.389C115.421 130.8 115.574 130.265 115.707 129.805C115.839 129.344 115.943 129.022 116.027 128.739C116.058 128.605 116.106 128.476 116.169 128.352C116.16 128.487 116.136 128.621 116.096 128.752C116.027 129.042 115.936 129.396 115.832 129.834C115.727 130.272 115.581 130.829 115.414 131.444C115.331 131.743 115.24 132.059 115.146 132.384C115.023 132.702 114.95 133.035 114.927 133.372C114.939 133.542 114.97 133.711 115.021 133.875C115.071 134.053 115.071 134.241 115.021 134.419C114.886 134.724 114.716 135.014 114.513 135.285C114.227 135.756 114.033 136.269 113.939 136.802C113.871 137.293 113.859 137.789 113.904 138.283Z" fill="#263238"/>
<path d="M116.545 138.241C116.548 138.105 116.564 137.969 116.594 137.835C116.646 137.546 116.712 137.191 116.792 136.747L117.471 133.153C117.6 132.452 117.715 131.782 117.819 131.173C117.923 130.565 117.982 130.024 118.052 129.563C118.122 129.103 118.177 128.761 118.226 128.468C118.24 128.333 118.269 128.199 118.313 128.069C118.331 128.204 118.331 128.34 118.313 128.475C118.282 128.768 118.243 129.138 118.198 129.576C118.153 130.014 118.073 130.603 118.003 131.209C117.934 131.814 117.802 132.497 117.673 133.195C117.419 134.602 117.147 135.868 116.942 136.782C116.841 137.24 116.754 137.607 116.688 137.861C116.657 137.993 116.609 138.12 116.545 138.241Z" fill="#263238"/>
<path d="M119.082 138.624C119.088 138.478 119.106 138.333 119.138 138.19L119.354 137.017C119.545 136.029 119.816 134.664 120.133 133.153C120.29 132.403 120.443 131.688 120.579 131.035C120.649 130.733 120.678 130.425 120.662 130.117C120.638 129.834 120.551 129.563 120.544 129.299C120.538 129.092 120.585 128.887 120.683 128.701C120.78 128.515 120.925 128.354 121.104 128.23C121.199 128.163 121.305 128.11 121.417 128.072C121.455 128.058 121.495 128.049 121.536 128.047C121.4 128.116 121.271 128.194 121.149 128.282C120.991 128.405 120.865 128.561 120.782 128.737C120.7 128.913 120.662 129.104 120.673 129.296C120.673 129.537 120.777 129.798 120.812 130.104C120.835 130.427 120.813 130.752 120.746 131.07C120.61 131.714 120.464 132.445 120.311 133.195C119.994 134.702 119.702 136.061 119.479 137.059C119.371 137.526 119.281 137.916 119.207 138.222C119.18 138.36 119.138 138.494 119.082 138.624Z" fill="#263238"/>
<path d="M122.43 138.248C122.499 138.216 122.559 138.171 122.606 138.115C122.654 138.059 122.688 137.995 122.705 137.926C122.741 137.766 122.732 137.601 122.677 137.446C122.59 137.238 122.473 137.042 122.329 136.863C122.237 136.746 122.17 136.613 122.135 136.472C122.099 136.331 122.094 136.185 122.12 136.042C122.225 135.72 122.573 135.543 122.764 135.301C122.814 135.243 122.849 135.175 122.867 135.103C122.885 135.03 122.885 134.955 122.868 134.883C122.837 134.725 122.757 134.561 122.708 134.377C122.681 134.278 122.677 134.175 122.697 134.074C122.717 133.974 122.76 133.878 122.823 133.794C122.941 133.627 123.098 133.498 123.213 133.353C123.272 133.291 123.315 133.218 123.339 133.139C123.363 133.06 123.368 132.977 123.352 132.896C123.295 132.735 123.199 132.588 123.074 132.464C122.944 132.331 122.822 132.191 122.708 132.046C122.586 131.895 122.527 131.709 122.541 131.521C122.6 131.141 122.889 130.925 122.98 130.664C123.045 130.41 123.034 130.144 122.948 129.895C122.877 129.677 122.833 129.452 122.816 129.225C122.809 129.049 122.846 128.874 122.924 128.713C123.074 128.443 123.272 128.417 123.272 128.423C123.146 128.504 123.046 128.616 122.983 128.745C122.923 128.9 122.899 129.065 122.914 129.228C122.941 129.447 122.994 129.663 123.07 129.872C123.172 130.143 123.189 130.434 123.119 130.713C123.018 131.035 122.736 131.25 122.705 131.543C122.674 131.837 122.955 132.094 123.206 132.365C123.354 132.506 123.463 132.678 123.523 132.867C123.544 132.971 123.541 133.079 123.512 133.182C123.483 133.285 123.43 133.381 123.356 133.463C123.223 133.62 123.074 133.749 122.969 133.891C122.919 133.957 122.885 134.032 122.869 134.112C122.854 134.191 122.857 134.273 122.879 134.351C122.917 134.512 123.001 134.673 123.035 134.863C123.056 134.956 123.055 135.053 123.031 135.145C123.006 135.237 122.961 135.324 122.896 135.398C122.656 135.678 122.343 135.829 122.263 136.087C122.239 136.212 122.242 136.341 122.272 136.465C122.302 136.59 122.358 136.707 122.437 136.811C122.574 137.002 122.682 137.209 122.757 137.426C122.809 137.598 122.809 137.78 122.757 137.951C122.722 138.061 122.642 138.153 122.534 138.209C122.504 138.23 122.468 138.243 122.43 138.248Z" fill="#263238"/>
<path d="M125.28 138.492C125.476 138.034 125.594 137.551 125.628 137.059C125.644 136.521 125.608 135.982 125.52 135.449C125.43 134.85 125.318 134.184 125.259 133.482C125.153 132.282 125.164 131.077 125.29 129.879C125.339 129.418 125.402 129.048 125.447 128.794C125.464 128.661 125.495 128.531 125.541 128.404C125.55 128.538 125.542 128.672 125.517 128.803C125.492 129.061 125.451 129.428 125.419 129.888C125.329 131.081 125.336 132.278 125.44 133.469C125.499 134.165 125.604 134.825 125.684 135.43C125.765 135.969 125.788 136.513 125.753 137.056C125.727 137.424 125.637 137.785 125.485 138.125C125.446 138.218 125.399 138.307 125.343 138.392C125.308 138.46 125.28 138.495 125.28 138.492Z" fill="#263238"/>
<path d="M127.949 128.243C127.949 128.243 127.98 128.269 128.022 128.323C128.079 128.41 128.127 128.502 128.165 128.597C128.303 128.948 128.355 129.323 128.318 129.695C128.255 130.238 128.15 130.776 128.001 131.305C127.86 131.951 127.824 132.614 127.897 133.269C127.956 133.968 128.074 134.638 128.158 135.246L128.384 136.856C128.435 137.286 128.48 137.65 128.52 137.948C128.545 138.081 128.553 138.216 128.544 138.351C128.499 138.223 128.467 138.091 128.45 137.958C128.398 137.668 128.332 137.314 128.255 136.873C128.179 136.431 128.088 135.858 127.991 135.263C127.893 134.667 127.779 133.991 127.716 133.279C127.644 132.608 127.685 131.93 127.838 131.27C127.988 130.749 128.104 130.22 128.186 129.686C128.231 129.326 128.199 128.961 128.092 128.613C128.019 128.372 127.935 128.249 127.949 128.243Z" fill="#263238"/>
<path d="M97.3774 144.659L88.4303 153.317L121.922 154.57L127.483 145.663L97.3774 144.659Z" fill="#EBEBEB"/>
<path d="M97.3774 144.659H97.5235H97.9481L99.608 144.704L105.841 144.89L127.483 145.579H127.619L127.552 145.686L121.984 154.595L121.96 154.637H121.908L119.298 154.537L88.4164 153.359H88.2806L88.392 153.272L94.9692 146.948L96.7579 145.238L97.2242 144.797L97.3843 144.652C97.3843 144.652 97.3356 144.71 97.2312 144.813L96.7718 145.267L95.004 147.009L88.4825 153.356L88.4442 153.259L119.326 154.393L121.936 154.492L121.859 154.531L127.427 145.625L127.497 145.737L105.886 144.987L99.6428 144.755L97.9759 144.691L97.5444 144.668L97.3774 144.659Z" fill="#263238"/>
<path d="M127.483 145.65C127.483 145.692 124.003 146.616 119.67 147.734C115.338 148.851 111.826 149.704 111.812 149.666C111.798 149.627 115.292 148.7 119.625 147.582C123.958 146.465 127.469 145.608 127.483 145.65Z" fill="#263238"/>
<path d="M104.501 149.134C104.473 149.17 102.858 148.197 100.892 146.961C98.926 145.724 97.3531 144.707 97.3774 144.659C97.4018 144.61 99.02 145.596 100.99 146.832C102.959 148.069 104.529 149.086 104.501 149.134Z" fill="#263238"/>
<path opacity="0.3" d="M121.017 154.183C121.017 154.183 110.316 147.827 108.228 147.209C106.86 146.828 105.445 146.611 104.017 146.565L121.017 154.183Z" fill="black"/>
<path d="M88.4303 153.317C88.4303 153.317 101.943 146.188 103.008 146.265C104.073 146.343 121.922 154.56 121.922 154.56L88.4303 153.317Z" fill="#F5F5F5"/>
<path d="M121.922 154.56C121.891 154.552 121.86 154.541 121.831 154.528L121.574 154.415L120.596 153.971L117.001 152.329L111.659 149.904C109.644 149.002 107.431 148.007 105.072 147.045C104.493 146.802 103.902 146.587 103.3 146.401C103.167 146.351 103.022 146.334 102.879 146.352C102.733 146.384 102.588 146.425 102.448 146.475C102.162 146.574 101.88 146.687 101.606 146.797C100.499 147.264 99.4549 147.763 98.4736 148.242C96.4935 149.208 94.7256 150.1 93.2536 150.857L89.7457 152.654L88.7922 153.143L88.5417 153.266L88.4547 153.304C88.4547 153.304 88.479 153.282 88.5347 153.253L88.7748 153.114L89.7144 152.602C90.5322 152.161 91.7189 151.527 93.1944 150.757C94.6699 149.988 96.4343 149.083 98.4144 148.114C99.4062 147.631 100.45 147.128 101.546 146.655C101.825 146.539 102.107 146.423 102.399 146.333C102.548 146.278 102.702 146.234 102.858 146.201C103.027 146.178 103.2 146.196 103.359 146.252C103.968 146.438 104.565 146.653 105.148 146.896C107.515 147.862 109.728 148.861 111.739 149.769C113.751 150.677 115.567 151.517 117.064 152.226L120.624 153.916L121.591 154.386L121.838 154.512L121.922 154.56Z" fill="#263238"/>
<path d="M105.771 75.2642L90.386 67.0565L52.8368 70.3827L51.8763 84.8695L55.4538 124.405L94.3219 125.194H108.579L108.74 120.679L109.61 108.984L105.771 75.2642Z" fill="#3273DB"/>
<path d="M90.386 67.0565C90.386 67.0565 103.074 66.9438 109.61 75.1065C111.618 77.6116 132.362 101.556 131.621 113.167C131.273 118.709 127.124 125.203 127.124 125.203H108.315L97.962 78.1397L90.386 67.0565Z" fill="#3273DB"/>
<path d="M105.834 124.614C105.837 124.578 105.845 124.542 105.858 124.508C105.882 124.427 105.914 124.327 105.952 124.186C106.043 123.906 106.171 123.506 106.331 122.998L106.61 122.138C106.704 121.816 106.784 121.471 106.881 121.101C107.062 120.354 107.316 119.517 107.469 118.564L107.751 117.073C107.845 116.558 107.89 116.01 107.967 115.463C108.141 114.342 108.186 113.131 108.27 111.863C108.486 106.333 107.637 100.811 105.761 95.5567C105.301 94.3589 104.891 93.2093 104.369 92.1789C104.125 91.6573 103.916 91.1453 103.673 90.672L102.952 89.3163C102.517 88.4405 102.02 87.7063 101.623 87.0301C101.414 86.7081 101.233 86.3861 101.049 86.106L100.523 85.3525L99.8029 84.306C99.7264 84.1933 99.6637 84.1032 99.6185 84.0323C99.5941 84.0028 99.5742 83.9703 99.5593 83.9357C99.5864 83.9626 99.6109 83.9917 99.6324 84.0227C99.6846 84.0903 99.7507 84.1772 99.8308 84.2899C100.012 84.5314 100.262 84.876 100.582 85.3171C100.746 85.5425 100.93 85.7904 101.122 86.0641C101.313 86.3378 101.498 86.6534 101.71 86.9851C102.117 87.6516 102.622 88.389 103.067 89.2648L103.798 90.6204C104.049 91.0906 104.261 91.6058 104.494 92.1242C105.006 93.1578 105.423 94.3073 105.886 95.5084C107.783 100.777 108.635 106.32 108.402 111.869C108.315 113.141 108.259 114.355 108.082 115.479C108.002 116.042 107.953 116.587 107.852 117.108C107.751 117.63 107.654 118.122 107.56 118.596C107.396 119.562 107.135 120.393 106.944 121.136C106.839 121.507 106.756 121.858 106.659 122.173C106.561 122.489 106.453 122.769 106.366 123.027C106.189 123.532 106.05 123.928 105.952 124.211L105.841 124.533C105.842 124.56 105.839 124.587 105.834 124.614Z" fill="#263238"/>
<g opacity="0.3">
<path d="M108.423 108.627C108.924 114.292 107.901 119.984 105.444 125.194L108.924 125.113C110.474 119.687 110.3 113.963 108.423 108.627Z" fill="black"/>
</g>
<path d="M100.388 85.0434C100.37 85.0855 100.349 85.1263 100.325 85.1657L100.123 85.5167C99.9421 85.8387 99.6776 86.2863 99.3401 86.8627C98.6441 88.0251 97.6558 89.7124 96.3229 91.741C94.7783 94.1299 93.0156 96.3921 91.0542 98.503C90.4904 99.0794 89.791 99.6654 88.8757 99.8296C87.9567 99.9557 87.0179 99.8222 86.1822 99.4464C85.3226 99.1244 84.5118 98.6704 83.6731 98.2551L81.1293 96.9671L63.5309 88.0992L58.21 85.3944L56.7692 84.6506L56.3969 84.4541C56.3522 84.434 56.3101 84.4091 56.2716 84.3801L56.4038 84.438L56.7866 84.6216L58.2448 85.3364L63.5935 87.9929L81.2128 96.8189L83.7601 98.1069C84.5988 98.5223 85.4097 98.9634 86.2518 99.2919C87.0542 99.6558 87.9562 99.7882 88.8409 99.6719C89.697 99.5173 90.3721 98.9635 90.9289 98.3839C92.8918 96.2863 94.6601 94.0394 96.2151 91.6669C97.5618 89.648 98.571 87.9704 99.2775 86.8176C99.6255 86.2477 99.9004 85.8001 100.092 85.4877L100.308 85.1464C100.331 85.1101 100.358 85.0756 100.388 85.0434Z" fill="white"/>
<path d="M104.417 81.6559C104.017 82.4484 103.563 83.2164 103.057 83.955C102.602 84.7213 102.095 85.4601 101.539 86.1672C101.938 85.3739 102.392 84.6059 102.9 83.8681C103.354 83.1016 103.861 82.3627 104.417 81.6559Z" fill="white"/>
<path d="M102.66 89.838C102.649 89.883 102.633 89.9271 102.615 89.97L102.458 90.3499C102.322 90.6719 102.11 91.1678 101.807 91.7893C100.957 93.5342 99.9533 95.212 98.8077 96.806C97.1075 99.1734 95.1073 101.344 92.8499 103.272C92.2 103.836 91.5017 104.351 90.7619 104.811C89.9854 105.295 89.1215 105.646 88.2111 105.848C87.2597 106.033 86.2782 106.043 85.3227 105.877C84.3489 105.698 83.4015 105.412 82.5004 105.027C80.6734 104.257 79.0204 103.278 77.3952 102.412L72.7146 99.8747L64.7907 95.5663L59.4558 92.6522L58.0116 91.8505L57.6358 91.6412C57.5919 91.6201 57.551 91.5941 57.514 91.5639L57.6462 91.625L58.029 91.8215L59.4906 92.5943L64.8533 95.4665L72.7981 99.7427L77.4857 102.27C79.1178 103.133 80.7639 104.112 82.5735 104.872C83.4617 105.254 84.3964 105.537 85.3575 105.713C86.2886 105.874 87.2448 105.866 88.1728 105.69C89.0615 105.491 89.905 105.147 90.6645 104.676C91.3983 104.223 92.0908 103.716 92.7351 103.159C94.9876 101.242 96.9895 99.087 98.6998 96.7384C99.8479 95.157 100.862 93.4959 101.734 91.77C102.037 91.1549 102.267 90.6751 102.43 90.3467L102.604 89.9732C102.619 89.9267 102.637 89.8815 102.66 89.838Z" fill="white"/>
<path d="M106.043 89.5643C105.605 90.2738 105.064 90.9239 104.435 91.4963C104.629 91.1261 104.876 90.7817 105.169 90.4723C105.414 90.1344 105.708 89.8289 106.043 89.5643Z" fill="white"/>
<path d="M91.6563 60.3975L101.633 59.248L111.809 65.9069C111.809 65.9069 113.549 77.763 113.873 78.7258C114.196 79.6885 117.081 84.8438 117.081 84.8438C116.49 84.6972 115.87 84.679 115.27 84.7907C114.67 84.9024 114.106 85.141 113.622 85.4878C112.15 86.5085 108.319 89.7478 107.107 90.1696C107.107 90.1696 105.228 84.8985 105.249 82.6606C105.27 80.4227 104.595 75.3029 104.595 75.3029L103.732 71.9766L101.066 69.1817L97.5027 68.8146C97.5027 68.8146 96.4865 70.7466 94.9518 69.8096L93.5007 68.586L96.0028 66.8568C96.0028 66.8568 92.8708 68.9176 91.7015 67.2754L91.3013 66.5413L93.5842 65.4819C93.5842 65.4819 91.4649 66.2611 91.1482 65.2243L93.7686 62.6483C93.7686 62.6483 90.9638 62.0751 91.6563 60.3975Z" fill="#FFBE9D"/>
<path d="M93.612 62.7417C93.612 62.7417 93.6955 62.629 93.8974 62.4809C94.1853 62.2707 94.504 62.0994 94.8439 61.9721C95.707 61.6694 96.9041 61.3281 98.2334 60.916C99.5628 60.5038 100.749 60.1528 101.651 59.95C101.834 59.9056 102.025 59.8976 102.211 59.9265C102.398 59.9553 102.576 60.0204 102.733 60.1174C102.949 60.272 102.984 60.4169 102.973 60.4169C102.963 60.4169 102.897 60.3009 102.688 60.1818C102.536 60.1046 102.368 60.0563 102.195 60.0397C102.023 60.0231 101.848 60.0386 101.682 60.0852C100.823 60.3235 99.622 60.7292 98.2961 61.1092L94.8996 62.1106C94.4458 62.2748 94.0138 62.4866 93.612 62.7417Z" fill="#EB996E"/>
<path d="M107.25 65.8522C107.044 65.7827 106.845 65.6965 106.655 65.5946C106.283 65.4175 105.747 65.147 105.103 64.7864C104.459 64.4257 103.711 63.9749 102.897 63.4372C102.486 63.1699 102.093 62.8544 101.571 62.8093C101.023 62.7524 100.472 62.733 99.9213 62.7513C99.3742 62.7691 98.8337 62.868 98.3205 63.0444C97.8472 63.23 97.391 63.4507 96.9563 63.7045C96.1002 64.1746 95.3346 64.5996 94.6734 64.9377C94.156 65.2083 93.624 65.4544 93.0796 65.6751C92.9319 65.7359 92.7809 65.7897 92.6272 65.8361C92.574 65.8576 92.5177 65.8717 92.4601 65.878C92.649 65.7771 92.8442 65.6868 93.0448 65.6075C93.4171 65.4336 93.9531 65.1696 94.6003 64.8154C95.2476 64.4612 95.9923 64.0297 96.8554 63.5499C97.2984 63.2866 97.764 63.0572 98.2474 62.864C98.7801 62.6724 99.3433 62.5636 99.9143 62.542C100.478 62.5227 101.042 62.5442 101.602 62.6064C101.881 62.639 102.148 62.7281 102.385 62.8673C102.615 62.9961 102.813 63.1442 103.015 63.2794C103.812 63.8204 104.553 64.2808 105.187 64.6544C105.82 65.0279 106.338 65.3177 106.7 65.5141C106.893 65.6137 107.076 65.7268 107.25 65.8522Z" fill="#EB996E"/>
<path d="M107.48 69.4875C107.321 69.4266 107.169 69.3499 107.027 69.2589L105.844 68.5827L104.104 67.5555L103.078 66.9437C102.721 66.7178 102.349 66.5135 101.964 66.3319C101.174 65.9777 100.294 66.0711 99.528 66.1806C98.7624 66.2901 98.049 66.3158 97.4783 66.4124C96.8598 66.5245 96.2696 66.7429 95.7383 67.0564C95.7383 67.0564 95.7661 67.021 95.8322 66.9695C95.9286 66.8929 96.031 66.8229 96.1385 66.7602C96.5384 66.5261 96.9823 66.3633 97.447 66.2804C98.0316 66.1645 98.7346 66.1355 99.4932 66.0067C99.8983 65.9362 100.309 65.8996 100.722 65.8972C101.176 65.894 101.625 65.9842 102.037 66.1613C102.429 66.3521 102.807 66.5673 103.168 66.8053L104.188 67.4267L105.903 68.4893L107.052 69.2171C107.205 69.2927 107.348 69.3834 107.48 69.4875Z" fill="#EB996E"/>
<path d="M115.289 81.9522L128.443 104.038C129.417 105.655 129.746 107.537 129.372 109.356C128.999 111.174 127.947 112.814 126.401 113.988C124.615 115.331 122.144 117.633 119.862 117.582C112.982 117.417 109.62 110.768 109.62 110.768L105.646 85.2978L115.289 81.9522Z" fill="#FFBE9D"/>
<path d="M105.646 81.9973C103.965 81.5562 103.015 79.8882 102.657 78.304C102.298 76.7197 102.329 75.0485 101.679 73.548C101.104 72.2214 100.05 71.1362 99.0547 70.0414C98.6093 69.6222 98.287 69.1046 98.1186 68.5377C98.0038 67.9613 98.2961 67.2722 98.9051 67.1112C99.3679 66.9921 99.8516 67.2014 100.269 67.4332C102.85 68.8257 104.826 71.007 105.856 73.6017C106.886 76.1965 106.907 79.0423 105.914 81.6495" fill="#FFBE9D"/>
<path d="M105.646 85.0434C105.62 84.979 105.603 84.912 105.594 84.8438C105.566 84.7118 105.528 84.5218 105.486 84.2642C105.406 83.7586 105.308 83.0277 105.242 82.1164C105.176 81.2052 105.117 80.1233 105.016 78.9254C104.931 77.6258 104.698 76.3382 104.32 75.084C104.229 74.762 104.09 74.4722 103.972 74.1695C103.854 73.8668 103.701 73.5867 103.537 73.3194C103.22 72.8013 102.872 72.3003 102.493 71.8189C101.762 70.8915 101.136 69.9867 100.896 69.1076L100.955 69.1527L98.3866 68.9756L97.6906 68.9177C97.6084 68.9143 97.5268 68.9036 97.447 68.8855C97.5279 68.8777 97.6096 68.8777 97.6906 68.8855L98.3866 68.908L100.958 69.0336H101.004V69.0754C101.251 69.9255 101.87 70.8046 102.608 71.7287C103 72.2115 103.36 72.7158 103.687 73.2389C103.857 73.5158 103.982 73.8121 104.132 74.1083C104.282 74.4045 104.39 74.7137 104.48 75.0357C104.863 76.2965 105.096 77.5921 105.176 78.8997C105.273 80.1039 105.308 81.1859 105.367 82.0971C105.427 83.0084 105.496 83.7361 105.552 84.2449C105.584 84.4831 105.609 84.6763 105.625 84.8245C105.642 84.8964 105.649 84.9699 105.646 85.0434Z" fill="#EB996E"/>
<path d="M91.1307 42.3945C91.1795 42.3945 91.082 42.7165 90.7236 42.9451C90.3652 43.1737 90.0032 43.1125 90.0276 43.0707C90.052 43.0288 90.3338 42.9934 90.6366 42.8034C90.9394 42.6134 91.082 42.3719 91.1307 42.3945Z" fill="#EB996E"/>
<path d="M52.4819 37.9702C53.7834 31.8844 56.2925 25.6312 61.5543 21.7897C66.2418 18.354 73.2157 16.8921 79.1839 17.1078C82.1211 17.2109 85.4479 18.457 88.0092 19.7901C91.524 21.619 93.0204 25.3414 94.7256 28.7224C98.1395 35.4844 97.7393 44.6839 95.4495 47.2438L64.8637 62.3005C59.4315 59.7052 53.5189 56.16 52.0643 50.6667C51.076 46.925 51.6711 41.7473 52.4819 37.9702Z" fill="#E0E0E0"/>
<path d="M63.858 26.8805L83.1198 21.574C89.3281 20.7207 93.7999 27.663 94.4576 33.4365C95.1919 39.8539 95.8148 47.7139 95.2093 52.5472C93.9948 62.2651 86.0882 64.8218 86.0882 64.8218L86.1509 67.3012L87.348 73.4804C82.8762 77.8435 67.7138 75.6796 63.416 69.3105L60.7295 30.4515C60.6725 29.6018 60.9624 28.7633 61.5418 28.102C62.1212 27.4407 62.9478 27.0048 63.858 26.8805Z" fill="#FFBE9D"/>
<path d="M91.2839 41.3319C91.2994 41.6525 91.1795 41.9662 90.9496 42.2065C90.7197 42.4469 90.3978 42.5951 90.052 42.6199C89.8823 42.6391 89.7102 42.6267 89.5458 42.5834C89.3813 42.5401 89.228 42.4667 89.0947 42.3677C88.9614 42.2686 88.8508 42.1459 88.7696 42.0067C88.6884 41.8676 88.6381 41.7147 88.6217 41.5573C88.6062 41.2366 88.7261 40.923 88.956 40.6826C89.1859 40.4423 89.5078 40.294 89.8536 40.2693C90.0234 40.2496 90.1957 40.2617 90.3603 40.3049C90.5249 40.348 90.6785 40.4213 90.8119 40.5204C90.9453 40.6195 91.0558 40.7424 91.1369 40.8818C91.218 41.0212 91.268 41.1743 91.2839 41.3319Z" fill="#263238"/>
<path d="M92.8012 37.5902C92.6446 37.7577 91.5971 37.104 90.1598 37.1652C88.7226 37.2264 87.6925 37.9316 87.529 37.777C87.4489 37.7062 87.6055 37.4067 88.051 37.0815C88.6533 36.6576 89.3827 36.4169 90.139 36.3924C90.8875 36.3589 91.6279 36.5485 92.2513 36.9334C92.7176 37.2296 92.8812 37.5162 92.8012 37.5902Z" fill="#263238"/>
<path d="M78.2165 41.7602C78.2311 42.0806 78.1109 42.3938 77.8812 42.634C77.6515 42.8742 77.3301 43.0226 76.9846 43.0482C76.8149 43.0674 76.6428 43.055 76.4783 43.0116C76.3139 42.9683 76.1605 42.895 76.0272 42.796C75.8939 42.6969 75.7834 42.5742 75.7022 42.435C75.621 42.2958 75.5707 42.143 75.5543 41.9856C75.5397 41.6651 75.6599 41.3519 75.8896 41.1117C76.1193 40.8716 76.4407 40.7231 76.7862 40.6976C76.956 40.6779 77.1283 40.69 77.2929 40.7331C77.4575 40.7763 77.6111 40.8496 77.7445 40.9487C77.8779 41.0478 77.9884 41.1707 78.0695 41.3101C78.1506 41.4495 78.2006 41.6026 78.2165 41.7602Z" fill="#263238"/>
<path d="M78.648 38.3953C78.4879 38.5627 77.4439 37.909 76.0032 37.9702C74.5625 38.0314 73.5394 38.7366 73.3758 38.5788C73.2958 38.5112 73.4489 38.2117 73.8978 37.8833C74.5009 37.4607 75.2299 37.2202 75.9858 37.1942C76.7339 37.1645 77.4731 37.3538 78.0982 37.7352C78.5749 38.0346 78.7385 38.318 78.648 38.3953Z" fill="#263238"/>
<path d="M84.3378 48.0681C84.3378 47.9941 85.2182 47.8137 86.659 47.5883C87.007 47.5368 87.355 47.4563 87.4211 47.2213C87.4872 46.9862 87.3271 46.6127 87.1287 46.2231L85.9247 43.676C84.2473 40.0471 83.0154 37.0557 83.172 36.9945C83.3286 36.9334 84.8215 39.8249 86.4989 43.4539C86.9025 44.349 87.2923 45.2023 87.6612 46.0299C87.8178 46.4098 88.0753 46.8381 87.9117 47.3565C87.8641 47.4786 87.7871 47.5891 87.6863 47.6795C87.5856 47.7699 87.464 47.8378 87.3306 47.8781C87.1285 47.9366 86.9192 47.9713 86.7077 47.9812C85.26 48.1035 84.3482 48.1454 84.3378 48.0681Z" fill="#263238"/>
<path d="M86.1161 64.8798L86.1509 67.2883C75.7527 68.5988 71.9873 61.9818 71.9873 61.9818C76.3161 64.1394 81.2074 65.1427 86.1161 64.8798Z" fill="#EB996E"/>
<path d="M79.692 50.7408C79.8882 50.4371 80.1623 50.183 80.4902 50.001C80.818 49.819 81.1893 49.7147 81.5712 49.6975C82.1039 49.6417 82.643 49.7189 83.1326 49.9211C83.6221 50.1232 84.0443 50.4429 84.3552 50.847C84.6127 51.1078 84.6266 51.8742 84.5362 52.0899C84.4457 52.3057 84.5188 52.1994 84.3448 52.3508C83.7253 52.9046 83.0711 53.4552 82.2568 53.671C81.8198 53.7926 81.3534 53.7891 80.9186 53.6609C80.4839 53.5328 80.1012 53.2859 79.8208 52.9529C79.583 52.6302 79.4453 52.2534 79.4226 51.8635C79.3999 51.4735 79.4931 51.0852 79.692 50.7408Z" fill="#EB996E"/>
<path d="M80.1444 49.1565C80.3776 49.134 80.4472 50.5797 81.8322 51.5554C83.2173 52.5311 84.8737 52.3057 84.8946 52.5053C84.919 52.5955 84.5466 52.8015 83.8506 52.8466C82.9363 52.8946 82.033 52.6426 81.2998 52.135C80.595 51.6467 80.1232 50.9238 79.9843 50.1193C79.8799 49.5171 80.04 49.1533 80.1444 49.1565Z" fill="#263238"/>
<path d="M79.1421 34.103C79.0169 34.4701 77.5727 34.3574 75.8918 34.6117C74.211 34.8661 72.8642 35.3459 72.6241 35.0303C72.5197 34.879 72.7389 34.528 73.2749 34.1545C73.9905 33.696 74.8095 33.3942 75.6699 33.272C76.5303 33.1498 77.4095 33.2104 78.2408 33.4493C78.8707 33.6586 79.1978 33.9291 79.1421 34.103Z" fill="#E0E0E0"/>
<path d="M92.0669 33.0082C91.8268 33.3302 90.8211 33.0436 89.6309 33.0758C88.4407 33.108 87.4385 33.3656 87.1949 33.0758C87.087 32.9245 87.2297 32.6154 87.6577 32.3127C88.2353 31.9466 88.9171 31.7473 89.6171 31.7398C90.317 31.7324 91.0037 31.9172 91.5901 32.2708C92.0182 32.5477 92.1713 32.844 92.0669 33.0082Z" fill="#E0E0E0"/>
<path d="M63.9903 42.1111C63.8441 42.0531 58.116 40.5752 58.3735 45.9751C58.6311 51.375 64.4253 50.013 64.4287 49.8584C64.4322 49.7039 63.9903 42.1111 63.9903 42.1111Z" fill="#FFBE9D"/>
<path d="M62.5495 47.8749C62.5251 47.8588 62.4521 47.9458 62.285 48.0263C62.048 48.1316 61.776 48.1477 61.5264 48.0714C60.9035 47.8878 60.3397 47.0055 60.2666 46.0363C60.2289 45.5749 60.3038 45.1116 60.4859 44.6807C60.532 44.5099 60.6223 44.3521 60.749 44.2209C60.8757 44.0896 61.035 43.9888 61.2132 43.9272C61.3289 43.894 61.4535 43.8994 61.5653 43.9423C61.6772 43.9853 61.7693 44.0631 61.8257 44.1623C61.9092 44.3072 61.8779 44.4167 61.9092 44.4263C61.9405 44.436 62.031 44.3297 61.9718 44.1043C61.9323 43.9746 61.8465 43.8611 61.7282 43.7823C61.5625 43.6772 61.3592 43.6356 61.161 43.6664C60.924 43.72 60.7058 43.829 60.5273 43.9829C60.3488 44.1368 60.2159 44.3305 60.1413 44.5455C59.9151 45.0221 59.8183 45.5428 59.8595 46.0621C59.9499 47.1472 60.6007 48.139 61.4533 48.3161C61.6113 48.3509 61.7757 48.3528 61.9346 48.3216C62.0935 48.2904 62.2429 48.2269 62.372 48.1358C62.546 48.007 62.5704 47.8846 62.5495 47.8749Z" fill="#EB996E"/>
<path d="M95.004 34.937C94.1583 33.401 92.5889 32.3127 90.9359 31.5141C89.2829 30.7156 87.5081 30.1521 85.8655 29.3406C82.0538 27.4427 79.1358 24.3069 77.6736 20.5371C80.4889 19.0753 84.0629 19.1139 87.0035 20.3439C89.9441 21.574 92.2617 23.8859 93.6955 26.5746C95.1293 29.2633 95.7278 32.2579 95.8113 35.2461" fill="#E0E0E0"/>
<path d="M62.0136 25.4959C66.1896 21.5708 74.2319 19.2105 79.9147 20.8012C79.2535 25.3639 75.7387 30.5803 72.6311 34.1674C69.5234 37.7545 67.7591 43.9755 60.5416 42.1272C60.0439 41.9984 59.4976 42.4299 59.0452 42.2045C58.6856 41.974 58.4285 41.6309 58.3213 41.2385C57.3131 38.554 57.1243 35.6643 57.7757 32.887C58.4271 30.1096 59.8934 27.5522 62.0136 25.4959Z" fill="#E0E0E0"/>
<path d="M94.9135 41.4961C95.256 41.5442 95.606 41.5143 95.9332 41.4092C96.8463 41.1332 97.6211 40.5615 98.1151 39.7992C98.7868 38.8654 99.0443 37.4872 98.8529 36.0479C98.7555 35.2948 98.5902 34.5505 98.3587 33.8229C97.3114 30.2781 95.3779 27.011 92.7142 24.2852C92.0908 23.6464 91.4273 23.0421 90.7271 22.4756L90.132 22.0441C90.0664 21.9886 89.9926 21.942 89.9128 21.9056C90.1413 22.1345 90.3854 22.3496 90.6436 22.5496C91.1064 22.9779 91.792 23.5865 92.5506 24.4108C94.5438 26.5482 96.1332 28.9812 97.2521 31.6075C97.5653 32.3803 97.8541 33.1402 98.0734 33.8905C98.3033 34.6048 98.472 35.3348 98.578 36.0736C98.7763 37.4743 98.5501 38.7945 97.9307 39.6929C97.4716 40.4309 96.7513 40.9996 95.8914 41.3029C95.5735 41.3982 95.2458 41.4629 94.9135 41.4961Z" fill="#E0E0E0"/>
<path d="M44.892 26.668C44.8154 24.1371 45.4662 21.4935 47.2549 19.584C49.764 16.9243 54.2497 16.1966 57.6705 17.71C61.0914 19.2234 63.2594 22.7718 63.1654 26.2848C63.0715 29.7978 60.8408 33.137 57.6253 34.9981L55.2137 34.8275C52.8473 36.0801 49.6457 35.3524 47.7247 33.5685C45.8037 31.7846 44.9825 29.1893 44.892 26.668Z" fill="#E0E0E0"/>
<path d="M59.5289 24.6974C59.5289 24.6974 59.5671 24.765 59.6576 24.8745C59.7481 24.9839 59.8804 25.1546 60.0787 25.3478C60.6234 25.9066 61.2365 26.4047 61.9057 26.8322C64.1298 28.2777 66.836 28.9463 69.5428 28.7193C72.2496 28.4924 74.7817 27.3844 76.6887 25.5925C77.2641 25.0611 77.7699 24.4688 78.1956 23.828C78.3137 23.6553 78.4218 23.4769 78.5192 23.2934C78.561 23.2327 78.5927 23.1665 78.6132 23.097C78.554 23.0616 78.0146 24.1532 76.553 25.4669C75.6988 26.2303 74.7265 26.8716 73.6681 27.37C71.0649 28.6267 68.0307 28.8813 65.2256 28.0784C64.0875 27.7645 63.0061 27.2957 62.0171 26.6873C61.1148 26.1063 60.2808 25.4393 59.5289 24.6974Z" fill="white"/>
<path d="M57.0163 32.1259C57.0163 32.1259 57.0789 32.1936 57.2181 32.303C57.4168 32.4683 57.6273 32.621 57.848 32.7603C58.6549 33.2821 59.5482 33.6791 60.4928 33.9356C61.8971 34.3194 63.3671 34.4538 64.8254 34.3316C66.6172 34.1897 68.3596 33.7144 69.948 32.9341C71.5039 32.1329 72.9133 31.1092 74.124 29.9009C75.1187 28.919 76.0069 27.8491 76.7757 26.7067C77.2992 25.9422 77.7755 25.1509 78.2025 24.3368C78.3557 24.0534 78.4601 23.8216 78.5505 23.6702C78.5952 23.5944 78.628 23.5131 78.648 23.4287C78.5884 23.495 78.5392 23.5687 78.5018 23.6477L78.1225 24.2917C77.7954 24.852 77.3047 25.6569 76.6331 26.6068C75.8489 27.7245 74.9542 28.7723 73.9604 29.7367C72.7493 30.9184 71.3491 31.9208 69.8088 32.7088C68.2554 33.4711 66.555 33.9427 64.8045 34.0966C63.3777 34.2305 61.9363 34.1214 60.552 33.7746C59.6189 33.5345 58.7289 33.1689 57.9107 32.6894C57.3295 32.332 57.0337 32.1066 57.0163 32.1259Z" fill="white"/>
<path d="M47.147 24.2144C47.147 24.2144 47.2236 24.3399 47.408 24.5364C47.6672 24.8125 47.9513 25.0678 48.2572 25.2995C48.709 25.6492 49.1948 25.9597 49.7083 26.2269C50.3398 26.5497 51.0042 26.814 51.6919 27.0158C52.3845 27.2064 53.0954 27.3347 53.8147 27.3989C54.4005 27.4479 54.9898 27.4479 55.5756 27.3989C55.969 27.3662 56.3589 27.3037 56.7414 27.2122C56.8868 27.1912 57.027 27.1465 57.1555 27.0802C57.1555 27.0351 56.543 27.1703 55.5617 27.2186C52.9773 27.3427 50.4294 26.6135 48.372 25.161C47.596 24.6072 47.1818 24.1822 47.147 24.2144Z" fill="white"/>
<path d="M45.1077 27.6662C45.0412 27.8034 45.0206 27.956 45.0486 28.1041C45.0905 28.5135 45.2624 28.9023 45.5427 29.2215C45.9658 29.6818 46.5082 30.0352 47.1192 30.2486C47.8455 30.5223 48.5998 30.7273 49.3707 30.8604C50.7693 31.1039 52.2036 31.1137 53.6059 30.8894C54.03 30.8228 54.4485 30.7292 54.8587 30.6093C55.0118 30.575 55.1584 30.5197 55.2937 30.4451C55.2937 30.4 54.6429 30.5867 53.5781 30.7123C52.1891 30.884 50.7796 30.8503 49.4021 30.6125C47.8187 30.3195 46.3501 29.8655 45.675 29.1088C45.4016 28.821 45.2166 28.4708 45.1391 28.0945C45.1043 27.824 45.1321 27.6694 45.1077 27.6662Z" fill="white"/>
<path d="M80.0748 48.3193C79.872 48.3327 79.6685 48.3327 79.4658 48.3193C78.989 48.3365 78.5186 48.4268 78.0738 48.5866C77.6241 48.7498 77.2085 48.9841 76.8453 49.2789C76.5669 49.5075 76.4208 49.6749 76.3964 49.6588C76.473 49.4819 76.592 49.3233 76.7444 49.1951C77.0976 48.8608 77.5234 48.5996 77.9937 48.4288C78.4634 48.2559 78.9679 48.179 79.4727 48.2034C79.6805 48.1976 79.8868 48.2373 80.0748 48.3193Z" fill="#EB996E"/>
<path d="M76.5182 43.8402C76.2401 43.9757 75.9198 44.0176 75.612 43.9589C75.3042 43.9002 75.028 43.7444 74.8304 43.5182C75.0976 43.6257 75.3706 43.7202 75.6482 43.8016C76.1111 43.8853 76.5008 43.7919 76.5182 43.8402Z" fill="#EB996E"/>
<path d="M68.1384 69.3105C68.2002 69.2357 68.2506 69.1533 68.288 69.0657C68.3446 68.8134 68.3014 68.5505 68.1662 68.3251C68.0862 68.1835 67.9713 68.0289 67.8634 67.855C67.7319 67.6679 67.6486 67.4552 67.6198 67.2336C67.5746 66.7184 68.0514 66.3255 68.1036 65.8586C68.1136 65.6253 68.032 65.3966 67.8739 65.2146C67.7312 65.0246 67.5572 64.8508 67.4111 64.6672C67.1708 64.3984 67.0314 64.0647 67.0139 63.7163C66.9963 63.3678 67.1015 63.0236 67.3136 62.7352C67.37 62.65 67.446 62.5775 67.5363 62.5227C67.5363 62.5227 67.4737 62.6096 67.3728 62.7706C67.2363 62.9977 67.1599 63.2516 67.1501 63.5112C67.1324 63.8937 67.273 64.2679 67.5433 64.5577C67.686 64.7316 67.8635 64.8991 68.0201 65.1051C68.2027 65.319 68.2966 65.5863 68.2845 65.8586C68.2356 66.1166 68.134 66.3635 67.9853 66.5863C67.8572 66.7721 67.7884 66.9875 67.7869 67.2078C67.8217 67.6232 68.1349 67.9452 68.2811 68.2607C68.4198 68.5118 68.446 68.8033 68.3541 69.0722C68.2636 69.275 68.1384 69.3169 68.1384 69.3105Z" fill="#EB996E"/>
<path d="M70.4665 68.8114C70.4665 68.8114 70.5048 68.7277 70.5361 68.5763C70.5748 68.3602 70.5532 68.1386 70.4735 67.9323C70.3935 67.6618 70.2021 67.3688 70.0698 66.9953C69.9959 66.7946 69.9697 66.5815 69.9933 66.3706C70.0281 66.1517 70.122 65.9488 70.1742 65.7459C70.2046 65.6544 70.2125 65.5578 70.1975 65.4632C70.1824 65.3685 70.1448 65.2781 70.0872 65.1985C69.9626 65.0457 69.8149 64.9101 69.6487 64.796C69.4872 64.6822 69.3462 64.5452 69.2311 64.3903C69.1353 64.2474 69.0791 64.0848 69.0676 63.917C69.0477 63.6782 69.1178 63.4404 69.2659 63.244C69.3738 63.1088 69.4608 63.0637 69.4678 63.0701C69.4747 63.0766 69.4051 63.1442 69.3251 63.2794C69.2079 63.4755 69.1627 63.7015 69.1963 63.9234C69.2139 64.0695 69.2688 64.2097 69.3564 64.3324C69.4704 64.4698 69.6052 64.5912 69.7566 64.693C69.9381 64.8138 70.0988 64.9593 70.2334 65.1245C70.305 65.2225 70.3525 65.3338 70.3723 65.4507C70.3922 65.5676 70.384 65.6871 70.3482 65.8007C70.2925 66.0261 70.1986 66.2193 70.1707 66.4093C70.1461 66.5967 70.1663 66.7869 70.2299 66.9663C70.3447 67.3173 70.5257 67.6264 70.5988 67.9323C70.6692 68.1596 70.6692 68.4006 70.5988 68.6278C70.5501 68.7534 70.4735 68.8178 70.4665 68.8114Z" fill="#EB996E"/>
<path d="M52.6907 37.2296C52.7183 37.2318 52.7454 37.2383 52.7707 37.2489L53.0039 37.3198C53.2092 37.3777 53.498 37.4969 53.8913 37.5935C54.9921 37.8974 56.1271 38.0832 57.2738 38.1473C58.9731 38.2452 60.6786 38.1074 62.3337 37.7384C64.3621 37.2896 66.2988 36.5404 68.0688 35.5198C69.8266 34.4805 71.4274 33.2299 72.8294 31.8007C73.9751 30.6341 75.008 29.3767 75.9162 28.0429C76.6957 26.9063 77.256 25.9435 77.6249 25.2705C77.8128 24.9485 77.945 24.6716 78.0459 24.4977L78.1573 24.2949C78.1676 24.2716 78.1817 24.2498 78.1991 24.2305C78.1991 24.2305 78.1991 24.2562 78.1747 24.3013L78.0773 24.5106C77.9903 24.6909 77.8685 24.9614 77.6875 25.2995C77.1886 26.2617 76.6333 27.1979 76.0241 28.1041C75.1281 29.4553 74.0995 30.7273 72.9512 31.9037C71.5471 33.3519 69.9361 34.6162 68.1627 35.6615C66.3765 36.6911 64.4205 37.4437 62.372 37.8897C60.6996 38.2543 58.9771 38.3813 57.2634 38.2664C56.1098 38.1905 54.9704 37.9851 53.8704 37.6546C53.5716 37.5675 53.2777 37.4665 52.9899 37.352L52.7637 37.265C52.715 37.2457 52.6872 37.2328 52.6907 37.2296Z" fill="#263238"/>
<path d="M61.2793 22.5947C61.2793 22.5947 61.248 22.6398 61.1714 22.7106L60.8234 23.0101C60.6773 23.1389 60.4998 23.2999 60.3014 23.4899C60.1031 23.6799 59.8629 23.8924 59.6228 24.1339C59.1287 24.6201 58.5788 25.2287 57.9837 25.9274C56.7191 27.4501 55.6516 29.1047 54.803 30.8572C54.4167 31.6655 54.107 32.4093 53.8739 33.0436C53.7486 33.3656 53.6616 33.649 53.5746 33.9034C53.4876 34.1577 53.418 34.3767 53.3658 34.5474L53.237 34.9595C53.226 35.0105 53.206 35.0594 53.1779 35.1044C53.1801 35.0533 53.1883 35.0026 53.2022 34.9531C53.2266 34.8372 53.2579 34.6987 53.2962 34.5313C53.3345 34.3638 53.3971 34.1223 53.4771 33.8647C53.5572 33.6071 53.6337 33.3109 53.7521 32.9953C54.0096 32.244 54.3093 31.5056 54.6499 30.7832C55.0742 29.8999 55.5529 29.0398 56.0837 28.2072C56.6218 27.3804 57.2121 26.5837 57.8515 25.8212C58.3773 25.2005 58.9383 24.6061 59.5323 24.0405C59.7794 23.7926 60.023 23.5865 60.2283 23.3965C60.4337 23.2065 60.6216 23.0552 60.7782 22.936L61.1262 22.6559C61.1739 22.629 61.2254 22.6084 61.2793 22.5947Z" fill="#263238"/>
<path d="M95.0701 29.624C95.0043 29.6188 94.939 29.608 94.8753 29.5918L94.3254 29.4726C94.0888 29.4243 93.7965 29.3535 93.4659 29.2537C93.1353 29.1539 92.7525 29.0605 92.3418 28.9124C91.9312 28.7642 91.4788 28.6226 91.009 28.4261C90.5392 28.2297 90.0381 28.014 89.5195 27.7821C88.4042 27.2417 87.332 26.6283 86.311 25.9467C85.2987 25.2547 84.3426 24.4949 83.4504 23.6734C83.0467 23.287 82.6605 22.9232 82.3299 22.5561C81.9993 22.189 81.6895 21.8509 81.4251 21.5289C81.1606 21.2069 80.9309 20.9042 80.7291 20.6402C80.5272 20.3761 80.3811 20.1443 80.2419 19.9479L79.953 19.5003C79.916 19.4502 79.8856 19.3961 79.8625 19.3393C79.8625 19.3393 79.9113 19.3844 79.9843 19.4842L80.301 19.9125C80.4333 20.1024 80.6003 20.3311 80.8126 20.5887C81.0249 20.8463 81.2406 21.1457 81.5086 21.4548C81.7765 21.764 82.0793 22.0988 82.4273 22.4659C82.7753 22.833 83.172 23.184 83.5687 23.5511C84.462 24.3618 85.4142 25.1149 86.4189 25.8051C87.4318 26.4817 88.4934 27.0939 89.5961 27.6372C90.1111 27.8755 90.5949 28.1106 91.0681 28.2812C91.5414 28.4519 91.9799 28.6419 92.3871 28.7868C92.7942 28.9317 93.1701 29.0444 93.4972 29.1506C93.8243 29.2569 94.1097 29.3342 94.3463 29.3954L94.8857 29.5435C94.9509 29.5622 95.013 29.5893 95.0701 29.624Z" fill="#263238"/>
<path d="M58.2552 43.3702C58.1857 43.4334 58.1073 43.4875 58.0221 43.5312C57.8689 43.6246 57.6393 43.7534 57.3469 43.895C56.5791 44.264 55.7705 44.5554 54.9353 44.7644C54.0999 44.9734 53.2421 45.0965 52.3775 45.1315C52.0295 45.1315 51.7755 45.1315 51.591 45.1315C51.4943 45.1364 51.3975 45.1243 51.3057 45.0961C51.3057 45.0703 51.7128 45.0671 52.3497 45.0124C54.0555 44.8783 55.7218 44.464 57.2704 43.7888C57.5895 43.6314 57.9183 43.4917 58.2552 43.3702Z" fill="#263238"/>
<path d="M77.256 124.656L55.158 117.099L52.7916 121.503C52.7916 121.503 47.2619 123.648 46.98 130.452L50.3451 135.259L76.8036 136.206L77.256 124.656Z" fill="#FFBE9D"/>
<path d="M101.421 129.563C99.8969 128.111 95.7418 126.742 93.605 126.292L96.142 131.299C96.838 131.798 99.5176 132.677 100.401 132.699C101.285 132.722 102.232 132.184 102.343 131.373C102.441 130.687 101.943 130.059 101.421 129.563Z" fill="#FFBE9D"/>
<path d="M78.6967 113.315C78.4544 113.546 78.3188 113.856 78.3188 114.178C78.3188 114.5 78.4544 114.81 78.6967 115.041L88.1658 123.928L100.172 135.172L103.046 136.312L102.023 133.437L80.6003 113.305C80.4761 113.187 80.3273 113.092 80.1629 113.028C79.9985 112.964 79.8218 112.93 79.6433 112.93C79.4648 112.93 79.2881 112.964 79.1237 113.028C78.9593 113.092 78.8106 113.187 78.6863 113.305L78.6967 113.315Z" fill="#263238"/>
<path d="M77.256 124.614L77.6319 124.575L85.9839 123.709L88.0719 123.123C88.9824 122.867 89.9652 122.954 90.8071 123.365C92.9404 124.398 96.9911 126.556 98.4457 128.642C98.6806 128.983 98.8186 129.374 98.8472 129.777C98.8758 130.181 98.794 130.584 98.6093 130.951L98.0246 132.126C98.0246 132.126 99.3018 133.031 98.4005 134.841C97.4992 136.65 96.048 136.37 96.048 136.37C95.2201 137.221 94.0699 137.745 92.836 137.832H90.8036C90.2837 138.393 89.564 138.763 88.7748 138.875C87.4211 139.085 82.1384 138.032 81.6095 137.867C81.352 137.79 75.6587 135.72 75.6587 135.72L77.256 124.614Z" fill="#FFBE9D"/>
<path d="M94.6212 125.535C94.9957 125.678 95.3471 125.869 95.6652 126.102C96.4577 126.619 97.1995 127.2 97.8819 127.837C98.077 128.024 98.2561 128.224 98.4179 128.436C98.5629 128.643 98.6677 128.872 98.7276 129.112C98.8419 129.51 98.8679 129.925 98.8041 130.333C98.7654 130.606 98.6821 130.872 98.5571 131.122C98.5207 131.217 98.4639 131.305 98.39 131.379C98.5268 131.037 98.6236 130.681 98.6789 130.32C98.7379 129.886 98.6847 129.445 98.5238 129.033C98.3629 128.622 98.0988 128.252 97.7532 127.953C97.0753 127.324 96.3521 126.737 95.5886 126.198C95.004 125.776 94.6107 125.557 94.6212 125.535Z" fill="#EB996E"/>
<path d="M97.8889 131.901C97.7761 131.932 97.6583 131.944 97.5409 131.936C97.2244 131.945 96.9076 131.928 96.5944 131.885C95.5597 131.737 94.563 131.415 93.6538 130.935C92.7503 130.457 91.8964 129.903 91.1029 129.28C90.7932 129.045 90.5531 128.851 90.3861 128.713C90.2944 128.647 90.2125 128.57 90.1425 128.484C90.5052 128.699 90.8538 128.933 91.1865 129.186C91.9966 129.78 92.8527 130.318 93.7477 130.796C94.6419 131.266 95.6128 131.598 96.6222 131.778C97.3948 131.898 97.8889 131.872 97.8889 131.901Z" fill="#EB996E"/>
<path d="M96.65 136.303C96.5491 136.328 96.4439 136.334 96.3403 136.322C96.0588 136.313 95.7789 136.277 95.5051 136.216C94.6179 135.972 93.7561 135.655 92.9299 135.269C91.9451 134.854 91.0611 134.47 90.4243 134.187C90.0723 134.048 89.7336 133.882 89.4116 133.691C89.7778 133.795 90.1349 133.924 90.48 134.078C91.1273 134.335 92.0216 134.702 93.003 135.118C93.8229 135.497 94.6692 135.825 95.5364 136.1C96.2115 136.28 96.6535 136.274 96.65 136.303Z" fill="#EB996E"/>
<path d="M90.3303 137.549C89.8694 137.494 89.4266 137.348 89.0323 137.12C88.6108 136.939 88.2359 136.677 87.9326 136.351C87.9639 136.312 88.4581 136.644 89.1193 136.972C89.7805 137.301 90.3477 137.494 90.3303 137.549Z" fill="#EB996E"/>
<path d="M80.0156 124.269C79.7507 124.374 79.4724 124.448 79.1874 124.488C78.5076 124.624 77.8196 124.722 77.1272 124.781C76.4334 124.843 75.7361 124.866 75.0392 124.849C74.7507 124.857 74.4621 124.833 74.1797 124.778C74.4639 124.737 74.7517 124.721 75.0392 124.73C75.5682 124.73 76.299 124.685 77.1029 124.617C77.9068 124.55 78.6306 124.45 79.1561 124.372C79.4383 124.312 79.7262 124.278 80.0156 124.269Z" fill="#EB996E"/>
<path d="M62.8279 119.723C63.0889 118.341 58.1056 114.027 54.6604 115.656L55.0536 113.534L53.4702 70.3248C53.4702 70.3248 40.6499 71.2908 35.409 84.6184C30.1681 97.9459 25.5884 113.988 26.8969 120.486C28.2054 126.984 30.8084 131.875 34.7408 134.032C38.6732 136.19 49.4438 136.187 49.4438 136.187L62.8279 119.723Z" fill="#3273DB"/>
<path d="M56.724 115.395C56.6643 115.413 56.6023 115.424 56.5396 115.427L56.0106 115.489C55.7304 115.511 55.4517 115.546 55.1754 115.595C54.8518 115.646 54.4794 115.688 54.0792 115.782L53.4459 115.914C53.2266 115.962 53.0004 116.029 52.7499 116.087C52.2801 116.2 51.7929 116.368 51.2743 116.532C50.168 116.922 49.0973 117.393 48.0727 117.942C47.0552 118.505 46.0891 119.143 45.1843 119.852C44.7772 120.174 44.3839 120.496 44.0499 120.818C43.8793 120.979 43.7019 121.14 43.5557 121.281L43.152 121.739C42.8701 122.019 42.6509 122.299 42.456 122.537C42.2611 122.775 42.0802 122.985 41.9514 123.159C41.8227 123.332 41.7217 123.452 41.6382 123.561C41.5547 123.671 41.5234 123.696 41.5164 123.693C41.5414 123.64 41.5717 123.589 41.6069 123.542L41.8923 123.123C42.0398 122.9 42.2013 122.685 42.376 122.479C42.5743 122.238 42.7901 121.948 43.072 121.664L43.5 121.204C43.6462 121.046 43.8202 120.882 43.9872 120.731C44.3352 120.409 44.7145 120.087 45.1217 119.732C46.0286 119.014 46.9995 118.368 48.024 117.8C49.0583 117.245 50.1423 116.774 51.2639 116.39C51.7859 116.229 52.2766 116.068 52.7533 115.955C52.99 115.901 53.2162 115.836 53.4493 115.791L54.0897 115.669C54.4968 115.582 54.8727 115.55 55.1998 115.505C55.4788 115.465 55.7599 115.438 56.0419 115.424L56.5744 115.398C56.624 115.392 56.6742 115.391 56.724 115.395Z" fill="#263238"/>
<path d="M53.759 115.688C53.5537 115.687 53.3487 115.67 53.1466 115.637C52.7533 115.592 52.1861 115.53 51.4831 115.466C50.0911 115.331 48.1319 115.199 45.9743 115.189C43.8167 115.179 41.8714 115.292 40.4654 115.414C39.7694 115.472 39.1918 115.527 38.7985 115.569C38.5962 115.601 38.3912 115.616 38.186 115.614C38.3852 115.566 38.5874 115.529 38.7916 115.505C39.1813 115.443 39.7486 115.369 40.4515 115.295C44.1226 114.909 47.8303 114.926 51.497 115.347C52.193 115.427 52.7672 115.508 53.157 115.572C53.3603 115.598 53.5614 115.637 53.759 115.688Z" fill="#263238"/>
<path d="M62.8279 119.723C62.8333 119.658 62.8333 119.594 62.8279 119.53C62.8071 119.344 62.7543 119.162 62.6713 118.992C62.3379 118.354 61.8637 117.788 61.2793 117.33C60.8753 116.993 60.4513 116.677 60.0091 116.384C59.4861 116.051 58.9025 115.809 58.2865 115.669C56.7982 115.367 55.2517 115.418 53.7904 115.817L53.6651 115.846L53.686 115.733C54.0897 113.273 54.5525 110.459 55.0397 107.477C55.4677 104.901 55.8714 102.473 56.2403 100.251C56.6092 98.0296 56.8075 96.0139 56.9676 94.3234C57.1277 92.6329 57.2043 91.258 57.2217 90.3081C57.2217 89.8347 57.2217 89.4644 57.2217 89.2165C57.2217 89.0974 57.2217 89.004 57.2217 88.9299C57.2178 88.8978 57.2178 88.8654 57.2217 88.8333C57.2327 88.8645 57.2386 88.8971 57.2391 88.9299C57.2391 89.004 57.2391 89.0974 57.2669 89.2133C57.2878 89.4644 57.3052 89.8347 57.3052 90.3081C57.3052 91.2741 57.253 92.6361 57.1068 94.3331C56.9607 96.03 56.7588 98.0457 56.4108 100.274C56.0628 102.502 55.6452 104.94 55.2241 107.506C54.7265 110.485 54.2602 113.302 53.8495 115.756L53.7451 115.672C55.2358 115.274 56.8112 115.23 58.3248 115.546C58.9543 115.697 59.5495 115.952 60.0822 116.297C60.5246 116.595 60.9476 116.918 61.3489 117.263C61.9425 117.732 62.4177 118.315 62.7409 118.973C62.8193 119.148 62.8652 119.334 62.8767 119.523C62.8766 119.592 62.8599 119.66 62.8279 119.723Z" fill="#263238"/>
<g opacity="0.3">
<path d="M53.759 115.743C51.1699 115.888 48.3824 116.248 46.023 117.243C43.6635 118.238 41.5581 119.871 40.4097 122.025C40.2927 122.212 40.2259 122.421 40.2149 122.637C40.2106 122.743 40.2417 122.848 40.304 122.937C40.3662 123.026 40.4566 123.096 40.5629 123.136C40.684 123.149 40.8069 123.137 40.9225 123.101C41.038 123.065 41.1435 123.005 41.231 122.927C42.5987 121.99 43.7819 120.843 45.0973 119.839C47.5938 117.866 50.5558 116.463 53.7451 115.743" fill="black"/>
</g>
<g opacity="0.3">
<path d="M53.759 115.688C59.4976 108.791 61.1888 98.767 57.3017 90.8426C56.7344 99.06 55.1406 107.319 53.759 115.688Z" fill="black"/>
</g>
<path d="M56.2438 86.1221C56.2264 86.1221 56.2055 85.8741 56.1428 85.4298C55.8312 83.0333 54.7106 80.7888 52.9406 79.0158C51.1705 77.2427 48.8412 76.0313 46.284 75.554C45.6156 75.4242 44.9373 75.3435 44.2552 75.3125C43.7749 75.2932 43.5035 75.2932 43.5035 75.2803C43.5672 75.266 43.6328 75.2595 43.6984 75.261C43.8271 75.261 44.015 75.2417 44.2586 75.261C44.9467 75.2667 45.6328 75.3303 46.3084 75.451C48.5601 75.8375 50.6484 76.8034 52.3337 78.2381C54.0191 79.6728 55.2331 81.5181 55.8366 83.5622C56.0252 84.1746 56.151 84.802 56.2124 85.4362C56.2403 85.6584 56.2403 85.8355 56.2472 85.9514C56.2513 86.0083 56.2501 86.0654 56.2438 86.1221Z" fill="#263238"/>
<path d="M55.7392 85.8613C55.7392 85.8613 55.68 85.8291 55.5861 85.7518L55.1754 85.4073C54.9979 85.2559 54.7822 85.0853 54.5177 84.8728C54.2532 84.6602 53.9679 84.4316 53.6233 84.1933C53.2788 83.9551 52.9273 83.6814 52.4958 83.4173C52.0643 83.1533 51.6328 82.8764 51.156 82.593C49.0665 81.387 46.8045 80.4581 44.4361 79.8335C43.8898 79.695 43.3713 79.5598 42.8771 79.4664C42.3829 79.373 41.9236 79.2796 41.4851 79.212C41.0466 79.1444 40.6777 79.0993 40.3402 79.0542C40.0026 79.0091 39.7103 78.9834 39.4737 78.9641L38.9203 78.9093C38.8554 78.9076 38.791 78.8979 38.7289 78.8803C38.7936 78.8727 38.8591 78.8727 38.9238 78.8803L39.4771 78.9029C39.7173 78.9029 40.0131 78.9254 40.3541 78.9641C40.6951 79.0027 41.0814 79.0285 41.506 79.0993C41.9305 79.1701 42.4003 79.2281 42.898 79.3344C43.3956 79.4406 43.9211 79.5533 44.4709 79.6853C45.6572 80.0018 46.8198 80.3901 47.9509 80.8478C49.0789 81.3164 50.1717 81.8543 51.2221 82.4578C51.6989 82.7476 52.1548 83.018 52.5619 83.3014C52.9691 83.5848 53.3449 83.8456 53.679 84.0967C54.0131 84.3479 54.3019 84.5894 54.5595 84.7987C54.817 85.008 55.0293 85.198 55.1998 85.359L55.5861 85.7228C55.6415 85.7646 55.6927 85.811 55.7392 85.8613Z" fill="white"/>
<path d="M56.5952 94.8129C56.5251 94.7743 56.4587 94.7301 56.3969 94.6809L55.847 94.2784C55.6104 94.1013 55.3215 93.8855 54.9735 93.6344C54.6255 93.3832 54.2427 93.1095 53.7938 92.8262C53.3449 92.5428 52.8681 92.2144 52.3322 91.8924C51.7963 91.5704 51.2186 91.2484 50.5922 90.8877C49.3568 90.2083 47.9683 89.5128 46.4684 88.8591C44.9685 88.2055 43.493 87.6806 42.1393 87.2491C41.4433 87.0398 40.8099 86.8337 40.194 86.6727C39.578 86.5117 39.0108 86.3507 38.4818 86.2348C37.9529 86.1189 37.4761 86.0094 37.055 85.9128C36.6339 85.8162 36.272 85.7518 35.9727 85.6971L35.2767 85.5683C35.1957 85.5574 35.1163 85.5379 35.0401 85.5103C35.1221 85.511 35.2037 85.5196 35.2837 85.5361L35.9797 85.6359C36.279 85.6778 36.6479 85.7357 37.0689 85.8194C37.49 85.9032 37.9807 85.9869 38.5062 86.1125C39.0317 86.238 39.6163 86.3636 40.2462 86.5343C40.8761 86.7049 41.5129 86.8885 42.1985 87.0946C43.6781 87.5627 45.1312 88.1 46.5519 88.7046C47.9666 89.3209 49.3464 90.0033 50.6862 90.7493C51.2952 91.1035 51.8833 91.4351 52.4262 91.7764C52.9691 92.1178 53.4423 92.4204 53.8808 92.7263C54.3193 93.0322 54.7056 93.3092 55.0466 93.5571C55.3877 93.805 55.673 94.024 55.9027 94.2011L56.4282 94.6294C56.4915 94.6842 56.5476 94.7458 56.5952 94.8129Z" fill="white"/>
<path d="M125.332 55.1645C133.967 52.8856 138.97 44.5611 136.507 36.5712C134.044 28.5814 125.048 23.9519 116.413 26.2309C107.778 28.5098 102.775 36.8343 105.238 44.8241C107.701 52.814 116.697 57.4435 125.332 55.1645Z" fill="#FAFAFA"/>
<path d="M137.193 41.1221C137.44 32.79 130.34 25.8504 121.335 25.6221C112.33 25.3937 104.83 31.963 104.583 40.2951C104.337 48.6271 111.436 55.5667 120.441 55.795C129.446 56.0234 136.946 49.4541 137.193 41.1221Z" fill="white"/>
<path d="M104.435 48.915C104.435 48.9311 104.609 48.9537 104.887 49.0857C105.279 49.275 105.597 49.572 105.799 49.9358C105.94 50.1815 106.021 50.4531 106.036 50.7311C106.046 51.0494 105.956 51.3635 105.778 51.6359C105.59 51.9594 105.299 52.2217 104.945 52.3877C104.59 52.5537 104.19 52.6155 103.797 52.5646C103.403 52.5138 103.036 52.3528 102.745 52.1034C102.453 51.8539 102.251 51.5279 102.166 51.169C102.072 50.8617 102.08 50.5355 102.187 50.232C102.284 49.9689 102.442 49.7283 102.65 49.5268C102.953 49.2306 103.346 49.0262 103.777 48.9408C103.938 48.9173 104.101 48.9023 104.264 48.8957C104.264 48.8957 104.219 48.8957 104.136 48.8764C104.084 48.8711 104.031 48.8711 103.979 48.8764C103.908 48.8774 103.837 48.8838 103.767 48.8957C103.312 48.9589 102.892 49.1592 102.573 49.4657C102.346 49.6726 102.174 49.9249 102.068 50.203C101.949 50.5271 101.936 50.8766 102.03 51.2077C102.128 51.5751 102.336 51.9098 102.629 52.1737C102.932 52.4712 103.335 52.6649 103.772 52.7234C104.209 52.7819 104.655 52.7016 105.037 52.4957C105.395 52.3167 105.693 52.0506 105.9 51.7261C106.084 51.4335 106.175 51.0985 106.161 50.7601C106.135 50.4008 106.005 50.0547 105.785 49.7574C105.565 49.4602 105.264 49.2227 104.912 49.0696C104.849 49.0392 104.782 49.0155 104.713 48.9988C104.665 48.9813 104.615 48.9694 104.564 48.9633L104.435 48.915Z" fill="#263238"/>
<path d="M104.532 40.6622C104.532 40.6622 104.532 40.5785 104.553 40.4174C104.574 40.2564 104.581 40.0117 104.602 39.6994C104.602 39.5384 104.623 39.3774 104.637 39.1681C104.651 38.9588 104.703 38.7656 104.741 38.5241C104.779 38.2826 104.821 38.0475 104.866 37.7867C104.886 37.6505 104.918 37.5159 104.96 37.3842C104.999 37.2458 105.04 37.1041 105.082 36.9592C105.464 35.5433 106.077 34.1893 106.899 32.9438C107.975 31.2852 109.385 29.8335 111.054 28.6677L111.75 28.1847C112 28.0333 112.261 27.8949 112.519 27.75L112.909 27.531C113.039 27.4549 113.173 27.3861 113.312 27.3249L114.161 26.9514C114.304 26.8902 114.447 26.8226 114.593 26.7647L115.045 26.6101L115.961 26.2881C116.274 26.1915 116.601 26.1303 116.921 26.0498L117.412 25.9371C117.492 25.9178 117.575 25.8952 117.655 25.8824L117.909 25.8469C118.59 25.7311 119.278 25.6579 119.97 25.628C120.318 25.628 120.666 25.5861 121.031 25.5926L122.11 25.6473C122.291 25.6473 122.458 25.6473 122.653 25.6795L123.196 25.7568C123.561 25.8147 123.93 25.8534 124.292 25.9242C125.029 26.0768 125.754 26.2747 126.463 26.5167L127.02 26.726C127.111 26.7582 127.201 26.7872 127.291 26.8226L127.552 26.9385L128.596 27.4119C128.944 27.5825 129.268 27.7854 129.609 27.9722C129.776 28.072 129.957 28.1557 130.114 28.2684L130.591 28.5904C131.239 29.0381 131.855 29.5242 132.435 30.0458L133.26 30.912L133.465 31.1245C133.531 31.1986 133.59 31.2759 133.653 31.3532L134.025 31.8168L134.398 32.2805L134.725 32.7764L135.052 33.2755L135.215 33.5267C135.264 33.6136 135.306 33.7038 135.355 33.7907C135.536 34.1449 135.72 34.4991 135.904 34.8533L136.343 35.9706C137.458 39.0571 137.452 42.3963 136.326 45.4793L135.88 46.5966L135.327 47.656L135.184 47.9201L135.021 48.1712L134.693 48.6703L134.363 49.163L133.98 49.6202L133.632 50.0807L133.444 50.3093L133.235 50.5218L132.404 51.3655C131.823 51.8867 131.204 52.3709 130.552 52.8145L130.072 53.1365C129.915 53.2459 129.724 53.3296 129.571 53.4295C129.223 53.6162 128.899 53.8159 128.555 53.9898L127.511 54.4566L127.25 54.5726C127.159 54.608 127.069 54.6338 126.978 54.666L126.439 54.8495C125.729 55.0879 125.002 55.2826 124.264 55.4323C123.898 55.5032 123.53 55.5418 123.168 55.5965L122.625 55.6706C122.444 55.6931 122.259 55.6931 122.078 55.7028L121 55.7511C120.652 55.7511 120.304 55.7253 119.938 55.7125C119.247 55.6804 118.559 55.6051 117.878 55.4871L117.628 55.4516C117.544 55.4355 117.464 55.413 117.38 55.3937L116.893 55.2778C116.57 55.1973 116.246 55.1361 115.933 55.0395L115.018 54.7175L114.565 54.5629L114.137 54.3762L113.291 53.9962C113.152 53.9365 113.017 53.8676 112.888 53.7901L112.498 53.5711C112.24 53.423 111.979 53.2846 111.732 53.1332L111.036 52.647C109.374 51.4746 107.97 50.0174 106.902 48.3548C106.784 48.1712 106.662 47.9973 106.554 47.817L106.269 47.2728L105.994 46.748C105.952 46.661 105.903 46.5773 105.865 46.4904L105.764 46.2328C105.625 45.8882 105.496 45.5598 105.371 45.2475C105.246 44.9351 105.19 44.6034 105.103 44.333C105.061 44.1881 105.023 44.0464 104.985 43.9079C104.942 43.7765 104.911 43.6418 104.894 43.5054C104.849 43.2414 104.807 42.9967 104.769 42.7681C104.731 42.5394 104.689 42.3301 104.668 42.1241C104.647 41.918 104.647 41.7537 104.637 41.596C104.616 41.274 104.602 41.0421 104.591 40.8779C104.581 40.7137 104.571 40.6332 104.571 40.6332C104.571 40.6332 104.571 40.7169 104.571 40.8779C104.571 41.0389 104.571 41.2836 104.598 41.5992C104.598 41.757 104.598 41.9212 104.623 42.1305C104.647 42.3398 104.685 42.533 104.717 42.7745C104.748 43.016 104.793 43.2511 104.835 43.5151C104.853 43.6512 104.882 43.7857 104.922 43.9176L105.04 44.3459C105.124 44.6357 105.19 44.948 105.301 45.2668C105.413 45.5856 105.555 45.9108 105.688 46.2553L105.792 46.5194C105.827 46.6063 105.876 46.69 105.917 46.777L106.192 47.305L106.474 47.8524C106.582 48.0328 106.704 48.2099 106.822 48.3966C107.89 50.0722 109.297 51.5416 110.967 52.7243L111.663 53.217C111.91 53.3683 112.171 53.51 112.432 53.6581L112.825 53.8803C112.953 53.96 113.088 54.03 113.229 54.0896L114.081 54.4728C114.224 54.5372 114.367 54.6048 114.513 54.666L114.969 54.8205L115.891 55.1425C116.204 55.2391 116.531 55.3035 116.855 55.3872L117.349 55.5032C117.429 55.5225 117.513 55.5482 117.596 55.5611L117.85 55.5998C118.54 55.7194 119.237 55.7958 119.938 55.8284C120.286 55.8284 120.634 55.8735 121.01 55.8702L122.096 55.8219C122.277 55.8219 122.461 55.8219 122.646 55.793L123.192 55.7157C123.557 55.6609 123.93 55.6223 124.299 55.5547C125.043 55.4033 125.775 55.2064 126.491 54.9654L127.037 54.7819C127.128 54.7529 127.222 54.7239 127.312 54.6885L127.573 54.5726L128.638 54.1025C128.986 53.9286 129.334 53.7257 129.665 53.539C129.832 53.4391 130.013 53.3554 130.173 53.2427L130.657 52.9207C131.314 52.4719 131.938 51.9835 132.525 51.4588L133.364 50.6088L133.576 50.3962L133.764 50.1644L134.144 49.7007L134.519 49.2306L134.867 48.7315L135.198 48.2292L135.365 47.978L135.508 47.7108L136.068 46.6385L136.517 45.5147C137.656 42.403 137.663 39.0318 136.538 35.9159C136.388 35.5392 136.239 35.1656 136.092 34.7889C135.946 34.4122 135.72 34.074 135.536 33.7166C135.49 33.6297 135.445 33.5395 135.396 33.4494L135.229 33.1982L134.902 32.6927L134.572 32.1936L134.192 31.7234L133.816 31.2598C133.754 31.1825 133.695 31.102 133.629 31.0279L133.42 30.8122L132.585 29.9621C132 29.4345 131.378 28.944 130.723 28.4938L130.239 28.1718C130.079 28.0591 129.891 27.9721 129.731 27.8723C129.383 27.6856 129.056 27.4827 128.708 27.3056L127.664 26.8323L127.399 26.7131L127.124 26.6197L126.582 26.433C125.866 26.1918 125.135 25.9929 124.393 25.8373C124.024 25.7697 123.651 25.7278 123.286 25.6731L122.74 25.5958C122.555 25.5732 122.371 25.5732 122.19 25.5604L121.104 25.5089C120.756 25.5089 120.387 25.5346 120.032 25.5475C119.331 25.5765 118.634 25.6507 117.944 25.7697L117.69 25.8051C117.607 25.8051 117.527 25.8437 117.443 25.863L116.952 25.979C116.625 26.0595 116.298 26.1239 115.985 26.2172L115.059 26.5392L114.607 26.6938C114.457 26.755 114.315 26.8226 114.172 26.8838L113.319 27.2637C113.178 27.324 113.042 27.3939 112.912 27.473L112.519 27.692C112.261 27.8401 111.997 27.9786 111.75 28.1299L111.054 28.6226C109.374 29.7966 107.956 31.2608 106.878 32.9342C106.058 34.1897 105.45 35.5535 105.075 36.9785C105.037 37.1266 104.995 37.2683 104.957 37.4035C104.917 37.5369 104.887 37.6724 104.866 37.8092C104.825 38.0733 104.786 38.3212 104.748 38.5499C104.71 38.7785 104.671 38.991 104.651 39.1939C104.63 39.3967 104.633 39.5674 104.623 39.7252C104.623 40.0472 104.598 40.279 104.591 40.4464C104.584 40.6139 104.532 40.6622 104.532 40.6622Z" fill="#263238"/>
<path d="M115.863 42.4364C116.799 42.4364 117.558 41.7343 117.558 40.8682C117.558 40.0022 116.799 39.3001 115.863 39.3001C114.927 39.3001 114.168 40.0022 114.168 40.8682C114.168 41.7343 114.927 42.4364 115.863 42.4364Z" fill="#263238"/>
<path d="M120.93 42.4364C121.866 42.4364 122.625 41.7343 122.625 40.8682C122.625 40.0022 121.866 39.3001 120.93 39.3001C119.994 39.3001 119.235 40.0022 119.235 40.8682C119.235 41.7343 119.994 42.4364 120.93 42.4364Z" fill="#263238"/>
<path d="M125.993 42.4364C126.929 42.4364 127.688 41.7343 127.688 40.8682C127.688 40.0022 126.929 39.3001 125.993 39.3001C125.057 39.3001 124.299 40.0022 124.299 40.8682C124.299 41.7343 125.057 42.4364 125.993 42.4364Z" fill="#263238"/>
</svg>
