<svg width="84" height="84" viewBox="0 0 84 84" fill="none" xmlns="http://www.w3.org/2000/svg">
<circle cx="42" cy="42" r="42" fill="#66BADE"/>
<path d="M25.5802 41.7592V49.5242C26.9664 48.4748 29.9294 47.7511 33.3687 47.7511C38.0559 47.7511 41.865 49.0995 41.9898 50.7753H42.0147C42.1395 49.0995 45.9419 47.7511 50.6404 47.7511C54.0797 47.7511 57.0336 48.4748 58.4266 49.5242V41.7592L42.0079 46.9919L25.5802 41.7592ZM24.0534 44.6419C24.0534 43.5554 23.0325 42.6635 21.6985 42.5025V39.4906L41.9966 45.962L67 37.9953L41.9989 30.0251L17 37.9953L20.8341 39.2128V42.4972C19.5001 42.66 18.4747 43.5518 18.4747 44.6384C18.4747 45.4895 19.1144 46.2257 20.0355 46.5831C19.4071 47.9369 18.9851 50.2922 18.9851 52.9767H23.5384C23.5384 50.2869 23.1187 47.9298 22.488 46.5831C23.4182 46.231 24.0534 45.4948 24.0534 44.6419Z" fill="white"/>
</svg>
