<svg width="84" height="84" viewBox="0 0 84 84" fill="none" xmlns="http://www.w3.org/2000/svg">
<circle cx="42" cy="42" r="42" fill="#66BADE"/>
<path d="M53.6667 64.4H49.5V48.4H51.1667C51.6667 48.4 52 48.0801 52 47.6001V31.6C52 31.12 51.6667 30.8001 51.1667 30.8001H50.5834L48.5834 27.2001C48.4167 26.9601 48.1667 26.8 47.8334 26.8H47V25.2C47 24.72 46.6667 24.4 46.1667 24.4H45.75L42.8333 20.88V18.8C42.8333 18.32 42.5 18 42 18C41.5 18 41.1667 18.32 41.1667 18.8V20.88L38.25 24.4H37.8333C37.3333 24.4 37 24.72 37 25.2V26.8H36.1667C35.8334 26.8 35.5834 26.9601 35.4167 27.2001L33.4167 30.8001H32.8334C32.3334 30.8001 32.0001 31.12 32.0001 31.6V47.6001C32.0001 48.0801 32.3334 48.4 32.8334 48.4H34.5V64.4001H30.3333C29.8333 64.4001 29.5 64.72 29.5 65.2C29.5 65.68 29.8333 66 30.3333 66H32.8333H51.1666H53.6666C54.1666 66 54.4999 65.68 54.4999 65.2C54.4999 64.72 54.1667 64.4 53.6667 64.4ZM39.5 62C39.5 62.48 39.1667 62.7999 38.6667 62.7999C38.1667 62.7999 37.8334 62.48 37.8334 62V50.8C37.8334 50.32 38.1667 50.0001 38.6667 50.0001C39.1667 50.0001 39.5 50.32 39.5 50.8V62ZM42.8333 62C42.8333 62.48 42.5 62.7999 42 62.7999C41.5 62.7999 41.1667 62.48 41.1667 62V50.8C41.1667 50.32 41.5 50.0001 42 50.0001C42.5 50.0001 42.8333 50.32 42.8333 50.8V62ZM46.1667 62C46.1667 62.48 45.8334 62.7999 45.3334 62.7999C44.8334 62.7999 44.5001 62.48 44.5001 62V50.8C44.5001 50.32 44.8334 50.0001 45.3334 50.0001C45.8334 50.0001 46.1667 50.32 46.1667 50.8V62ZM42 45.2C38.75 45.2 36.1667 42.72 36.1667 39.6C36.1667 36.48 38.75 34 42 34C45.25 34 47.8333 36.48 47.8333 39.6C47.8333 42.72 45.25 45.2 42 45.2Z" fill="white"/>
<path d="M43.6666 38.8H42.8333V37.2C42.8333 36.72 42.5 36.4 42 36.4C41.5 36.4 41.1667 36.72 41.1667 37.2V39.6C41.1667 40.08 41.5 40.4 42 40.4H43.6667C44.1667 40.4 44.5001 40.08 44.5001 39.6C44.5001 39.12 44.1666 38.8 43.6666 38.8Z" fill="white"/>
</svg>
