<svg width="84" height="84" viewBox="0 0 84 84" fill="none" xmlns="http://www.w3.org/2000/svg">
<circle cx="42" cy="42" r="42" fill="#3273DB"/>
<g clip-path="url(#clip0_80_3)">
<path d="M21.1569 44.9478V44.9465L21.1555 44.942L21.1569 44.9478Z" fill="white"/>
<path d="M21.8225 46.4581L21.8127 46.4466C21.812 46.4459 21.812 46.4459 21.812 46.4459L21.8225 46.4581Z" fill="white"/>
<path d="M21.8225 39.4798L21.8127 39.4683C21.812 39.4683 21.812 39.4683 21.812 39.4683L21.8225 39.4798Z" fill="white"/>
<path d="M21.1571 37.9707C21.1571 37.9707 21.1571 37.9687 21.1564 37.9675L21.1558 37.9656L21.1571 37.9707Z" fill="white"/>
<path d="M63 37.9913C63.0007 37.8135 62.9643 37.6413 62.9057 37.4781C62.9631 37.3273 62.9934 37.1753 62.9941 37.0282C62.9954 36.797 62.9281 36.5734 62.8259 36.3937L62.8227 36.3881C62.7916 36.3341 62.7494 36.2769 62.7026 36.2197V31.9019C62.8886 31.6474 62.9994 31.3415 63.0001 31.013C63.0001 30.3772 62.5977 29.8061 61.9822 29.5656L46.7769 23.5151H46.7327C46.4134 23.4083 46.0824 23.3442 45.7465 23.3442C45.4187 23.3442 45.0902 23.4052 44.7743 23.5088H44.7348L22.4492 32.0614L22.3938 32.091L22.3951 32.0928C22.1108 32.2354 21.9004 32.4333 21.7553 32.6249C21.5014 32.961 21.3714 33.3153 21.277 33.637L21.2764 33.6413C21.1346 34.1408 21.0752 34.6478 21.039 35.0769L21.0383 35.0806C21.0047 35.5116 21.0027 35.876 21.0001 36.0256V36.0293V36.1092C21.0007 36.6324 21.0311 37.3128 21.1564 37.9674L21.1584 37.9744C21.2244 38.3035 21.3174 38.6378 21.4758 38.9632L21.4784 38.9682L21.479 38.9695C21.5595 39.1297 21.6644 39.3012 21.8095 39.4646L21.8128 39.4683C21.8233 39.4803 21.8385 39.491 21.8504 39.5023C21.8201 39.5362 21.7804 39.5688 21.7553 39.6034C21.5007 39.9389 21.3715 40.2932 21.2771 40.6142L21.2764 40.6173V40.6185C21.1347 41.118 21.0753 41.6256 21.039 42.0546L21.0384 42.0578C21.0046 42.4894 21.0026 42.8531 21 43.0033V43.0064V43.0868C21.0007 43.6108 21.031 44.2912 21.157 44.9464L21.1583 44.9514C21.2244 45.2813 21.3173 45.6161 21.4757 45.9415L21.4789 45.9471C21.5588 46.1061 21.6636 46.2776 21.8094 46.4428L21.8127 46.4466C21.8391 46.4767 21.878 46.5038 21.909 46.5338C21.8568 46.5885 21.7969 46.6426 21.7553 46.6972C21.5006 47.0333 21.3714 47.3877 21.277 47.708L21.2751 47.7168L21.2764 47.713C21.1346 48.2124 21.0752 48.7201 21.039 49.1492L21.0383 49.1529C21.0047 49.5839 21.0027 49.9482 21.0001 50.099V50.1028V50.1806C21.0007 50.7052 21.0311 51.3862 21.1571 52.0415L21.1584 52.0465C21.2244 52.3757 21.3174 52.7106 21.4758 53.0353L21.479 53.0416C21.5589 53.2012 21.6637 53.3721 21.8095 53.5373L21.799 53.526L21.8128 53.5417C21.952 53.6956 22.1433 53.8445 22.3821 53.9556L22.3795 53.9594L22.3841 53.9619L22.4177 53.9801L38.8197 60.427L38.8573 60.4421C39.2208 60.5835 39.6073 60.6556 39.9958 60.6556C40.3771 60.6556 40.759 60.586 41.1191 60.4458L62.1115 52.3216V52.321C62.3536 52.228 62.5819 52.0766 62.7567 51.8335L62.7574 51.8341C62.7574 51.8341 62.758 51.8322 62.7587 51.831C62.7593 51.8303 62.76 51.8303 62.7606 51.8291H62.76C62.9255 51.5903 62.9928 51.3391 62.9942 51.1003C62.9955 50.8691 62.9281 50.6455 62.826 50.4658L62.8227 50.4602V50.4608C62.7917 50.4067 62.7495 50.349 62.7026 50.2918V45.9746C62.8887 45.7202 62.9995 45.413 63.0002 45.0851C63.0008 44.8866 62.9566 44.6937 62.882 44.5134C62.9573 44.3438 62.9935 44.171 62.9942 44.0057C62.9955 43.7739 62.9281 43.5516 62.826 43.3706L62.8227 43.3649C62.7917 43.3115 62.7495 43.2537 62.7026 43.1965V38.8799C62.8884 38.6252 62.9993 38.3185 63 37.9913ZM38.7411 58.6513L23.1207 52.5109L23.0619 52.4456C23.0131 52.3733 22.9505 52.2357 22.9003 52.0649C22.8226 51.8092 22.7691 51.4762 22.7368 51.1395C22.7044 50.8034 22.6932 50.4648 22.6932 50.1808V50.1136C22.6958 49.8944 22.7044 49.2599 22.7994 48.663C22.8442 48.3652 22.9135 48.0781 22.9992 47.8746L23.0171 47.8375L38.7409 53.9125V58.6513H38.7411ZM38.7411 51.5566L24.5278 45.9679L23.1208 45.4164L23.062 45.351C23.0132 45.2781 22.9506 45.1412 22.9004 44.9709C22.8227 44.7139 22.7692 44.3816 22.7368 44.0449C22.7045 43.7088 22.6933 43.3703 22.6933 43.0868V43.019C22.6959 42.7992 22.7044 42.1653 22.7994 41.5678C22.8443 41.2706 22.9136 40.9828 22.9993 40.7799L23.0171 40.7429L38.741 46.8178V51.5566H38.7411ZM38.7411 40.2259V40.5135V44.5788L24.3767 38.9304L23.1208 38.4385L23.062 38.3725C23.0132 38.3003 22.9506 38.1627 22.9004 37.9931C22.8227 37.7367 22.7692 37.4045 22.7368 37.0671C22.7045 36.7303 22.6933 36.3924 22.6933 36.1091V36.0412C22.6959 35.822 22.7044 35.1874 22.7994 34.5906C22.8443 34.2928 22.9136 34.0057 22.9993 33.8021L23.0171 33.7657L38.741 39.8401V40.2259H38.7411ZM61.0092 51.0089L40.5366 58.9302L40.4824 58.9534C40.3248 59.0124 40.1605 59.0432 39.9956 59.0432C39.9369 59.0432 39.8769 59.035 39.8189 59.0263V54.2285C39.8961 54.2367 39.9759 54.241 40.0531 54.241C40.3612 54.241 40.6699 54.1832 40.9581 54.0702L40.9779 54.0621L61.0093 46.2758V51.0089H61.0092ZM61.0092 43.8872V43.9136L40.5366 51.8356L40.4824 51.8582C40.3248 51.9179 40.1605 51.9481 39.9956 51.9481C39.9369 51.9481 39.8769 51.9399 39.8189 51.9324V47.1339C39.8961 47.1421 39.9759 47.1465 40.0531 47.1465C40.3612 47.1465 40.6699 47.0887 40.9581 46.9762L40.9779 46.9674L55.0275 41.5068L61.0092 39.181V43.8872ZM61.0092 36.7926V36.9364L40.5366 44.8578L40.4824 44.8804C40.3248 44.9401 40.1605 44.9709 39.9956 44.9709C39.9369 44.9709 39.8769 44.9627 39.8189 44.9546V40.5683V40.1556C39.8961 40.1644 39.9759 40.1681 40.0531 40.1681C40.3612 40.1681 40.6699 40.111 40.9581 39.9985L40.9779 39.9903L61.0093 32.2035V36.7926H61.0092Z" fill="white"/>
<path d="M21.1569 52.043V52.0417L21.1555 52.0378L21.1569 52.043Z" fill="white"/>
</g>
<defs>
<clipPath id="clip0_80_3">
<rect width="42" height="40" fill="white" transform="translate(21 22)"/>
</clipPath>
</defs>
</svg>
