<svg width="84" height="84" viewBox="0 0 84 84" fill="none" xmlns="http://www.w3.org/2000/svg">
<circle cx="42" cy="42" r="42" fill="#3273DB"/>
<path d="M41.5001 21.9166C30.7018 21.9166 21.9167 30.7017 21.9167 41.5C21.9167 52.2982 30.7018 61.0833 41.5001 61.0833C52.2983 61.0833 61.0834 52.2982 61.0834 41.5C61.0834 30.7017 52.2983 21.9166 41.5001 21.9166ZM41.5001 57.1666C32.8619 57.1666 25.8334 50.1382 25.8334 41.5C25.8334 32.8618 32.8619 25.8333 41.5001 25.8333C50.1383 25.8333 57.1667 32.8618 57.1667 41.5C57.1667 50.1382 50.1383 57.1666 41.5001 57.1666Z" fill="white"/>
<path d="M34.6458 39.5416C36.2681 39.5416 37.5833 38.2265 37.5833 36.6041C37.5833 34.9818 36.2681 33.6666 34.6458 33.6666C33.0234 33.6666 31.7083 34.9818 31.7083 36.6041C31.7083 38.2265 33.0234 39.5416 34.6458 39.5416Z" fill="white"/>
<path d="M48.3405 39.5142C49.9553 39.5142 51.2643 38.2052 51.2643 36.5904C51.2643 34.9757 49.9553 33.6666 48.3405 33.6666C46.7258 33.6666 45.4167 34.9757 45.4167 36.5904C45.4167 38.2052 46.7258 39.5142 48.3405 39.5142Z" fill="white"/>
<path d="M41.5 53.25C51.2917 53.25 53.25 43.4584 53.25 43.4584H29.75C29.75 43.4584 31.7083 53.25 41.5 53.25Z" fill="white"/>
</svg>
