<svg width="84" height="84" viewBox="0 0 84 84" fill="none" xmlns="http://www.w3.org/2000/svg">
<circle cx="42" cy="42" r="42" fill="#66BADE"/>
<g clip-path="url(#clip0_64_5)">
<path d="M66.1502 26.6498C65.2701 26.1296 64.0773 26.3358 63.4859 27.1105L58.2009 34.0357C57.6209 33.7807 56.967 33.6367 56.2745 33.6367H53.3945C52.7056 33.6367 52.0546 33.7794 51.4765 34.0319L46.1946 27.1106C45.6032 26.3356 44.4106 26.1298 43.5303 26.6499C42.65 27.1702 42.4157 28.2199 43.0068 28.9946L49.1057 36.9865C49.0608 37.3204 49.0801 59.5093 49.0801 59.5093C49.0801 60.6758 50.1546 61.6213 51.4801 61.6213C52.8057 61.6213 53.8801 60.6758 53.8801 59.5093V50.005H55.8002V59.5093C55.8002 60.6758 56.8747 61.6213 58.2002 61.6213C59.5258 61.6213 60.6002 60.6758 60.6002 59.5093C60.6002 51.3471 60.612 37.3618 60.565 36.9993L66.6737 28.9946C67.2648 28.2197 67.0306 27.1701 66.1502 26.6498Z" fill="white"/>
<path d="M54.8403 32.4562C57.381 32.4562 59.4416 30.6445 59.4416 28.4071C59.4416 26.9863 58.6076 25.7366 57.3475 25.0142C57.5969 24.8677 57.8813 24.732 58.2116 24.614C58.3687 24.5578 58.4745 24.4267 58.4825 24.2776C58.4906 24.1285 58.3993 23.989 58.2487 23.92C57.521 23.5875 56.6343 23.5806 55.7975 23.7218C55.9395 23.4878 56.1182 23.2488 56.3478 23.0064C56.4564 22.8917 56.4794 22.732 56.4066 22.5973C56.3338 22.4625 56.1786 22.3773 56.009 22.3789C54.3273 22.3958 52.7848 23.896 52.1704 24.7932C52.0609 24.9529 51.9729 25.1198 51.9069 25.2892C50.8881 26.0319 50.2389 27.153 50.2389 28.407C50.2391 30.6445 52.2997 32.4562 54.8403 32.4562Z" fill="white"/>
<path d="M40.4697 26.6497C39.5895 26.1296 38.3968 26.3357 37.8054 27.1104L36.5537 28.7508C36.0609 28.5472 35.5124 28.521 34.9882 28.7695C34.956 28.7847 34.9264 28.8022 34.8958 28.8186L34.9033 28.8001C35.0352 28.4699 34.8379 28.1083 34.4628 27.9922C34.2071 27.9129 33.9372 27.9705 33.7481 28.118C33.5793 26.0185 31.5899 24.3593 29.1598 24.3593C26.7295 24.3593 24.7401 26.0185 24.5714 28.118C24.3819 27.9705 24.112 27.9128 23.8567 27.9922C23.4815 28.1083 23.2843 28.4699 23.4162 28.8001L23.4236 28.8186C23.393 28.8021 23.3633 28.7846 23.3315 28.7695C22.8074 28.521 22.2585 28.5472 21.7658 28.7506L20.5141 27.1104C19.9228 26.3354 18.7296 26.1294 17.8497 26.6497C16.9694 27.17 16.7352 28.2197 17.3262 28.9944L19.5238 31.8739C19.4054 32.4079 19.4026 32.9521 19.6068 33.4451C19.6649 33.5853 19.8103 33.6832 19.9792 33.6955C20.1484 33.7078 20.3099 33.6325 20.3934 33.5027C20.4513 33.4128 20.5112 33.3287 20.5718 33.2474L23.4252 36.9863C23.3819 37.3087 23.3937 37.008 23.3937 42.4154L20.78 51.7927C20.6581 52.2301 20.7712 52.6926 21.0872 53.047C21.4029 53.4014 21.8865 53.6084 22.3984 53.6084H23.3996V59.509C23.3996 60.6754 24.4741 61.621 25.7996 61.621C27.1251 61.621 28.1996 60.6754 28.1996 59.509V53.6084H30.1197V59.509C30.1197 60.6754 31.1942 61.621 32.5197 61.621C33.8452 61.621 34.9197 60.6754 34.9197 59.509V53.6084H35.9097C36.4216 53.6084 36.9051 53.4014 37.2208 53.047C37.5369 52.6926 37.6499 52.2301 37.528 51.7927L34.9142 42.4145C34.9142 37.0058 34.9251 37.3122 34.8844 36.9991L37.7476 33.2471C37.8085 33.3284 37.8681 33.4125 37.926 33.5024C38.0095 33.6323 38.1712 33.7077 38.3403 33.6952C38.5095 33.6829 38.6547 33.585 38.7128 33.4448C38.917 32.9518 38.9141 32.4076 38.7956 31.8736L40.9932 28.9941C41.5843 28.2197 41.35 27.17 40.4697 26.6497ZM32.5206 34.0357C31.9405 33.7807 31.2865 33.6366 30.5939 33.6366H27.714C27.025 33.6366 26.3741 33.7793 25.7961 34.0317L23.7118 31.3008C23.8762 31.211 24.005 31.1103 24.0842 30.9808C24.1454 30.8807 24.1936 30.7776 24.2293 30.6728C24.3646 30.8012 24.5552 30.8766 24.7555 30.8766C24.8347 30.8766 24.9155 30.8651 24.9943 30.8406C25.1272 30.7993 25.2365 30.7263 25.3181 30.6356C26.1416 31.7326 27.5546 32.4563 29.1598 32.4563C30.7651 32.4563 32.1781 31.7326 33.0014 30.6356C33.083 30.7263 33.1922 30.7993 33.3253 30.8406C33.4044 30.8651 33.4849 30.8766 33.5641 30.8766C33.7645 30.8766 33.955 30.801 34.0904 30.6728C34.126 30.7774 34.174 30.8807 34.2354 30.9808C34.3146 31.1102 34.4434 31.2109 34.6078 31.3006L32.5206 34.0357Z" fill="white"/>
</g>
<defs>
<clipPath id="clip0_64_5">
<rect width="50" height="44" fill="white" transform="translate(17 20)"/>
</clipPath>
</defs>
</svg>
